<svg width="72" height="72" viewBox="0 0 72 72" fill="none" xmlns="http://www.w3.org/2000/svg">
<g clip-path="url(#clip0_164_1279)">
<path d="M53.8876 71.9997C52.8024 71.9997 51.7358 71.9997 50.6506 71.9997C50.5009 71.9623 50.3512 71.8875 50.1828 71.8688C46.4968 71.4571 43.1849 70.1099 40.266 67.8272C39.8356 67.4904 39.424 67.3407 38.8814 67.3407C30.162 67.3594 21.4427 67.3594 12.7421 67.3594C10.4593 67.3594 8.15789 67.3781 5.87514 67.3594C3.29302 67.3407 1.14125 65.7315 0.392814 63.3365C0.299259 63.0559 0.224414 62.7565 0.130859 62.4758C0.130859 47.4134 0.130859 32.3511 0.130859 17.2887C0.467658 16.7835 0.8793 16.4093 1.51547 16.6338C2.15165 16.8584 2.26392 17.401 2.22649 17.9997C2.20778 18.1868 2.22649 18.3739 2.22649 18.5611C2.22649 32.7814 2.22649 47.0018 2.22649 61.2035C2.22649 63.8043 3.66724 65.245 6.24936 65.245C16.3907 65.245 26.5508 65.245 36.6922 65.245C36.9167 65.245 37.1413 65.245 37.4593 65.245C36.9354 64.534 36.4489 63.9727 36.0747 63.3365C35.7754 62.8126 35.4011 62.6816 34.8211 62.7004C26.083 62.7191 17.3263 62.7191 8.58824 62.7191C6.11839 62.7191 4.75248 61.3532 4.75248 58.9207C4.75248 42.9228 4.75248 26.9436 4.75248 10.9457C4.75248 8.49453 6.08096 7.16605 8.5134 7.14734C10.871 7.14734 13.2286 7.14734 15.6049 7.14734C15.8481 7.14734 16.1101 7.14734 16.3533 7.14734C16.4094 6.26792 16.4656 5.48205 16.5217 4.65877C16.4469 4.64006 16.372 4.60264 16.2785 4.60264C12.7047 4.60264 9.13086 4.56521 5.55705 4.64006C3.70466 4.67748 2.30134 6.24921 2.26392 8.1016C2.22649 9.50492 2.2452 10.9082 2.26392 12.3116C2.26392 12.9103 2.20778 13.4529 1.5529 13.6962C0.898011 13.9394 0.50508 13.5465 0.14957 13.0787C0.14957 11.1515 0.14957 9.24297 0.14957 7.31573C0.299259 6.84796 0.411525 6.38018 0.617346 5.93112C1.74001 3.53611 3.66724 2.46958 6.28678 2.46958C11.3575 2.48829 16.4282 2.46958 21.5176 2.46958C21.7795 2.46958 22.1537 2.46958 22.3034 2.30118C23.2764 1.12239 24.5487 0.504923 25.9708 0.149414C26.5321 0.149414 27.0934 0.149414 27.6548 0.149414C28.9084 0.504923 30.0872 0.972699 30.9479 2.0018C31.2847 2.39474 31.6215 2.48829 32.0893 2.48829C37.1225 2.46958 42.1371 2.48829 47.1704 2.46958C48.5363 2.46958 49.8273 2.69411 50.95 3.5174C52.6714 4.77104 53.4011 6.49245 53.3824 8.60679C53.3637 16.3157 53.3824 24.0434 53.3824 31.7523C53.3824 32.0517 53.3824 32.3511 53.3824 32.6317C53.4947 32.6879 53.5695 32.7253 53.6257 32.7253C53.8128 32.7627 53.9999 32.7814 54.187 32.8001C62.5508 33.8667 68.1641 38.3947 70.9895 46.3095C71.4947 47.7315 71.6631 49.3033 71.9812 50.8001C71.9812 51.8293 71.9812 52.8584 71.9812 53.8875C71.9437 54.0933 71.8876 54.2804 71.8502 54.4862C70.9708 62.3823 65.4323 69.006 57.7795 71.1952C56.5072 71.5694 55.1974 71.7378 53.8876 71.9997ZM33.6049 46.4218C33.2494 46.4218 33.0061 46.4218 32.7442 46.4218C30.1246 46.4218 27.5051 46.4218 24.8855 46.4218C24.6236 46.4218 24.3616 46.4218 24.1184 46.3469C23.6132 46.1972 23.3699 45.8043 23.4074 45.2804C23.4448 44.7378 23.7629 44.4384 24.2868 44.3448C24.5113 44.3074 24.7546 44.3261 24.9791 44.3261C27.8232 44.3261 30.686 44.3074 33.53 44.3448C34.1475 44.3448 34.4843 44.2139 34.765 43.6151C35.1766 42.7357 35.7192 41.8937 36.2618 41.0891C36.5986 40.6026 37.2535 40.5278 37.6839 40.8646C38.1516 41.2201 38.2639 41.6879 37.9832 42.2305C37.8897 42.4176 37.7587 42.586 37.6465 42.7544C35.2514 46.4592 34.2972 50.5195 34.9708 54.8604C36.4677 64.7399 45.4864 71.3261 55.3097 69.586C62.1018 68.3885 66.7608 64.3469 68.9313 57.8355C71.083 51.3615 69.7358 45.3927 65.0955 40.3968C58.7712 33.586 48.7234 32.9311 41.3512 38.6754C40.6589 39.218 40.0415 39.218 39.6298 38.6941C39.2182 38.1702 39.3679 37.5714 40.0602 37.0288C41.819 35.6068 43.765 34.5216 45.9354 33.8105C46.4219 33.6608 46.6277 33.455 46.6277 32.8937C46.609 25.559 46.609 18.2055 46.609 10.8708C46.609 9.6359 46.1974 9.24297 44.9625 9.24297C42.5862 9.24297 40.1912 9.24297 37.8149 9.24297C37.5903 9.24297 37.3658 9.26168 37.0851 9.28039C37.0851 9.8043 37.1038 10.2534 37.0851 10.6837C36.9541 12.4987 35.607 13.8459 33.792 13.8646C29.0955 13.902 24.399 13.902 19.6839 13.8646C17.8128 13.8459 16.4469 12.349 16.4094 10.4405C16.4094 10.0475 16.4094 9.67332 16.4094 9.22426C13.7899 9.22426 11.2639 9.22426 8.73793 9.22426C7.22234 9.22426 6.86683 9.56106 6.86683 11.0766C6.86683 26.9623 6.86683 42.8292 6.86683 58.7149C6.86683 60.2118 7.24105 60.586 8.71922 60.586C17.0456 60.586 25.372 60.586 33.6984 60.586C33.923 60.586 34.1475 60.586 34.4843 60.586C32.4635 55.9457 32.1641 51.2679 33.6049 46.4218ZM26.8128 11.769C29.0394 11.769 31.2473 11.769 33.4739 11.769C34.5217 11.769 34.9895 11.3199 35.0082 10.2908C35.0269 8.86875 35.0269 7.44671 35.0082 6.00596C34.9895 5.03299 34.5404 4.60264 33.5862 4.56521C32.7629 4.5465 31.9583 4.5465 31.135 4.56521C30.555 4.58393 30.1246 4.3781 29.7691 3.87291C28.1974 1.68372 25.3346 1.68372 23.7629 3.89162C23.4261 4.35939 23.0331 4.56521 22.4718 4.56521C21.6298 4.5465 20.7878 4.5465 19.9458 4.56521C18.9916 4.58393 18.5425 5.0517 18.5238 6.00596C18.5051 7.39058 18.5238 8.75648 18.5238 10.1411C18.5238 11.3012 18.9729 11.7502 20.1329 11.7502C22.3596 11.769 24.5862 11.769 26.8128 11.769ZM51.2868 32.7066C51.2868 32.3885 51.2868 32.164 51.2868 31.9207C51.2868 24.1557 51.2868 16.3906 51.2868 8.64422C51.2868 5.98725 49.8835 4.58393 47.2265 4.56521C44.0456 4.56521 40.8647 4.56521 37.6839 4.56521C37.4406 4.56521 37.1974 4.58393 36.9916 4.60264C37.0664 5.46334 37.1225 6.24921 37.1787 7.12862C37.4593 7.12862 37.7026 7.12862 37.9645 7.12862C40.2847 7.12862 42.5862 7.12862 44.9063 7.12862C45.3554 7.12862 45.8045 7.12862 46.2348 7.24089C47.8252 7.65253 48.7421 8.94359 48.7421 10.7586C48.7421 17.8875 48.7421 25.0164 48.7421 32.1453C48.7421 32.4072 48.7421 32.6879 48.7421 33.006C49.6215 32.8937 50.4074 32.8001 51.2868 32.7066Z" fill="#FE4438"/>
<path d="M52.3717 67.3596C44.0827 67.3596 37.328 60.6237 37.3467 52.3347C37.3467 44.0831 44.1014 37.3472 52.3342 37.3472C60.6232 37.3472 67.3779 44.1018 67.3592 52.3721C67.3592 60.6237 60.6232 67.3596 52.3717 67.3596ZM65.2449 52.3908C65.2636 45.2806 59.4819 39.4615 52.3904 39.4428C45.2802 39.4241 39.4611 45.1871 39.4236 52.2786C39.4049 59.4075 45.1866 65.2453 52.3155 65.264C59.4257 65.264 65.2449 59.4823 65.2449 52.3908Z" fill="black"/>
<path d="M26.7569 23.1642C24.8858 23.1642 23.0147 23.1642 21.1436 23.1642C19.6093 23.1642 18.7486 22.3035 18.7299 20.7879C18.7111 20.0956 18.7111 19.3846 18.7299 18.6923C18.7673 17.2889 19.6467 16.4282 21.0313 16.4282C24.8484 16.4282 28.6467 16.4282 32.4637 16.4282C33.8296 16.4282 34.7465 17.3264 34.7839 18.6923C34.8026 19.422 34.8026 20.133 34.7839 20.8627C34.7652 22.2473 33.8671 23.1455 32.5012 23.1642C30.5926 23.1829 28.6841 23.1642 26.7569 23.1642ZM32.6696 18.5613C28.7028 18.5613 24.8109 18.5613 20.9003 18.5613C20.9003 19.4033 20.9003 20.1891 20.9003 20.9937C24.8484 20.9937 28.759 20.9937 32.6696 20.9937C32.6696 20.1704 32.6696 19.4033 32.6696 18.5613Z" fill="black"/>
<path d="M15.1186 39.4427C13.9772 39.4427 12.8358 39.4614 11.6757 39.4427C10.3847 39.424 9.44912 38.5446 9.43041 37.2535C9.39299 34.9147 9.39299 32.5758 9.43041 30.2369C9.44912 28.9459 10.3847 28.0664 11.6757 28.0477C13.9959 28.029 16.2974 28.029 18.6175 28.0477C19.8712 28.0477 20.788 28.871 20.8067 30.1246C20.8628 32.5384 20.8628 34.9334 20.8067 37.3471C20.788 38.6195 19.8337 39.424 18.5427 39.4427C17.42 39.4427 16.2786 39.4427 15.1186 39.4427ZM11.5635 37.3097C13.9772 37.3097 16.3161 37.3097 18.6737 37.3097C18.6737 34.9147 18.6737 32.5571 18.6737 30.2182C16.2599 30.2182 13.9211 30.2182 11.5635 30.2182C11.5635 32.5945 11.5635 34.9147 11.5635 37.3097Z" fill="black"/>
<path d="M15.1371 53.3822C14.0144 53.3822 12.8917 53.4009 11.7691 53.3822C10.3096 53.3635 9.43021 52.4841 9.41149 51.0059C9.39278 48.7793 9.39278 46.5714 9.41149 44.3448C9.41149 42.8853 10.3283 41.9872 11.7878 41.9872C14.0144 41.9685 16.2223 41.9685 18.4489 41.9872C19.9084 41.9872 20.8065 42.8666 20.8252 44.3448C20.8439 46.5901 20.8439 48.8354 20.8252 51.0807C20.8065 52.5215 19.9458 53.3822 18.4863 53.4009C17.3824 53.4009 16.2597 53.3822 15.1371 53.3822ZM11.582 44.1202C11.582 46.534 11.582 48.8728 11.582 51.2304C13.977 51.2304 16.3159 51.2304 18.6734 51.2304C18.6734 48.8354 18.6734 46.4778 18.6734 44.1202C16.2784 44.1202 13.9396 44.1202 11.582 44.1202Z" fill="black"/>
<path d="M30.2367 32.4633C28.5153 32.4633 26.7752 32.4633 25.0538 32.4633C24.848 32.4633 24.6234 32.4633 24.4176 32.4445C23.7814 32.3884 23.4072 31.9955 23.4072 31.4154C23.4072 30.8354 23.7814 30.4238 24.4176 30.3676C24.7731 30.3302 25.1099 30.3489 25.4654 30.3489C28.8147 30.3489 32.1453 30.3489 35.4945 30.3489C35.7191 30.3489 35.9623 30.3302 36.1869 30.3676C36.7669 30.4612 37.1037 30.8167 37.085 31.4342C37.0663 32.0329 36.7295 32.3884 36.112 32.4258C35.7378 32.4633 35.3636 32.4445 34.9893 32.4445C33.4176 32.4633 31.8272 32.4633 30.2367 32.4633Z" fill="black"/>
<path d="M27.8979 51.0624C26.8313 51.0624 25.7461 51.0624 24.6796 51.0624C23.8563 51.0624 23.4072 50.6695 23.4072 49.9959C23.4072 49.341 23.8563 48.9668 24.6422 48.9668C26.8313 48.9668 29.0205 48.9668 31.2284 48.9668C32.0143 48.9668 32.4446 49.341 32.4634 49.9959C32.4821 50.6695 32.0143 51.0624 31.191 51.0624C30.0871 51.0811 28.9831 51.0624 27.8979 51.0624Z" fill="black"/>
<path d="M27.9732 35.0269C29.0771 35.0269 30.1624 35.0082 31.2663 35.0269C32.0335 35.0456 32.4264 35.3824 32.4638 36.0186C32.4825 36.6734 32.0709 37.1038 31.3037 37.1225C29.0584 37.1412 26.8318 37.1412 24.5865 37.1225C23.8193 37.1225 23.4077 36.6734 23.4264 36.0186C23.4451 35.4011 23.8567 35.0456 24.6239 35.0269C25.7278 35.0082 26.8505 35.0269 27.9732 35.0269Z" fill="black"/>
<path d="M41.8561 32.4449C41.4444 32.4449 41.0141 32.4823 40.6024 32.4449C40.0411 32.3887 39.723 32.052 39.6856 31.4719C39.6482 30.8732 39.9662 30.4428 40.565 30.4054C41.4257 30.3492 42.2864 30.3492 43.1471 30.4054C43.7272 30.4428 44.0827 30.8357 44.064 31.4345C44.0452 32.0332 43.7084 32.3887 43.1097 32.4449C42.6981 32.4823 42.2864 32.4449 41.8561 32.4449Z" fill="black"/>
<path d="M26.7565 6.88569C25.6339 6.88569 25.11 6.53018 25.1474 5.81916C25.1661 5.10814 25.6713 4.79005 26.7565 4.79005C26.9623 4.79005 27.1869 4.77134 27.3927 4.79005C28.0289 4.8649 28.4405 5.29525 28.4031 5.91272C28.3657 6.49276 27.9727 6.84827 27.3366 6.88569C27.1307 6.88569 26.9436 6.88569 26.7565 6.88569Z" fill="black"/>
<path d="M51.1741 50.1079C52.3903 49.0413 53.6065 47.9748 54.8041 46.9083C56.17 45.7108 57.3488 45.7856 58.5463 47.1328C58.9579 47.5819 59.3695 48.031 59.7625 48.4987C60.6232 49.5278 60.5858 50.8002 59.5941 51.6983C57.1804 53.8688 54.7479 56.0206 52.2968 58.1536C51.5858 58.7898 50.7999 58.7898 50.0702 58.191C48.3862 56.7877 46.7022 55.3657 45.0556 53.9249C44.1388 53.1203 44.0826 51.8293 44.8498 50.8937C45.3924 50.2388 45.9537 49.6214 46.5525 49.0226C47.3945 48.1806 48.4984 48.0871 49.4714 48.7794C50.0515 49.2097 50.5754 49.6588 51.1741 50.1079ZM48.1242 50.4072C47.5068 51.0808 46.9641 51.6796 46.3841 52.3158C48.0307 53.7004 49.5837 55.0289 51.1554 56.3574C53.5691 54.2243 55.9267 52.1474 58.303 50.033C57.7043 49.3781 57.1804 48.7794 56.6003 48.1432C56.2822 48.4052 56.0016 48.6484 55.7209 48.8917C54.6169 49.8646 53.513 50.8376 52.409 51.8106C51.5483 52.559 50.856 52.559 49.9579 51.8667C49.3779 51.3989 48.7978 50.9312 48.1242 50.4072Z" fill="black"/>
</g>
<defs>
<clipPath id="clip0_164_1279">
<rect width="72" height="72" fill="white"/>
</clipPath>
</defs>
</svg>
