<svg width="72" height="72" viewBox="0 0 72 72" fill="none" xmlns="http://www.w3.org/2000/svg">
<g clip-path="url(#clip0_44_182)">
<path fill-rule="evenodd" clip-rule="evenodd" d="M43.3587 10.869V7.64307H54.8354C56.2494 7.64307 57.4001 8.79408 57.4001 10.2079V21.1547L54.1741 26.7381V11.4315C54.1741 11.1209 53.9228 10.869 53.612 10.869H43.3587ZM67.1917 15.1517L66.6732 14.621L50.2578 43.0555L52.4351 44.3148L67.5617 18.1112C68.1156 17.1518 67.9646 15.943 67.1917 15.1517ZM51.5161 45.0817L46.8981 47.7476V42.4156L51.5161 45.0817ZM54.1741 43.5501V66.5242C54.1741 66.8348 53.9228 67.0867 53.612 67.0867H7.90041C7.82652 67.0867 7.75333 67.0722 7.68505 67.044C7.61676 67.0158 7.55471 66.9743 7.50245 66.9221C7.45019 66.8698 7.40875 66.8078 7.38049 66.7395C7.35223 66.6712 7.33772 66.5981 7.33777 66.5242V11.4315C7.33777 11.1204 7.58949 10.869 7.90041 10.869H18.1544V7.64307H6.67712C5.26285 7.64307 4.11169 8.79366 4.11169 10.2079V67.7476C4.11169 69.1621 5.26271 70.3126 6.67712 70.3126H54.8354C56.2495 70.3126 57.4001 69.1617 57.4001 67.7476V37.9641L54.1741 43.5501ZM16.6764 28.8143C15.9996 28.8143 15.4392 28.2522 15.4392 27.5755V22.1193C15.4392 21.4425 15.9994 20.8804 16.6764 20.8804H22.1339C22.8112 20.8804 23.3717 21.4422 23.3717 22.1193V23.3863L21.1152 25.4341L18.8455 23.1638C18.74 23.0582 18.5967 22.9988 18.4473 22.9987C18.298 22.9987 18.1547 23.058 18.049 23.1636C17.9434 23.2692 17.884 23.4124 17.8839 23.5618C17.8839 23.7111 17.9432 23.8544 18.0488 23.9601L20.6998 26.6094C20.7518 26.6616 20.8136 26.7031 20.8817 26.7313C20.9497 26.7595 21.0227 26.774 21.0964 26.774C21.2365 26.7745 21.3718 26.7223 21.4752 26.6277L23.3718 24.9059V27.5758C23.3718 28.2528 22.811 28.8146 22.1341 28.8146H16.6764V28.8143ZM22.1339 36.1857C22.811 36.1857 23.3717 36.7475 23.3717 37.4246V38.6933L21.1149 40.7413L18.8453 38.4691C18.7929 38.4167 18.7308 38.3752 18.6625 38.3469C18.5941 38.3186 18.5209 38.3041 18.4469 38.3041C18.3729 38.3041 18.2997 38.3187 18.2313 38.347C18.163 38.3753 18.1009 38.4169 18.0486 38.4692C17.943 38.5748 17.8837 38.718 17.8837 38.8673C17.8836 39.0167 17.9429 39.1599 18.0485 39.2656L20.6995 41.9148C20.7515 41.967 20.8133 42.0084 20.8814 42.0367C20.9494 42.0649 21.0224 42.0794 21.0961 42.0793C21.236 42.0802 21.3712 42.0284 21.4748 41.9343L23.3717 40.2101V42.8823C23.3717 43.5586 22.8102 44.1196 22.1339 44.1196H16.6764C16.0004 44.1196 15.4392 43.5583 15.4392 42.8823V37.4246C15.4392 36.7479 15.9996 36.1857 16.6764 36.1857H22.1339ZM22.1339 51.4928C22.8103 51.4928 23.3717 52.054 23.3717 52.7304V53.9991L21.1151 56.0469L18.8454 53.7762C18.7931 53.7238 18.7311 53.6822 18.6627 53.6538C18.5943 53.6254 18.521 53.6108 18.447 53.6108C18.3729 53.6108 18.2996 53.6254 18.2313 53.6538C18.1629 53.6823 18.1008 53.7239 18.0486 53.7764C17.9433 53.8818 17.8842 54.0247 17.8842 54.1738C17.8842 54.3228 17.9433 54.4657 18.0486 54.5712L20.6997 57.2206C20.8013 57.3235 20.9389 57.383 21.0835 57.3866C21.2282 57.3902 21.3685 57.3377 21.4752 57.24L23.3717 55.5187V58.188C23.3717 58.8645 22.8103 59.4255 22.1339 59.4255H16.6764C16.0004 59.4255 15.4392 58.864 15.4392 58.188V52.7304C15.4392 52.0544 16.0003 51.4928 16.6764 51.4928H22.1339Z" fill="#FFB715"/>
<path fill-rule="evenodd" clip-rule="evenodd" d="M30.3188 53.0074C30.3188 52.3857 30.8224 51.8824 31.4439 51.8824H44.3107C44.4585 51.8823 44.6048 51.9114 44.7413 51.9679C44.8778 52.0244 45.0019 52.1073 45.1064 52.2118C45.2109 52.3162 45.2937 52.4403 45.3503 52.5768C45.4068 52.7133 45.4359 52.8596 45.4358 53.0074C45.4358 53.1551 45.4067 53.3014 45.3502 53.4379C45.2936 53.5744 45.2108 53.6985 45.1063 53.8029C45.0018 53.9074 44.8778 53.9903 44.7413 54.0468C44.6048 54.1033 44.4585 54.1324 44.3107 54.1324H31.4439C31.2962 54.1324 31.1499 54.1033 31.0134 54.0468C30.8769 53.9903 30.7528 53.9074 30.6483 53.8029C30.5439 53.6985 30.461 53.5744 30.4044 53.4379C30.3479 53.3014 30.3188 53.1551 30.3188 53.0074ZM30.3188 57.9109C30.3188 57.7631 30.3479 57.6168 30.4044 57.4803C30.461 57.3438 30.5439 57.2198 30.6483 57.1153C30.7528 57.0108 30.8769 56.928 31.0134 56.8714C31.1499 56.8149 31.2962 56.7858 31.4439 56.7859H37.8772C38.025 56.7858 38.1713 56.8149 38.3077 56.8714C38.4442 56.9279 38.5682 57.0108 38.6727 57.1153C38.7771 57.2198 38.8599 57.3438 38.9164 57.4803C38.9729 57.6168 39.0019 57.7631 39.0018 57.9109C39.0018 58.5326 38.499 59.0359 37.8772 59.0359H31.4439C31.2962 59.0359 31.1499 59.0068 31.0133 58.9503C30.8768 58.8938 30.7528 58.811 30.6483 58.7065C30.5438 58.602 30.4609 58.478 30.4044 58.3414C30.3478 58.2049 30.3188 58.0586 30.3188 57.9109ZM30.3188 36.1449C30.3188 35.5233 30.8224 35.0199 31.4439 35.0199H44.3107C44.9323 35.0199 45.4358 35.5233 45.4358 36.1449C45.4358 36.7666 44.9323 37.2699 44.3107 37.2699H31.4439C31.2962 37.27 31.1499 37.2409 31.0133 37.1844C30.8768 37.1279 30.7528 37.045 30.6483 36.9405C30.5438 36.8361 30.4609 36.712 30.4044 36.5755C30.3478 36.439 30.3188 36.2927 30.3188 36.1449ZM30.3188 41.0499C30.3188 40.9022 30.3479 40.7559 30.4044 40.6194C30.461 40.4829 30.5439 40.3588 30.6483 40.2544C30.7528 40.1499 30.8769 40.067 31.0134 40.0105C31.1499 39.954 31.2962 39.9249 31.4439 39.9249H37.8772C38.025 39.9249 38.1713 39.954 38.3077 40.0105C38.4442 40.067 38.5682 40.1499 38.6727 40.2544C38.7771 40.3588 38.8599 40.4829 38.9164 40.6194C38.9729 40.7559 39.0019 40.9022 39.0018 41.0499C39.0018 41.6701 38.499 42.1749 37.8772 42.1749H31.4439C30.8224 42.1749 30.3188 41.6701 30.3188 41.0499ZM30.3188 22.3946C30.3188 22.2468 30.3479 22.1005 30.4044 21.964C30.461 21.8275 30.5439 21.7035 30.6483 21.5991C30.7528 21.4946 30.8769 21.4117 31.0134 21.3552C31.1499 21.2987 31.2962 21.2696 31.4439 21.2696H44.3107C44.4585 21.2696 44.6048 21.2987 44.7413 21.3552C44.8778 21.4117 45.0018 21.4946 45.1063 21.5991C45.2108 21.7035 45.2936 21.8275 45.3502 21.964C45.4067 22.1005 45.4358 22.2468 45.4358 22.3946C45.4358 23.0163 44.9323 23.5196 44.3107 23.5196H31.4439C31.2962 23.5197 31.1499 23.4906 31.0133 23.4341C30.8768 23.3776 30.7528 23.2947 30.6483 23.1902C30.5438 23.0857 30.4609 22.9617 30.4044 22.8252C30.3478 22.6887 30.3188 22.5424 30.3188 22.3946ZM30.3188 27.2996C30.3188 27.1518 30.3479 27.0055 30.4044 26.869C30.461 26.7325 30.5439 26.6085 30.6483 26.5041C30.7528 26.3996 30.8769 26.3167 31.0134 26.2602C31.1499 26.2037 31.2962 26.1746 31.4439 26.1746H37.8772C38.025 26.1746 38.1713 26.2036 38.3077 26.2602C38.4442 26.3167 38.5682 26.3996 38.6727 26.504C38.7771 26.6085 38.8599 26.7326 38.9164 26.8691C38.9729 27.0056 39.0019 27.1519 39.0018 27.2996C39.0018 27.9198 38.499 28.4246 37.8772 28.4246H31.4439C30.8224 28.4246 30.3188 27.9198 30.3188 27.2996ZM67.0747 17.8301L52.2296 43.5461L51.0261 42.8501L66.7895 15.5449C67.3732 16.1426 67.5126 17.0733 67.0747 17.8301ZM56.8379 67.7477V40.0627L54.7368 43.7008V66.5241C54.7368 67.1456 54.2332 67.6491 53.6122 67.6491H7.9005C7.75274 67.6492 7.60643 67.6201 7.46991 67.5636C7.3334 67.507 7.20935 67.4242 7.10487 67.3197C7.00039 67.2152 6.91751 67.0912 6.86097 66.9547C6.80443 66.8182 6.77534 66.6719 6.77536 66.5241V11.4315C6.77536 11.2837 6.80446 11.1374 6.86101 11.0009C6.91755 10.8644 7.00043 10.7404 7.10491 10.6359C7.20939 10.5315 7.33343 10.4486 7.46994 10.3921C7.60644 10.3355 7.75275 10.3065 7.9005 10.3065H17.592V8.20553H6.6772C5.57315 8.20553 4.67428 9.10427 4.67428 10.2079V67.7476C4.67428 68.8516 5.57329 69.7501 6.6772 69.7501H54.8355C55.9388 69.7502 56.8379 68.8516 56.8379 67.7477ZM42.7962 14.4465H18.7172C18.0957 14.4465 17.5921 13.9416 17.5921 13.3215V12.5565H9.02578V65.3991H52.4869V46.4696L46.8982 49.6969C46.7271 49.7957 46.5331 49.8477 46.3356 49.8476C46.1383 49.8473 45.9446 49.7954 45.7736 49.6969C45.6026 49.5981 45.4606 49.4561 45.3619 49.2851C45.2631 49.114 45.2111 48.92 45.211 48.7226V41.4423C45.2107 41.2446 45.2631 41.0505 45.3629 40.8799L52.4869 28.5386V12.5565H43.9213V13.3215C43.9213 13.9418 43.4165 14.4465 42.7962 14.4465ZM19.8418 6.31554H25.5879C25.8405 6.31562 26.0857 6.23078 26.2843 6.07463C26.4828 5.91849 26.6231 5.70012 26.6825 5.45463C27.1376 3.56772 28.8128 2.25007 30.756 2.25007C32.6992 2.25007 34.3757 3.56772 34.8302 5.45449C34.8894 5.69998 35.0295 5.9184 35.2279 6.07458C35.4263 6.23075 35.6716 6.31558 35.9241 6.31539H41.6714V12.1965H19.8418V6.31554ZM54.8355 8.20553H43.9213V10.3065H53.6122C53.7599 10.3065 53.9062 10.3356 54.0426 10.3922C54.1791 10.4487 54.3031 10.5316 54.4075 10.636C54.5119 10.7405 54.5948 10.8645 54.6513 11.001C54.7078 11.1375 54.7368 11.2838 54.7368 11.4315V24.6404L56.8379 21.004V10.208C56.8379 9.10427 55.9388 8.20553 54.8355 8.20553ZM47.4607 43.3899L50.3912 45.0816L47.4607 46.7735V43.3899ZM62.7225 15.3141L47.8727 41.0302L49.0769 41.7251L64.8389 14.4199C64.0362 14.2158 63.1537 14.559 62.7225 15.3141ZM67.506 13.2735L66.4511 12.6677C64.4675 11.5202 61.9185 12.2035 60.7714 14.1891L59.0876 17.1057V10.208C59.0876 7.86396 57.1808 5.95553 54.8356 5.95553H43.9214V5.19054C43.9214 4.56897 43.4166 4.06539 42.7963 4.06539H36.7458C35.7877 1.63329 33.4379 0.000488281 30.7563 0.000488281C28.0747 0.000488281 25.7261 1.63314 24.7668 4.06539H18.7172C18.5695 4.06538 18.4232 4.09447 18.2866 4.151C18.1501 4.20754 18.0261 4.29042 17.9216 4.3949C17.8171 4.49938 17.7342 4.62342 17.6777 4.75994C17.6212 4.89646 17.5921 5.04277 17.5921 5.19054V5.95568H6.6772C4.33256 5.95568 2.42456 7.8641 2.42456 10.2082V67.7478C2.42456 70.0935 4.33256 72.0004 6.6772 72.0004H54.8355C57.1807 72.0004 59.0874 70.0935 59.0874 67.7478V36.1663L69.0251 18.9552C70.1729 16.9694 69.4896 14.4212 67.506 13.2735ZM32.1625 5.48304C32.1625 4.70819 31.5308 4.07721 30.756 4.07721C29.9812 4.07721 29.3495 4.70819 29.3495 5.48304C29.3495 6.25802 29.9812 6.88929 30.756 6.88929C31.5308 6.88929 32.1625 6.25802 32.1625 5.48304ZM22.8093 58.1879C22.8093 58.5535 22.5002 58.8629 22.134 58.8629H16.6765C16.3109 58.8629 16.0018 58.5535 16.0018 58.1879V52.7302C16.0018 52.3646 16.311 52.0551 16.6765 52.0551H22.134C22.5002 52.0551 22.8093 52.3646 22.8093 52.7302V53.7498L21.1342 55.2699L19.2433 53.3784C19.0313 53.1728 18.7469 53.0588 18.4515 53.061C18.1562 53.0631 17.8735 53.1814 17.6646 53.3901C17.4556 53.5988 17.337 53.8813 17.3345 54.1767C17.332 54.472 17.4457 54.7565 17.651 54.9688L20.3021 57.6182C20.406 57.7231 20.5297 57.8063 20.666 57.863C20.8023 57.9198 20.9485 57.9489 21.0962 57.9488C21.3762 57.9491 21.6462 57.8447 21.8532 57.6562L22.8091 56.7885V58.1879H22.8093ZM26.776 50.1499C27.2364 49.7321 27.9477 49.7674 28.3657 50.2271C28.783 50.6868 28.7479 51.3985 28.288 51.8163L25.059 54.7455V58.1879C25.059 59.8008 23.7474 61.1129 22.1339 61.1129H16.6763C15.0635 61.1129 13.7512 59.8008 13.7512 58.1879V52.7302C13.7512 51.1173 15.0635 49.8051 16.6763 49.8051H22.1339C23.4348 49.8051 24.5388 50.6587 24.9184 51.8358L26.776 50.1499ZM22.8093 42.8824C22.8093 43.2479 22.5002 43.5573 22.134 43.5573H16.6765C16.3109 43.5573 16.0018 43.2479 16.0018 42.8824V37.4246C16.0018 37.0576 16.311 36.7482 16.6765 36.7482H22.134C22.5002 36.7482 22.8093 37.0576 22.8093 37.4246V38.4441L21.1342 39.9643L19.2433 38.0715C19.0319 37.8608 18.7456 37.7424 18.4472 37.7424C18.1487 37.7424 17.8624 37.8608 17.651 38.0715C17.4403 38.2828 17.322 38.5691 17.322 38.8675C17.322 39.1659 17.4403 39.4521 17.651 39.6635L20.3021 42.3127C20.4061 42.4173 20.5299 42.5003 20.6662 42.5568C20.8025 42.6133 20.9486 42.6422 21.0962 42.6419C21.3676 42.6419 21.6376 42.5448 21.8532 42.3507L22.8091 41.4816V42.8824H22.8093ZM26.776 34.8441C26.8854 34.7447 27.0134 34.6679 27.1525 34.618C27.2916 34.5681 27.4393 34.5461 27.5869 34.5533C27.7346 34.5605 27.8793 34.5967 28.013 34.6599C28.1466 34.7231 28.2664 34.812 28.3657 34.9216C28.783 35.3815 28.7479 36.093 28.288 36.5105L25.059 39.4398V42.8824C25.059 44.4952 23.7474 45.8073 22.1339 45.8073H16.6763C15.0635 45.8073 13.7512 44.4952 13.7512 42.8824V37.4246C13.7512 35.8116 15.0635 34.4982 16.6763 34.4982H22.1339C23.4348 34.4982 24.5388 35.3532 24.9184 36.5302L26.776 34.8441ZM22.8093 22.1191V23.137L21.1342 24.6571L19.2433 22.7658C19.0319 22.5551 18.7456 22.4368 18.4472 22.4368C18.1487 22.4368 17.8624 22.5551 17.651 22.7658C17.4404 22.9771 17.3221 23.2633 17.3221 23.5617C17.3221 23.8601 17.4404 24.1463 17.651 24.3576L20.3021 27.007C20.4061 27.1116 20.5298 27.1946 20.6661 27.2511C20.8025 27.3076 20.9486 27.3365 21.0962 27.3362C21.3676 27.3362 21.6376 27.2393 21.8532 27.0438L22.8091 26.1759V27.5754C22.8091 27.9423 22.5 28.2516 22.1339 28.2516H16.6763C16.3107 28.2516 16.0016 27.9423 16.0016 27.5754V22.1191C16.0016 21.7518 16.3109 21.4427 16.6763 21.4427H22.1339C22.5002 21.4427 22.8093 21.7518 22.8093 22.1191ZM13.7513 22.1191C13.7513 20.5045 15.0637 19.1927 16.6765 19.1927H22.134C23.4349 19.1927 24.539 20.0477 24.9185 21.2232L26.7762 19.5386C27.2366 19.1208 27.9479 19.1546 28.3658 19.6146C28.7832 20.0756 28.748 20.7873 28.2882 21.2035L25.0591 24.1343V27.5754C25.0591 29.1883 23.7475 30.5018 22.134 30.5018H16.6765C15.0637 30.5018 13.7513 29.1883 13.7513 27.5754V22.1191Z" fill="#090909"/>
</g>
<defs>
<clipPath id="clip0_44_182">
<rect width="72" height="72" fill="white"/>
</clipPath>
</defs>
</svg>
