<svg width="72" height="72" viewBox="0 0 72 72" fill="none" xmlns="http://www.w3.org/2000/svg">
<path d="M67.5 16.875V30.375C67.5 30.9717 67.2629 31.544 66.841 31.966C66.419 32.3879 65.8467 32.625 65.25 32.625H57.375L56.25 40.5L51.75 32.625H45C44.4033 32.625 43.831 32.3879 43.409 31.966C42.9871 31.544 42.75 30.9717 42.75 30.375V16.875C42.75 16.2783 42.9871 15.706 43.409 15.284C43.831 14.8621 44.4033 14.625 45 14.625H65.25C65.8467 14.625 66.419 14.8621 66.841 15.284C67.2629 15.706 67.5 16.2783 67.5 16.875Z" fill="#0089ED"/>
<path d="M58.5 56.25C61.6066 56.25 64.125 53.7316 64.125 50.625C64.125 47.5184 61.6066 45 58.5 45C55.3934 45 52.875 47.5184 52.875 50.625C52.875 53.7316 55.3934 56.25 58.5 56.25Z" fill="#0089ED"/>
<path d="M65.25 56.25H52.6166C52.0441 56.25 51.4769 56.3592 50.9454 56.5718L46.125 58.5L37.125 52.875L34.875 56.25L46.125 64.125L51.75 61.875V70.875H69.75V60.75C69.75 59.5565 69.2759 58.4119 68.432 57.568C67.5881 56.7241 66.4435 56.25 65.25 56.25Z" fill="#0089ED"/>
<path d="M14.625 56.25C17.7316 56.25 20.25 53.7316 20.25 50.625C20.25 47.5184 17.7316 45 14.625 45C11.5184 45 9 47.5184 9 50.625C9 53.7316 11.5184 56.25 14.625 56.25Z" fill="white"/>
<path d="M21.375 56.25H7.875C6.68153 56.25 5.53693 56.7241 4.69302 57.568C3.84911 58.4119 3.375 59.5565 3.375 60.75V70.875H25.875V60.75C25.875 59.5565 25.4009 58.4119 24.557 57.568C23.7131 56.7241 22.5685 56.25 21.375 56.25Z" fill="white"/>
<path d="M14.625 27C21.4595 27 27 21.4595 27 14.625C27 7.79048 21.4595 2.25 14.625 2.25C7.79048 2.25 2.25 7.79048 2.25 14.625C2.25 21.4595 7.79048 27 14.625 27Z" fill="white"/>
<path d="M65.25 55.1252H63.517C64.39 54.1553 64.9631 52.9533 65.1671 51.6645C65.371 50.3757 65.1971 49.0554 64.6663 47.8634C64.1354 46.6714 63.2705 45.6588 62.1761 44.9482C61.0818 44.2376 59.8049 43.8594 58.5 43.8594C57.1952 43.8594 55.9183 44.2376 54.824 44.9482C53.7296 45.6588 52.8647 46.6714 52.3338 47.8634C51.803 49.0554 51.6291 50.3757 51.833 51.6645C52.037 52.9533 52.6101 54.1553 53.4831 55.1252H52.6168C51.9014 55.1245 51.1924 55.261 50.5283 55.5273L46.2371 57.2439L37.7216 51.921C37.4734 51.7657 37.1745 51.7133 36.8883 51.7749C36.6021 51.8366 36.3512 52.0074 36.189 52.2512L33.939 55.6262C33.7759 55.8707 33.715 56.1695 33.7694 56.4584C33.8239 56.7473 33.9892 57.0034 34.2302 57.1719L45.4802 65.0469C45.633 65.1542 45.8102 65.2217 45.9957 65.2432C46.1812 65.2647 46.3692 65.2395 46.5425 65.1699L50.625 63.5369V70.8752H52.875V61.8752C52.875 61.6914 52.83 61.5104 52.7438 61.348C52.6577 61.1856 52.5331 61.0468 52.3809 60.9437C52.2287 60.8406 52.0536 60.7764 51.8708 60.7566C51.6881 60.7369 51.5033 60.7622 51.3326 60.8304L46.2723 62.8546L36.4208 55.959L37.4546 54.4083L45.5285 59.4543C45.6784 59.5483 45.8484 59.6055 46.0246 59.6212C46.2008 59.637 46.3783 59.6109 46.5425 59.545L51.3644 57.6163C51.7626 57.4566 52.1878 57.3747 52.6169 57.3752H65.25C66.1449 57.3762 67.0027 57.7321 67.6355 58.3648C68.2682 58.9975 68.6241 59.8554 68.625 60.7502V70.8752H70.875V60.7502C70.8733 59.2589 70.2801 57.8292 69.2256 56.7746C68.1711 55.7201 66.7414 55.1269 65.25 55.1252ZM58.5 55.1252C57.61 55.1252 56.74 54.8613 56 54.3668C55.26 53.8723 54.6832 53.1695 54.3426 52.3473C54.002 51.525 53.9129 50.6202 54.0865 49.7473C54.2601 48.8744 54.6887 48.0725 55.3181 47.4432C55.9474 46.8139 56.7492 46.3853 57.6221 46.2116C58.4951 46.038 59.3999 46.1271 60.2221 46.4677C61.0444 46.8083 61.7472 47.3851 62.2417 48.1251C62.7361 48.8651 63 49.7352 63 50.6252C62.9988 51.8183 62.5243 52.9621 61.6806 53.8058C60.837 54.6494 59.6931 55.1239 58.5 55.1252Z" fill="#090909"/>
<path d="M66.375 60.75H64.125V70.875H66.375V60.75Z" fill="#090909"/>
<path d="M27 70.8752V60.7502C26.9982 59.2589 26.4051 57.8292 25.3505 56.7746C24.296 55.7201 22.8663 55.1269 21.375 55.1252H19.642C20.5149 54.1553 21.0881 52.9533 21.292 51.6645C21.496 50.3757 21.322 49.0554 20.7912 47.8634C20.2604 46.6714 19.3954 45.6588 18.3011 44.9482C17.2067 44.2376 15.9298 43.8594 14.625 43.8594C13.3202 43.8594 12.0433 44.2376 10.9489 44.9482C9.85456 45.6588 8.98962 46.6714 8.45879 47.8634C7.92797 49.0554 7.75401 50.3757 7.95797 51.6645C8.16194 52.9533 8.73508 54.1553 9.60803 55.1252H7.875C6.38369 55.1269 4.95397 55.7201 3.89946 56.7746C2.84495 57.8292 2.25175 59.2589 2.25 60.7502V70.8752H4.5V60.7502C4.50098 59.8554 4.85687 58.9975 5.48959 58.3648C6.12232 57.7321 6.98019 57.3762 7.875 57.3752H21.375C22.2698 57.3762 23.1277 57.7321 23.7604 58.3648C24.3931 58.9975 24.749 59.8554 24.75 60.7502V70.8752H27ZM14.625 55.1252C13.735 55.1252 12.865 54.8613 12.1249 54.3668C11.3849 53.8723 10.8081 53.1695 10.4675 52.3473C10.1269 51.525 10.0378 50.6202 10.2115 49.7473C10.3851 48.8744 10.8137 48.0725 11.443 47.4432C12.0724 46.8139 12.8742 46.3853 13.7471 46.2116C14.62 46.038 15.5248 46.1271 16.3471 46.4677C17.1693 46.8083 17.8721 47.3851 18.3666 48.1251C18.8611 48.8651 19.125 49.7352 19.125 50.6252C19.1237 51.8183 18.6492 52.9621 17.8056 53.8058C16.9619 54.6494 15.8181 55.1239 14.625 55.1252Z" fill="#090909"/>
<path d="M9 60.75H6.75V70.875H9V60.75Z" fill="#090909"/>
<path d="M22.5 60.75H20.25V70.875H22.5V60.75Z" fill="#090909"/>
<path d="M45 33.75H51.0974L55.2733 41.0581C55.3717 41.2303 55.5139 41.3734 55.6854 41.4729C55.8569 41.5725 56.0517 41.6249 56.25 41.625C56.3208 41.6249 56.3914 41.6183 56.4609 41.6052C56.6912 41.5613 56.9021 41.4465 57.064 41.2769C57.2259 41.1074 57.3308 40.8914 57.364 40.6593L58.3506 33.75H65.25C66.1448 33.749 67.0027 33.3931 67.6354 32.7604C68.2681 32.1277 68.624 31.2698 68.625 30.375V16.875C68.624 15.9802 68.2681 15.1223 67.6354 14.4896C67.0027 13.8569 66.1448 13.501 65.25 13.5H45C44.1052 13.501 43.2473 13.8569 42.6146 14.4896C41.9819 15.1223 41.626 15.9802 41.625 16.875V30.375C41.626 31.2698 41.9819 32.1277 42.6146 32.7604C43.2473 33.3931 44.1052 33.749 45 33.75ZM43.875 16.875C43.8753 16.5767 43.9939 16.2907 44.2048 16.0798C44.4157 15.8689 44.7017 15.7503 45 15.75H65.25C65.5483 15.7503 65.8343 15.8689 66.0452 16.0798C66.2561 16.2907 66.3747 16.5767 66.375 16.875V30.375C66.3747 30.6733 66.2561 30.9593 66.0452 31.1702C65.8343 31.3811 65.5483 31.4997 65.25 31.5H57.375C57.1042 31.4999 56.8424 31.5975 56.6377 31.7749C56.433 31.9523 56.2993 32.1976 56.261 32.4657L55.5996 37.0948L52.7267 32.0669C52.6283 31.8947 52.4861 31.7516 52.3146 31.6521C52.1431 31.5525 51.9483 31.5 51.75 31.5H45C44.7017 31.4997 44.4157 31.3811 44.2048 31.1702C43.9939 30.9593 43.8753 30.6733 43.875 30.375V16.875Z" fill="#090909"/>
<path d="M54 29.25H56.25V24.75H60.75V22.5H56.25V18H54V22.5H49.5V24.75H54V29.25Z" fill="white"/>
<path d="M14.625 28.125C17.295 28.125 19.9051 27.3332 22.1252 25.8498C24.3453 24.3664 26.0756 22.258 27.0974 19.7912C28.1192 17.3244 28.3865 14.61 27.8656 11.9913C27.3447 9.37254 26.059 6.96707 24.1709 5.07906C22.2829 3.19106 19.8775 1.90531 17.2587 1.3844C14.64 0.863504 11.9256 1.13085 9.45877 2.15263C6.99197 3.17442 4.88356 4.90474 3.40016 7.12481C1.91676 9.34487 1.125 11.955 1.125 14.625C1.129 18.2042 2.5526 21.6357 5.08348 24.1665C7.61435 26.6974 11.0458 28.121 14.625 28.125ZM14.625 3.37501C16.85 3.37501 19.0251 4.03481 20.8752 5.27097C22.7252 6.50714 24.1672 8.26415 25.0186 10.3198C25.8701 12.3755 26.0929 14.6375 25.6588 16.8198C25.2248 19.0021 24.1533 21.0066 22.58 22.58C21.0066 24.1533 19.0021 25.2248 16.8198 25.6588C14.6375 26.0929 12.3755 25.8701 10.3198 25.0187C8.26414 24.1672 6.50713 22.7252 5.27097 20.8752C4.0348 19.0251 3.375 16.85 3.375 14.625C3.37841 11.6424 4.56477 8.78287 6.67382 6.67382C8.78286 4.56478 11.6424 3.37842 14.625 3.37501Z" fill="#090909"/>
<path d="M21.375 11.25C21.375 10.6287 20.8713 10.125 20.25 10.125C19.6287 10.125 19.125 10.6287 19.125 11.25C19.125 11.8713 19.6287 12.375 20.25 12.375C20.8713 12.375 21.375 11.8713 21.375 11.25Z" fill="#090909"/>
<path d="M10.125 11.25C10.125 10.6287 9.62132 10.125 9 10.125C8.37868 10.125 7.875 10.6287 7.875 11.25C7.875 11.8713 8.37868 12.375 9 12.375C9.62132 12.375 10.125 11.8713 10.125 11.25Z" fill="#090909"/>
<path d="M14.625 19.125C17.2002 19.125 19.125 20.3126 19.125 21.375H21.375C21.375 18.8514 18.4098 16.875 14.625 16.875C10.8402 16.875 7.875 18.8514 7.875 21.375H10.125C10.125 20.3126 12.0498 19.125 14.625 19.125Z" fill="#090909"/>
<path d="M15.75 30.375H13.5V32.625H15.75V30.375Z" fill="#090909"/>
<path d="M15.75 34.875H13.5V37.125H15.75V34.875Z" fill="#090909"/>
<path d="M15.75 39.375H13.5V41.625H15.75V39.375Z" fill="#090909"/>
</svg>
