<svg width="18" height="18" viewBox="0 0 18 18" fill="none" xmlns="http://www.w3.org/2000/svg">
<path fill-rule="evenodd" clip-rule="evenodd" d="M17.0977 15.1551C16.5791 16.7308 14.5474 17.517 13.0959 17.386C11.1135 17.2068 8.95633 16.1552 7.31887 14.9971C4.91198 13.2948 2.6574 10.6618 1.34363 7.86747C0.41514 5.89298 0.206818 3.46491 1.58779 1.66513C2.09851 0.999876 2.6518 0.644849 3.4806 0.60341C4.63197 0.547412 4.79325 1.20595 5.18862 2.23183C5.48318 2.999 5.8763 3.78186 6.09582 4.57703C6.50687 6.06098 5.0699 6.12257 4.88846 7.33549C4.77645 8.10042 5.7027 9.12631 6.12158 9.67173C6.92898 10.734 7.91787 11.6451 9.04257 12.363C9.68097 12.7651 10.7091 13.4897 11.4394 13.0898C12.5639 12.4739 12.4586 10.5778 14.03 11.2195C14.8442 11.551 15.6327 12.0292 16.41 12.4481C17.6118 13.0943 17.5558 13.7641 17.0977 15.1551C17.4404 14.1157 16.7549 16.1944 17.0977 15.1551Z" fill="#FE4438"/>
</svg>
