<svg width="73" height="72" viewBox="0 0 73 72" fill="none" xmlns="http://www.w3.org/2000/svg">
<g clip-path="url(#clip0_164_910)">
<path d="M14.7483 48.3247C12.465 50.6268 10.3126 52.7791 8.01058 55.0812C8.01058 54.6694 8.01058 54.4448 8.01058 54.2015C8.01058 49.6723 8.01058 45.1243 7.99186 40.5951C7.99186 40.2769 7.82342 39.8652 7.59883 39.6406C3.89308 36.0284 2.56425 31.705 4.11767 26.7828C5.67109 21.8605 9.18968 19.0344 14.3178 18.2296C14.3927 18.2109 14.4488 18.2109 14.5237 18.1922C14.5611 18.1735 14.5986 18.1547 14.6921 18.1173C14.6921 17.0318 14.6921 15.9275 14.6921 14.7672C11.735 14.7672 8.79664 14.7672 5.82082 14.7672C5.8021 14.5426 5.76467 14.3741 5.76467 14.187C5.76467 12.5025 5.74595 10.8181 5.76467 9.13368C5.8021 5.98942 8.23517 3.51892 11.3982 3.51892C26.3521 3.5002 41.2874 3.5002 56.2414 3.51892C59.5167 3.51892 61.9123 6.00813 61.9123 9.37699C61.9123 23.1144 61.9123 36.8332 61.9123 50.5706C61.9123 52.8166 61.9123 55.0625 61.9123 57.3832C63.3909 57.3832 64.8507 57.3832 66.4041 57.3832C66.4041 57.9073 66.4041 58.3752 66.4041 58.8431C66.4041 60.1906 66.4041 61.5569 66.4041 62.9044C66.3854 66.1984 63.9524 68.6315 60.6771 68.6315C56.9526 68.6502 53.2469 68.6315 49.5224 68.6315C39.9773 68.6315 30.4322 68.6315 20.8871 68.6315C17.0503 68.6315 14.7483 66.3107 14.7483 62.4552C14.7483 58.057 14.7483 53.6588 14.7483 49.2605C14.7483 49.0359 14.7483 48.7739 14.7483 48.3247ZM59.6477 57.4019C59.6477 57.1399 59.6477 56.9715 59.6477 56.8217C59.6477 40.9881 59.6477 25.1545 59.6477 9.32084C59.6477 7.16852 58.2253 5.76483 56.073 5.76483C42.8783 5.76483 29.6836 5.76483 16.4889 5.76483C16.3204 5.76483 16.152 5.78354 15.8712 5.80226C16.9006 7.20595 17.0129 8.72193 16.9755 10.2941C16.9381 12.6523 16.9568 15.0105 16.9568 17.3874C16.9568 17.6307 16.9568 17.8927 16.9568 18.0986C17.0691 18.1547 17.1065 18.1922 17.1626 18.2109C17.2562 18.2296 17.3498 18.2483 17.4434 18.267C22.5341 19.0718 26.034 21.8979 27.5874 26.7828C29.1408 31.6863 27.8494 36.0097 24.1624 39.5844C23.8255 39.9026 23.6945 40.2208 23.6945 40.6699C23.7132 45.1805 23.6945 49.691 23.6945 54.2202C23.6945 54.4635 23.6945 54.7069 23.6945 54.9502C23.6383 54.9689 23.5822 54.9876 23.5073 55.0063C21.355 52.854 19.2027 50.6829 16.9755 48.4557C16.9568 48.6242 16.9381 48.6991 16.9381 48.7926C16.9381 53.5839 16.9193 58.3752 16.9568 63.1851C16.9755 65.0006 18.5102 66.4417 20.3256 66.4417C22.1411 66.4417 23.6196 64.9819 23.6758 63.1477C23.6945 62.1745 23.6758 61.1825 23.6758 60.2093C23.6758 59.311 23.6758 58.4126 23.6758 57.4581C35.7288 57.4019 47.6508 57.4019 59.6477 57.4019ZM25.1543 66.4043C25.2853 66.4043 25.5474 66.4043 25.7907 66.4043C35.6165 66.4043 45.4423 66.4043 55.2682 66.4043C57.0836 66.4043 58.9178 66.423 60.7332 66.4043C62.2679 66.3856 63.6716 65.4872 63.9336 64.0648C64.1957 62.6424 64.1208 61.1638 64.1957 59.7227C51.3566 59.7227 38.6859 59.7227 25.9404 59.7227C25.9404 60.8831 26.0527 62.0061 25.903 63.1103C25.8094 64.1958 25.4351 65.2626 25.1543 66.4043ZM5.76467 30.4511C5.74595 35.9535 10.2565 40.5389 15.759 40.5764C21.3737 40.6138 25.9591 36.122 25.9778 30.5446C25.9965 24.9299 21.5234 20.3819 15.9274 20.3632C10.3313 20.3258 5.78339 24.855 5.76467 30.4511ZM10.2752 49.4664C10.3313 49.5038 10.4062 49.5413 10.4624 49.5787C12.2778 47.7633 14.0932 45.9478 15.9648 44.0575C17.7616 45.8542 19.577 47.6697 21.4299 49.5226C21.4299 46.8462 21.4299 44.226 21.4299 41.587C16.5825 43.2715 15.16 43.2902 10.2752 41.587C10.2752 44.2072 10.2752 46.8275 10.2752 49.4664ZM14.7296 12.4651C14.7296 11.3047 14.7483 10.1818 14.7296 9.07754C14.6921 7.31824 13.3446 5.89584 11.6415 5.76483C9.88217 5.63381 8.25388 6.85035 8.06672 8.60964C7.93571 9.8636 8.04801 11.155 8.04801 12.4651C10.2565 12.4651 12.4462 12.4651 14.7296 12.4651Z" fill="#FFB715"/>
<path d="M51.8245 18.0985C49.3353 18.0985 47.314 16.0959 47.314 13.6067C47.314 11.1175 49.3353 9.09616 51.8245 9.11488C54.295 9.11488 56.3163 11.1549 56.2976 13.6441C56.2789 16.0959 54.2576 18.0985 51.8245 18.0985ZM54.033 13.6254C54.033 12.3902 53.041 11.3982 51.8245 11.3795C50.5705 11.3608 49.5412 12.3902 49.5599 13.6441C49.5786 14.8607 50.5892 15.8713 51.8058 15.8713C53.0223 15.8526 54.033 14.8419 54.033 13.6254Z" fill="black"/>
<path d="M38.2928 10.2939C38.2928 11.0426 38.2928 11.7164 38.2928 12.4463C33.0711 12.4463 27.9055 12.4463 22.665 12.4463C22.665 11.7538 22.665 11.0426 22.665 10.2939C27.8306 10.2939 33.0336 10.2939 38.2928 10.2939Z" fill="black"/>
<path d="M48.3992 27.1382C48.3992 27.8868 48.3992 28.5793 48.3992 29.3092C43.1775 29.3092 38.0119 29.3092 32.7715 29.3092C32.7715 28.6167 32.7715 27.9055 32.7715 27.1382C37.9371 27.1382 43.1401 27.1382 48.3992 27.1382Z" fill="black"/>
<path d="M48.3991 33.876C48.3991 34.6059 48.3991 35.2984 48.3991 36.0283C43.1774 36.0283 37.9743 36.0283 32.7339 36.0283C32.7339 35.2984 32.7339 34.6059 32.7339 33.876C37.9369 33.876 43.1399 33.876 48.3991 33.876Z" fill="black"/>
<path d="M48.3807 42.7847C43.159 42.7847 37.9747 42.7847 32.7529 42.7847C32.7529 42.0734 32.7529 41.381 32.7529 40.6323C37.9372 40.6323 43.1402 40.6323 48.3807 40.6323C48.3807 41.3061 48.3807 42.0173 48.3807 42.7847Z" fill="black"/>
<path d="M55.1369 50.7202C55.1369 51.4501 55.1369 52.1426 55.1369 52.8725C49.9151 52.8725 44.7121 52.8725 39.4717 52.8725C39.4717 52.1426 39.4717 51.4501 39.4717 50.7202C44.6747 50.7202 49.8777 50.7202 55.1369 50.7202Z" fill="black"/>
<path d="M32.7339 22.5527C32.7339 21.8228 32.7339 21.1303 32.7339 20.4004C35.3354 20.4004 37.9182 20.4004 40.5384 20.4004C40.5384 21.1116 40.5384 21.8041 40.5384 22.5527C37.9556 22.5527 35.3915 22.5527 32.7339 22.5527Z" fill="black"/>
<path d="M15.8896 23.732C19.5953 23.7507 22.6086 26.7827 22.5899 30.5072C22.5712 34.2129 19.5205 37.2449 15.8334 37.2075C12.0903 37.1887 9.09573 34.1193 9.13316 30.3762C9.15188 26.7078 12.2026 23.7133 15.8896 23.732ZM15.8334 25.9779C13.3629 25.9966 11.3416 28.018 11.3603 30.5072C11.3791 32.9589 13.3817 34.9615 15.8334 34.9615C18.3227 34.9615 20.344 32.959 20.344 30.4697C20.344 27.9805 18.3227 25.9592 15.8334 25.9779Z" fill="#FE4438"/>
</g>
<defs>
<clipPath id="clip0_164_910">
<rect width="72.0187" height="72" fill="white"/>
</clipPath>
</defs>
</svg>
