<svg width="72" height="72" viewBox="0 0 72 72" fill="none" xmlns="http://www.w3.org/2000/svg">
<path d="M35.7878 17.4708C24.0348 17.4708 14.3996 27.1061 14.7172 38.9649C15.0348 50.0825 24.2466 59.2943 35.7878 59.2943C47.329 59.2943 57.0701 49.8708 56.8584 38.0119C56.9643 27.6355 47.9643 17.4708 35.7878 17.4708ZM45.8466 37.2708C45.8466 35.1531 45.6348 33.2472 45.3172 31.3414C50.5054 32.5061 54.1054 34.7296 54.6348 37.2708H45.8466ZM43.729 37.2708H36.8466V30.3884C39.0701 30.3884 41.1878 30.6002 43.0937 30.9178C43.5172 32.8237 43.729 35.0472 43.729 37.2708ZM36.8466 28.3766V19.8002C39.0701 20.5414 41.2937 23.8237 42.5643 28.6943C40.8701 28.4825 38.8584 28.3766 36.8466 28.3766ZM34.729 19.8002V28.3766C32.7172 28.4825 30.7054 28.6943 28.9054 29.0119C30.176 23.9296 32.5054 20.6472 34.729 19.8002ZM34.729 30.4943V37.2708H27.8466C27.8466 35.1531 28.0584 33.1414 28.376 31.2355C30.4937 30.9178 32.6113 30.6002 34.729 30.4943ZM25.729 37.2708H17.2584C18.6348 34.4119 23.1878 32.6119 26.2584 31.7649C25.9407 33.5649 25.8348 35.3649 25.729 37.2708ZM25.729 39.3884C25.729 41.5061 25.9407 43.4119 26.2584 45.3178C21.0701 44.1531 17.4701 41.9296 16.9407 39.3884H25.729ZM27.8466 39.3884H34.729V46.1649C32.5054 46.1649 30.3878 45.9531 28.4819 45.7414C28.1643 43.8355 27.9525 41.7178 27.8466 39.3884ZM34.729 48.3884V56.9649C32.5054 56.2237 30.2819 52.9414 29.0113 48.0708C30.8113 48.1767 32.7172 48.3884 34.729 48.3884ZM36.8466 56.9649V48.3884C38.8584 48.2825 40.8701 48.0708 42.6701 47.7531C41.5054 52.7296 39.176 56.1178 36.8466 56.9649ZM36.8466 46.1649V39.3884H43.729C43.729 41.5061 43.5172 43.5178 43.1996 45.4237C41.1878 45.8472 39.0701 46.059 36.8466 46.1649ZM45.8466 39.3884H54.3172C52.9407 42.2472 48.3878 44.0472 45.3172 44.8943C45.7407 43.2002 45.8466 41.2943 45.8466 39.3884ZM53.9996 32.8237C51.8819 31.1296 48.7054 29.859 44.9996 29.1178C44.1525 25.4119 42.776 22.3414 41.0819 20.3296C47.1172 22.0237 52.0937 26.7884 53.9996 32.8237ZM30.7054 20.3296C28.9054 22.4472 27.529 25.6237 26.6819 29.5414C23.5054 30.2825 20.0113 31.659 17.4701 33.7766C19.1643 27.3178 24.2466 22.1296 30.7054 20.3296ZM17.6819 43.9414C19.7996 45.6355 22.976 46.9061 26.6819 47.6472C27.529 51.3531 28.9054 54.4237 30.5996 56.4355C24.5643 54.6355 19.5878 49.9767 17.6819 43.9414ZM40.976 56.4355C42.776 54.3178 44.1525 51.1414 44.9996 47.2237C48.176 46.4825 51.6701 45.1061 54.2113 42.9884C52.5172 49.4472 47.4348 54.6355 40.976 56.4355ZM20.9643 13.4472H50.5054C51.1407 13.4472 51.5643 13.0237 51.5643 12.3884C51.5643 11.7531 51.1407 11.3296 50.5054 11.3296H20.9643C20.329 11.3296 19.9054 11.7531 19.9054 12.3884C19.9054 13.0237 20.4348 13.4472 20.9643 13.4472ZM50.5054 63.4237H20.9643C20.329 63.4237 19.9054 63.8472 19.9054 64.4825C19.9054 65.1178 20.329 65.5414 20.9643 65.5414H50.5054C51.1407 65.5414 51.5643 65.1178 51.5643 64.4825C51.5643 63.8472 51.1407 63.4237 50.5054 63.4237ZM63.9525 43.6237V26.7884C63.9525 26.1531 63.529 25.7296 62.8937 25.7296C62.2584 25.7296 61.8349 26.1531 61.8349 26.7884V43.6237C61.8349 44.259 62.2584 44.6825 62.8937 44.6825C63.529 44.6825 63.9525 44.1531 63.9525 43.6237ZM10.4819 44.1531V27.3178C10.4819 26.6825 10.0584 26.259 9.42308 26.259C8.78779 26.259 8.36426 26.6825 8.36426 27.3178V44.1531C8.36426 44.7884 8.78779 45.2119 9.42308 45.2119C10.0584 45.2119 10.4819 44.7884 10.4819 44.1531Z" fill="#010101"/>
<path d="M14.7174 6.45859C14.7174 9.4233 12.1762 11.8586 9.21154 11.8586C6.24683 11.8586 3.81153 9.4233 3.81153 6.45859C3.81153 3.49389 6.24683 1.05859 9.21154 1.05859C12.1762 1.05859 14.7174 3.49389 14.7174 6.45859Z" fill="#FFB715"/>
<path d="M16.3057 23.6115H2.11742C1.48212 23.6115 1.05859 23.188 1.05859 22.5527V17.1527C1.05859 14.5057 3.17624 12.388 5.8233 12.388H12.5998C15.2468 12.388 17.3645 14.5057 17.3645 17.1527V22.5527C17.3645 23.188 16.9409 23.6115 16.3057 23.6115Z" fill="#FFB715"/>
<path d="M68.2939 6.45859C68.2939 9.4233 65.7527 11.8586 62.788 11.8586C59.8233 11.8586 57.2821 9.4233 57.2821 6.45859C57.2821 3.49389 59.8233 1.05859 62.788 1.05859C65.7527 1.05859 68.2939 3.49389 68.2939 6.45859Z" fill="#FFB715"/>
<path d="M59.3998 12.388H66.1762C68.8233 12.388 70.9409 14.5057 70.9409 17.1527V22.5527C70.9409 23.188 70.5174 23.6115 69.8821 23.6115H55.6939C55.0586 23.6115 54.6351 23.188 54.6351 22.5527V17.1527C54.6351 14.5057 56.7527 12.388 59.3998 12.388Z" fill="#FFB715"/>
<path d="M9.31742 59.188C6.24683 59.188 3.81153 56.7527 3.81153 53.788C3.81153 50.8233 6.24683 48.388 9.31742 48.388C12.388 48.388 14.8233 50.8233 14.8233 53.788C14.8233 56.7527 12.388 59.188 9.31742 59.188Z" fill="#FFB715"/>
<path d="M5.8233 59.7174H12.5998C15.2468 59.7174 17.3645 61.8351 17.3645 64.4821V69.8821C17.3645 70.5174 16.9409 70.9409 16.3057 70.9409H2.11742C1.48212 70.9409 1.05859 70.5174 1.05859 69.8821V64.4821C1.05859 61.8351 3.17624 59.7174 5.8233 59.7174Z" fill="#FFB715"/>
<path d="M62.788 59.188C59.7174 59.188 57.2821 56.7527 57.2821 53.788C57.2821 50.8233 59.7174 48.388 62.788 48.388C65.8586 48.388 68.2939 50.8233 68.2939 53.788C68.2939 56.7527 65.8586 59.188 62.788 59.188Z" fill="#FFB715"/>
<path d="M59.3998 59.7174H66.1762C68.8233 59.7174 70.9409 61.8351 70.9409 64.4821V69.8821C70.9409 70.5174 70.5174 70.9409 69.8821 70.9409H55.6939C55.0586 70.9409 54.6351 70.5174 54.6351 69.8821V64.4821C54.6351 61.8351 56.7527 59.7174 59.3998 59.7174Z" fill="#FFB715"/>
</svg>
