<svg width="36" height="37" viewBox="0 0 36 37" fill="none" xmlns="http://www.w3.org/2000/svg">
<path d="M18.195 3.49707C18.9556 4.11248 19.7163 4.72788 20.4762 5.34407C20.5801 5.42841 20.6792 5.519 20.8183 5.63927C18.9025 5.63927 17.0337 5.63927 15.0586 5.63927C15.9879 4.89266 16.8579 4.19448 17.7272 3.49707C17.8834 3.49707 18.0388 3.49707 18.195 3.49707Z" fill="#3BB64B"/>
<path d="M17.9912 7.41406C20.7472 7.41406 23.504 7.41406 26.2601 7.41406C26.984 7.41406 27.3128 7.74207 27.3136 8.46369C27.3136 11.7852 27.3121 15.1066 27.3183 18.4273C27.3191 18.6343 27.255 18.7616 27.0926 18.8873C25.1745 20.3704 23.2643 21.8628 21.3454 23.3443C21.2345 23.4302 21.0666 23.4825 20.9245 23.4833C18.9471 23.4919 16.9704 23.4919 14.993 23.4833C14.8517 23.4825 14.6845 23.4271 14.5729 23.3412C12.654 21.8597 10.743 20.3672 8.82492 18.885C8.6617 18.7584 8.60156 18.6304 8.60156 18.4242C8.60859 15.1027 8.60625 11.7812 8.60625 8.46056C8.60625 7.73973 8.93504 7.41484 9.6629 7.41484C12.4393 7.41406 15.2156 7.41406 17.9912 7.41406ZM19.0322 12.5232C18.9619 12.5005 18.9252 12.4912 18.8901 12.4771C17.7178 12.003 16.4995 12.2467 15.6076 13.1355C14.141 14.5966 14.1988 17.3558 15.7318 18.7522C16.4003 19.3606 17.186 19.6823 18.0896 19.5043C18.5527 19.4129 18.9893 19.1848 19.4742 19.0044C19.8905 19.5457 20.4872 19.8698 21.265 19.8221C22.2795 19.7589 23.0573 19.277 23.5579 18.4187C24.2132 17.2957 24.4974 16.0602 24.2975 14.7669C23.8469 11.8539 21.3283 9.61874 18.3801 9.46723C14.0301 9.24388 10.7328 13.2276 11.7645 17.4589C12.4299 20.1876 14.9462 22.2423 17.7163 22.3181C18.2864 22.3337 18.6925 21.9971 18.7198 21.4856C18.7471 20.978 18.3645 20.5992 17.8006 20.5633C17.5874 20.55 17.3726 20.5305 17.1626 20.4922C14.5916 20.0166 12.8946 17.5042 13.4139 14.9489C13.9317 12.4021 16.4495 10.7824 19.0096 11.3236C21.2033 11.7867 23.4884 14.2335 22.2365 17.1754C22.0991 17.498 21.9234 17.7814 21.6071 17.9517C21.069 18.2407 20.7613 18.0556 20.7597 17.4472C20.7597 17.3496 20.7605 17.2527 20.7605 17.1551C20.7652 15.6939 20.7722 14.2327 20.7722 12.7715C20.7722 12.1749 20.3481 11.7836 19.7843 11.8515C19.3907 11.8976 19.1657 12.1483 19.0322 12.5232Z" fill="#FE4438"/>
<path d="M4.26562 33.404C4.7756 33.0057 5.24652 32.6363 5.71823 32.2693C8.66171 29.9802 11.6044 27.6904 14.5533 25.4077C14.6721 25.3155 14.8478 25.2522 14.9969 25.2515C16.9744 25.2413 18.951 25.2429 20.9284 25.2491C21.0541 25.2499 21.2057 25.2835 21.3017 25.3577C24.7107 27.9997 28.1149 30.6488 31.5192 33.297C31.5496 33.3205 31.5762 33.3493 31.6355 33.4032C22.5091 33.404 13.4155 33.404 4.26562 33.404Z" fill="#3BB64B"/>
<path d="M3.07031 32.1126C3.07031 26.9309 3.07031 21.8054 3.07031 16.6221C6.40271 19.2133 9.69997 21.7788 13.0285 24.367C9.70544 26.9512 6.4113 29.5136 3.07031 32.1126Z" fill="#3BB64B"/>
<path d="M32.8535 16.6221C32.8535 21.8038 32.8535 26.9285 32.8535 32.1072C29.5211 29.5151 26.223 26.9504 22.8984 24.3646C26.2222 21.7804 29.5164 19.218 32.8535 16.6221Z" fill="#3BB64B"/>
<path d="M32.0169 15.0542C31.0345 15.8188 30.0832 16.5591 29.0977 17.3253C29.0977 15.7446 29.0977 14.1975 29.0977 12.5996C30.0731 13.4204 31.0282 14.2232 32.0169 15.0542Z" fill="#3BB64B"/>
<path d="M3.91406 15.0538C4.90199 14.2229 5.85321 13.4231 6.8388 12.5938C6.8388 14.1846 6.8388 15.7262 6.8388 17.3272C5.85634 16.5634 4.8973 15.8176 3.91406 15.0538Z" fill="#3BB64B"/>
<path d="M19.023 15.6515C19.0066 16.3224 18.9012 16.8113 18.6044 17.2424C18.1312 17.9288 17.3947 17.9765 16.834 17.3611C16.2076 16.6738 16.1163 15.3712 16.6497 14.6128C16.9417 14.1989 17.3307 13.9373 17.8578 13.9927C18.3975 14.0497 18.6981 14.4152 18.8559 14.8948C18.952 15.1868 18.9902 15.4977 19.023 15.6515Z" fill="#FE4438"/>
</svg>
