<svg width="36" height="37" viewBox="0 0 36 37" fill="none" xmlns="http://www.w3.org/2000/svg">
<path d="M25.593 31.9951C24.9378 31.8809 24.2727 31.8036 23.6281 31.6451C22.0034 31.2456 20.5102 30.5259 19.0895 29.6576C16.4557 28.0484 14.1586 26.0252 12.0016 23.8357C10.4146 22.2245 8.93055 20.5255 7.64928 18.6588C6.42085 16.8694 5.38857 14.9809 4.84238 12.862C4.45734 11.3704 4.35563 9.86816 4.75322 8.3587C4.94277 7.64028 5.34564 7.06383 5.9691 6.66765C6.77683 6.15459 7.59975 5.66662 8.42663 5.18526C9.02565 4.83661 9.65506 4.97924 10.0434 5.55635C11.293 7.4138 12.5353 9.27653 13.771 11.1432C14.1666 11.7408 14.047 12.3608 13.4691 12.8178C12.8285 13.3242 12.1799 13.8214 11.5367 14.3246C10.9244 14.8033 10.83 15.3415 11.1866 16.0381C12.2288 18.0771 13.7333 19.753 15.3389 21.3496C16.4861 22.4906 17.6683 23.594 19.0354 24.4735C19.5367 24.7957 20.0591 25.0876 20.5841 25.3709C21.1416 25.6713 21.7155 25.5432 22.1131 25.042C22.621 24.4022 23.1183 23.7544 23.6195 23.1093C24.1565 22.4186 24.7469 22.3189 25.4714 22.8016C27.1965 23.9499 28.917 25.1048 30.6474 26.2445C31.0225 26.4914 31.3501 26.7608 31.5 27.1993C31.5 27.3577 31.5 27.5156 31.5 27.674C31.4346 27.8153 31.3818 27.9646 31.3025 28.0979C30.8376 28.8817 30.3746 29.6675 29.8945 30.442C29.4533 31.1539 28.8146 31.6068 27.993 31.7811C27.5829 31.8683 27.1675 31.9264 26.754 31.9971C26.367 31.9951 25.98 31.9951 25.593 31.9951Z" fill="#3BB64B"/>
<path d="M28.7034 16.6512C28.7034 16.7918 28.7074 16.9325 28.7028 17.0725C28.6929 17.3485 28.5245 17.5373 28.2781 17.5552C28.0199 17.5737 27.827 17.4304 27.79 17.1464C27.7319 16.7034 27.7214 16.2537 27.652 15.8126C27.3845 14.1077 26.6098 12.6577 25.3854 11.4513C24.322 10.404 23.0533 9.71202 21.5951 9.39309C21.1176 9.28877 20.6222 9.26698 20.1348 9.20821C20.0305 9.19566 19.9241 9.19236 19.8204 9.17519C19.5424 9.13029 19.3898 8.94805 19.4077 8.69119C19.4255 8.43829 19.6078 8.26529 19.8865 8.26661C21.4187 8.27453 22.8592 8.64629 24.1913 9.40234C25.8946 10.3697 27.1507 11.755 27.9499 13.5431C28.3911 14.531 28.6361 15.5696 28.7034 16.6512Z" fill="#FE4438"/>
<path d="M20.1163 11.0598C23.2541 11.1595 25.8536 13.81 25.9078 16.9722C25.9138 17.3287 25.7599 17.5394 25.4805 17.5559C25.184 17.5737 24.9885 17.3855 24.9772 17.0124C24.9548 16.2359 24.795 15.4944 24.4291 14.8097C23.5249 13.1166 22.1182 12.1684 20.1956 12.0047C20.0728 11.9941 19.9499 11.9882 19.8284 11.9703C19.5497 11.9287 19.3938 11.7485 19.407 11.4916C19.4202 11.2394 19.6038 11.0703 19.8792 11.0598C19.9585 11.0571 20.0378 11.0598 20.1163 11.0598Z" fill="#FE4438"/>
<path d="M20.0123 13.8538C21.6237 13.898 23.0345 15.2748 23.1104 16.88C23.1309 17.3072 22.9962 17.5297 22.7009 17.5562C22.3819 17.5845 22.2016 17.3865 22.1706 16.9513C22.1217 16.2639 21.8245 15.7099 21.2889 15.2827C20.9448 15.0087 20.5551 14.8416 20.1126 14.8053C20.0169 14.7974 19.9205 14.7829 19.826 14.7657C19.544 14.7155 19.3921 14.5399 19.4073 14.285C19.4231 14.0222 19.6107 13.8598 19.9066 13.8538C19.9423 13.8531 19.9773 13.8538 20.0123 13.8538Z" fill="#FE4438"/>
</svg>
