<svg width="72" height="71" viewBox="0 0 72 71" fill="none" xmlns="http://www.w3.org/2000/svg">
<g clip-path="url(#clip0_164_941)">
<path d="M38.3204 70.9998C36.8235 70.9998 35.3266 70.9998 33.8297 70.9998C33.362 70.9445 32.9129 70.8707 32.4451 70.8338C25.3536 70.0588 18.9732 67.5126 13.4534 63.0474C6.56778 57.4752 2.28296 50.353 0.692522 41.681C0.449279 40.3894 0.318302 39.0978 0.149902 37.7878C0.149902 36.3117 0.149902 34.8356 0.149902 33.3595C0.187324 33.175 0.243457 33.0089 0.262168 32.8244C0.729944 26.7725 2.63847 21.2002 6.06258 16.1631C11.8256 7.73088 19.7778 2.50921 29.9566 0.682544C31.2289 0.46113 32.5387 0.313521 33.8297 0.147461C35.3266 0.147461 36.8235 0.147461 38.3204 0.147461C39.5366 0.313521 40.7715 0.424228 41.9877 0.627191C48.705 1.75271 54.6551 4.53883 59.7632 8.98556C66.0501 14.484 69.9794 21.2925 71.4576 29.4663C71.7008 30.7579 71.8318 32.0495 72.0189 33.3595C72.0189 34.8356 72.0189 36.3117 72.0189 37.7878C71.9815 37.9723 71.9254 38.1384 71.9067 38.3229C71.626 40.1311 71.4389 41.9762 71.0272 43.766C67.8277 57.3829 56.2268 68.1399 42.2871 70.4648C40.9399 70.6677 39.6301 70.8153 38.3204 70.9998ZM67.7715 35.5737C67.7715 18.3403 53.5137 4.28052 36.0376 4.29897C18.599 4.29897 4.37859 18.3034 4.35988 35.5183C4.32246 52.7332 18.5615 66.8114 36.0563 66.8299C53.5137 66.8483 67.7715 52.807 67.7715 35.5737Z" fill="#088DEE"/>
<path d="M33.9609 29.2634C33.9609 27.2891 33.9609 25.2964 33.9609 23.3221C33.9609 21.9752 34.8403 21.0342 36.0565 21.0342C37.2914 21.0342 38.1708 21.9752 38.1708 23.3037C38.1708 26.9016 38.1521 30.4996 38.1895 34.0976C38.1895 34.4297 38.3767 34.8541 38.6199 35.094C42.3808 38.8395 46.1792 42.5851 49.9588 46.3122C50.5388 46.8842 50.913 47.5116 50.7633 48.3419C50.5014 49.8733 48.7613 50.5745 47.4702 49.6888C47.2644 49.5412 47.0773 49.3567 46.8902 49.1722C42.9047 45.2421 38.9193 41.312 34.9338 37.4003C34.2602 36.7361 33.9234 36.0165 33.9421 35.0755C33.9983 33.1381 33.9609 31.2008 33.9609 29.2634Z" fill="black"/>
<path d="M38.1706 12.7311C38.1706 13.4138 38.1893 14.1149 38.1706 14.7976C38.1332 15.9785 37.2351 16.8642 36.0937 16.8826C34.9149 16.9011 33.9981 15.9785 33.9794 14.7792C33.9607 13.4138 33.9607 12.0669 33.9794 10.7015C33.9981 9.4837 34.9149 8.57959 36.0937 8.57959C37.2725 8.57959 38.1519 9.50215 38.1893 10.7199C38.1893 11.4026 38.1706 12.0669 38.1706 12.7311Z" fill="#088DEE"/>
<path d="M12.8548 37.6401C12.1812 37.6401 11.5076 37.6585 10.834 37.6401C9.59909 37.6032 8.68225 36.6991 8.70096 35.5366C8.71968 34.4111 9.63652 33.507 10.8153 33.507C12.2186 33.4886 13.622 33.4886 15.0066 33.507C16.2041 33.5255 17.1022 34.448 17.1022 35.5735C17.1022 36.699 16.2041 37.6032 15.0066 37.6401C14.3143 37.6585 13.5845 37.6401 12.8548 37.6401Z" fill="#088DEE"/>
<path d="M59.2956 33.4887C59.9692 33.4887 60.6428 33.4702 61.3164 33.4887C62.5139 33.5256 63.412 34.4112 63.4307 35.5367C63.4307 36.6623 62.5326 37.6033 61.3538 37.6217C59.9317 37.6586 58.5097 37.6586 57.0877 37.6217C55.9089 37.6033 55.0107 36.6623 55.0107 35.5367C55.0295 34.4112 55.9276 33.5256 57.1251 33.4887C57.8548 33.4702 58.5658 33.4887 59.2956 33.4887Z" fill="#088DEE"/>
<path d="M33.961 58.4159C33.961 57.7333 33.9422 57.0321 33.961 56.3494C33.9984 55.1685 34.8965 54.2829 36.0379 54.2644C37.2167 54.246 38.1522 55.1501 38.1709 56.3679C38.1896 57.7333 38.1896 59.0802 38.1709 60.4456C38.1522 61.6633 37.2354 62.5675 36.0566 62.5675C34.8778 62.5675 33.9797 61.6633 33.961 60.4271C33.9422 59.7444 33.961 59.0802 33.961 58.4159Z" fill="#088DEE"/>
<path d="M56.0209 53.1762C56.0209 54.3386 55.1227 55.2427 53.9439 55.2427C52.7838 55.2427 51.8296 54.3201 51.8296 53.1946C51.8296 52.0691 52.8026 51.1096 53.9252 51.1096C55.0853 51.0912 56.0021 52.0322 56.0209 53.1762Z" fill="#088DEE"/>
<path d="M16.1104 17.9343C16.1104 16.7719 17.0272 15.8862 18.206 15.8862C19.3661 15.8862 20.3016 16.8088 20.3016 17.9528C20.2829 19.0783 19.3099 20.0193 18.1873 20.0193C17.0272 20.0193 16.1104 19.0967 16.1104 17.9343Z" fill="#088DEE"/>
<path d="M53.9066 15.8865C55.0854 15.8681 56.0209 16.7722 56.0209 17.9161C56.0397 19.0601 55.1041 20.0011 53.9627 20.0196C52.8401 20.038 51.8484 19.0786 51.8297 17.9715C51.7923 16.8644 52.7465 15.905 53.9066 15.8865Z" fill="#088DEE"/>
<path d="M16.1106 53.213C16.0919 52.069 17.0275 51.128 18.1688 51.0911C19.2915 51.0726 20.2832 52.0321 20.3019 53.1392C20.3206 54.2647 19.3851 55.2241 18.225 55.2241C17.0649 55.2426 16.1293 54.3569 16.1106 53.213Z" fill="#088DEE"/>
</g>
<defs>
<clipPath id="clip0_164_941">
<rect width="72" height="71" fill="white"/>
</clipPath>
</defs>
</svg>
