<svg width="73" height="72" viewBox="0 0 73 72" fill="none" xmlns="http://www.w3.org/2000/svg">
<g clip-path="url(#clip0_206_29)">
<path d="M22.3084 40.9503C19.0144 41.8299 15.7766 42.7096 12.5575 43.5705C11.996 47.3886 10.1805 49.4099 7.20471 49.5409C4.54705 49.6532 2.17014 47.9126 1.5338 45.3485C0.878742 42.7657 2.13271 40.1081 4.52834 38.9664C7.18599 37.6937 9.82493 38.5547 11.9398 41.4182C15.1777 40.5386 18.4342 39.6589 21.7282 38.7793C20.9796 34.1939 22.0651 30.1512 24.9474 26.6326C23.1319 24.8359 21.3539 23.0579 19.5572 21.2612C14.1109 25.4723 7.18599 23.8814 3.70484 19.5206C0.148822 15.0662 0.466992 8.60925 4.50962 4.54791C8.55225 0.486562 14.9905 0.13096 19.4636 3.64955C23.8618 7.11198 25.4901 14.0743 21.2603 19.558C23.0571 21.3361 24.8351 23.1328 26.6318 24.9108C32.6396 20.9992 34.9604 20.6623 42.1285 22.721C42.821 21.4671 43.5135 20.2131 44.2434 18.8843C42.5403 17.4057 41.6232 15.5716 41.7168 13.2882C41.7729 11.7161 42.3344 10.3311 43.3825 9.1333C45.5161 6.68152 49.0721 6.12004 51.8608 7.74832C54.6308 9.37661 55.8847 12.7267 54.8179 15.7587C53.6201 19.2024 50.7379 20.6249 46.1899 20.0072C45.4974 21.2425 44.8049 22.5152 44.0937 23.8253C47.7807 26.3893 49.9518 29.8705 50.6068 34.381C54.3874 34.25 58.1681 34.1003 61.9861 33.9693C62.061 33.7447 62.1545 33.5201 62.2294 33.3142C62.978 31.3678 65.0368 30.1512 67.0394 30.4694C69.2104 30.825 70.7638 32.5843 70.8574 34.7741C70.9323 36.8141 69.5099 38.7044 67.4698 39.2097C65.4298 39.7338 63.2588 38.7231 62.3791 36.7954C62.1545 36.3088 61.9112 36.1777 61.3872 36.1965C57.9809 36.3462 54.5559 36.4585 51.1496 36.5895C51.0186 36.5895 50.8689 36.6082 50.8689 36.6082C50.4571 38.2365 50.2138 39.8461 49.6336 41.3059C49.0534 42.7845 48.1363 44.132 47.369 45.5544C49.0347 47.2201 50.8314 48.9981 52.6469 50.8323C55.4917 48.6612 58.7295 47.8565 62.323 48.6987C64.9806 49.335 67.1517 50.7949 68.7612 53.022C72.074 57.6449 71.4563 63.9708 67.3388 67.7702C63.0903 71.6818 56.7831 71.8315 52.4223 68.1445C48.2861 64.6633 46.7514 57.963 50.9063 52.5167C49.1283 50.7387 47.3316 48.942 45.5348 47.1453C41.043 50.7013 36.0459 51.5248 30.5621 49.5596C29.7761 51.1317 29.0087 52.6664 28.2039 54.2573C30.244 55.792 31.4231 57.832 31.5541 60.3774C31.6477 62.2677 31.1049 63.9896 29.9632 65.4868C27.605 68.5749 23.3939 69.492 20.0251 67.6766C16.6188 65.8611 15.0092 61.8372 16.2445 58.2251C17.6295 54.145 21.1106 52.3857 26.2388 53.1905C27.0061 51.6745 27.7735 50.1211 28.5782 48.5115C25.6211 46.7522 23.5437 44.2256 22.3084 40.9503ZM36.0646 48.4179C42.8959 48.3992 48.4358 42.8593 48.4171 36.0467C48.3984 29.178 42.8772 23.6943 35.971 23.713C29.1959 23.713 23.6934 29.3277 23.7121 36.1777C23.7495 42.8968 29.3269 48.4367 36.0646 48.4179ZM23.7683 55.1744C20.6989 55.1369 18.1348 57.6262 18.0974 60.6768C18.0599 63.8024 20.5304 66.3665 23.6185 66.4039C26.7254 66.4413 29.3082 63.9521 29.3269 60.864C29.3643 57.7384 26.8751 55.1931 23.7683 55.1744ZM15.8327 12.2214C18.0412 13.6064 19.1829 15.609 19.2577 18.2854C22.1587 15.1598 22.4956 9.43275 18.5091 5.80187C14.7472 2.37687 8.81428 2.80733 5.55771 6.75638C2.17014 10.8739 3.51768 16.2079 5.74487 18.2105C5.80102 15.5716 6.99884 13.569 9.18859 12.184C7.5416 9.88194 7.65389 7.50502 9.41318 5.8393C11.0415 4.3046 13.5494 4.21102 15.3087 5.61471C17.2739 7.16813 17.461 9.4889 15.8327 12.2214ZM56.3152 59.3854C54.7243 56.6904 54.8741 54.4445 56.7269 52.8536C58.4114 51.4312 60.8444 51.4125 62.5289 52.8162C63.3898 53.5274 63.9138 54.4632 64.0823 55.5674C64.3069 56.9898 63.8764 58.2251 62.9406 59.3667C65.2052 60.7704 66.3469 62.7917 66.4218 65.4681C69.4163 62.1554 69.5847 56.3535 65.5047 52.8162C61.6492 49.4847 55.735 50.0837 52.5907 54.0889C49.3342 58.2625 50.794 63.5217 52.9089 65.3558C52.965 62.7543 54.1254 60.7704 56.3152 59.3854ZM48.3984 18.0982C50.8876 18.1169 52.9089 16.0956 52.9089 13.6251C52.9089 11.1733 50.925 9.15202 48.4732 9.1333C45.984 9.11458 43.944 11.0985 43.9253 13.5877C43.9066 16.0582 45.9279 18.0982 48.3984 18.0982ZM6.84911 40.576C5.01495 40.5947 3.51768 42.092 3.49897 43.9261C3.49897 45.7977 5.01495 47.3137 6.88654 47.3137C8.7207 47.3137 10.2367 45.7977 10.2367 43.9636C10.2367 42.0732 8.7207 40.5573 6.84911 40.576ZM8.23408 16.9378C11.0789 16.9378 13.9237 16.9378 16.7872 16.9378C16.2445 14.8791 14.4103 13.5502 12.2954 13.6251C10.3303 13.7 8.53354 15.1785 8.23408 16.9378ZM55.342 64.1206C58.2242 64.1206 61.069 64.1206 63.9138 64.1206C63.6144 62.3613 61.8551 60.8827 59.9274 60.7704C57.7937 60.6768 55.9034 62.0244 55.342 64.1206ZM53.9383 66.4413C57.0638 69.5295 62.8283 69.1926 65.355 66.4413C61.5744 66.4413 57.775 66.4413 53.9383 66.4413ZM18.2284 19.2773C14.4103 19.2773 10.611 19.2773 6.73681 19.2773C9.99338 22.3093 15.4397 22.0473 18.2284 19.2773ZM12.5013 6.88739C11.2848 6.88739 10.2741 7.87934 10.2554 9.11458C10.2367 10.3685 11.2661 11.3979 12.52 11.3792C13.7366 11.3605 14.7472 10.3311 14.7285 9.11458C14.7285 7.87934 13.7178 6.88739 12.5013 6.88739ZM61.8925 56.316C61.8925 55.0808 60.9193 54.0701 59.684 54.0514C58.4301 54.0327 57.4007 55.0621 57.4007 56.2973C57.4007 57.5139 58.4114 58.5245 59.6466 58.5245C60.8631 58.5432 61.8925 57.5326 61.8925 56.316ZM68.6302 34.9238C68.6115 33.7073 67.6009 32.7153 66.3843 32.7153C65.1678 32.7153 64.1571 33.726 64.1571 34.9425C64.1571 36.1965 65.1865 37.2258 66.4405 37.1884C67.657 37.1697 68.649 36.159 68.6302 34.9238Z" fill="#33D9C4"/>
<path d="M38.7973 36.5523C41.6796 37.8062 43.4014 39.9024 43.8693 42.9905C43.9068 43.2713 43.9255 43.552 43.9255 43.8328C43.9255 44.6001 43.495 45.068 42.709 45.068C38.292 45.0867 33.8751 45.0867 29.4581 45.068C28.6346 45.068 28.1854 44.6001 28.2229 43.7766C28.3726 40.6885 29.8137 38.4239 32.5275 36.9453C32.7895 36.7956 33.0516 36.6833 33.3323 36.5523C29.9822 33.5203 29.533 30.1889 32.0971 27.6061C34.343 25.3415 37.9926 25.3976 40.1823 27.7371C42.6154 30.3386 42.0913 33.7449 38.7973 36.5523ZM41.4924 42.7847C41.2491 40.4265 38.7973 38.3677 36.2146 38.3303C33.4633 38.2929 30.9554 40.2767 30.6372 42.7847C34.2681 42.7847 37.8803 42.7847 41.4924 42.7847ZM39.4337 31.5739C39.4337 29.7023 37.899 28.205 36.0274 28.205C34.212 28.2237 32.696 29.7397 32.696 31.5739C32.7147 33.4454 34.2307 34.9614 36.1023 34.9427C37.9364 34.924 39.4337 33.408 39.4337 31.5739Z" fill="black"/>
</g>
<defs>
<clipPath id="clip0_206_29">
<rect width="72.0187" height="72" fill="white"/>
</clipPath>
</defs>
</svg>
