<svg width="36" height="37" viewBox="0 0 36 37" fill="none" xmlns="http://www.w3.org/2000/svg">
<rect x="0.5" y="1.36279" width="35" height="35" rx="17.5" stroke="#090909"/>
<g clip-path="url(#clip0_44_89)">
<path fill-rule="evenodd" clip-rule="evenodd" d="M26.8399 17.0664H18.1909C18.1909 17.9664 18.1909 19.7646 18.1846 20.6646H23.1967C23.005 21.5637 22.3237 22.8228 21.3616 23.4573C21.3616 23.4573 21.3598 23.4627 21.358 23.4618C20.0791 24.306 18.3907 24.4977 17.137 24.2457C15.1723 23.856 13.618 22.4313 12.9862 20.6214C12.9898 20.6187 12.9925 20.5935 12.9952 20.5917C12.6001 19.4685 12.6001 17.9655 12.9952 17.0664C13.5037 15.4131 15.1057 13.9047 17.0722 13.4916C18.6553 13.1559 20.4409 13.5195 21.754 14.748C21.9286 14.577 24.1705 12.3882 24.3388 12.21C19.8523 8.14655 12.6694 9.57665 9.9811 14.8227L9.9757 14.8326C9.333 16.0804 8.99844 17.464 9.00001 18.8675C9.00157 20.2711 9.33922 21.6539 9.9847 22.9002L9.9757 22.9074C10.5675 24.0479 11.3926 25.0511 12.3973 25.852C13.402 26.6528 14.564 27.2334 15.8077 27.5559C18.5167 28.2669 21.9664 27.7809 24.2767 25.6911L24.2794 25.6938C26.2369 23.9316 27.4555 20.9274 26.8399 17.0664Z" fill="#090909"/>
</g>
<defs>
<clipPath id="clip0_44_89">
<rect width="18" height="18" fill="white" transform="translate(9 9.86279)"/>
</clipPath>
</defs>
</svg>
