<svg width="73" height="72" viewBox="0 0 73 72" fill="none" xmlns="http://www.w3.org/2000/svg">
<g clip-path="url(#clip0_164_970)">
<path d="M72.0189 28.916C71.1018 29.8893 70.2035 30.8625 69.2864 31.817C68.5377 32.5844 67.7704 33.333 67.003 34.1003C66.0111 35.0923 65.7491 35.1484 64.439 34.6244C64.439 35.6163 64.439 36.5896 64.439 37.5628C64.439 40.183 64.439 42.8032 64.439 45.4235C64.439 46.4715 63.7278 47.1453 62.8294 47.0143C62.0995 46.902 61.6316 46.3218 61.6316 45.4422C61.6316 42.4102 61.6316 39.3595 61.6316 36.3275C61.6316 35.2046 61.6129 34.0816 61.6503 32.9587C61.669 32.4908 61.538 32.1913 61.1637 31.8919C53.434 25.8654 45.7044 19.8388 37.9934 13.8123C37.3945 13.3444 36.7769 12.8765 36.1218 12.3525C34.8117 13.3631 33.5016 14.3925 32.2102 15.4032C25.173 20.9057 18.1359 26.3894 11.08 31.8919C10.7431 32.1539 10.5559 32.4159 10.5559 32.8651C10.5747 44.7684 10.5747 56.6717 10.5747 68.5937C10.5747 68.7809 10.5747 68.9493 10.5747 69.1739C11.8848 69.1739 13.1387 69.1739 14.505 69.1739C14.505 68.9306 14.505 68.6873 14.505 68.444C14.505 64.4762 14.505 60.4897 14.505 56.522C14.505 56.3161 14.4863 56.0915 14.5237 55.8856C14.5986 55.1744 15.1788 54.6317 15.89 54.6129C16.6199 54.5942 17.2375 55.137 17.3124 55.9044C17.3311 56.1664 17.3311 56.4097 17.3311 56.6717C17.3311 60.5833 17.3311 64.4762 17.3311 68.3878C17.3311 68.6311 17.3311 68.8932 17.3311 69.1739C32.1353 69.1739 46.8647 69.1739 61.6877 69.1739C61.6877 68.9306 61.6877 68.6873 61.6877 68.4253C61.6877 64.5698 61.6877 60.7143 61.6877 56.8401C61.6877 56.653 61.6877 56.4658 61.6877 56.2787C61.7064 55.3616 62.2679 54.744 63.0727 54.744C63.8962 54.7252 64.4764 55.3616 64.4951 56.3161C64.4951 56.7653 64.4951 57.1957 64.4951 57.6449C64.4951 61.463 64.4951 65.2623 64.4951 69.1926C64.7384 69.1926 64.963 69.1926 65.1876 69.1926C66.8533 69.1926 68.519 69.2301 70.166 69.1739C71.027 69.1552 71.6633 69.4172 72.075 70.1658C72.075 70.7648 72.075 71.3824 72.075 71.9813C48.1187 71.9813 24.1624 71.9813 0.206055 71.9813C0.206055 71.3824 0.206055 70.7648 0.206055 70.1658C0.617804 69.3985 1.25414 69.1365 2.11507 69.1739C3.74336 69.2301 5.39035 69.1926 7.01864 69.1926C7.26194 69.1926 7.50525 69.1926 7.74856 69.1926C7.74856 57.6075 7.74856 46.1159 7.74856 34.6057C6.47588 35.1484 6.21385 35.0923 5.22191 34.0816C4.43584 33.2956 3.64978 32.5469 2.90114 31.7421C2.00278 30.8064 1.10442 29.8518 0.224771 28.8973C0.224771 28.6166 0.224771 28.3359 0.224771 28.0551C0.580372 27.6995 0.898542 27.2878 1.29158 26.9696C9.52656 20.5313 17.7616 14.0931 25.9965 7.67352C29.2344 5.14688 32.4909 2.63895 35.7288 0.112305C36.0095 0.112305 36.2903 0.112305 36.571 0.112305C36.8143 0.280748 37.0576 0.449191 37.3009 0.636349C40.9505 3.48116 44.6001 6.32598 48.2497 9.17079C49.5037 10.1627 50.7764 11.136 52.1613 12.2028C52.1613 10.3686 52.1613 8.70289 52.1613 7.03718C52.1613 5.78322 52.6667 5.2966 53.9019 5.2966C56.3724 5.2966 58.8616 5.2966 61.3321 5.2966C62.6235 5.2966 63.0914 5.78322 63.0914 7.09333C63.0914 11.398 63.1101 15.7026 63.0727 19.9886C63.0727 20.5688 63.2599 20.9244 63.709 21.2613C66.1421 23.1141 68.5565 25.0044 70.9521 26.9134C71.3638 27.2316 71.7007 27.6621 72.075 28.0364C72.0189 28.3546 72.0189 28.6353 72.0189 28.916ZM6.81276 31.6111C6.94377 31.5176 7.13093 31.3865 7.31809 31.2368C16.4702 24.0873 25.6222 16.9379 34.793 9.78842C35.8785 8.9462 36.2903 8.9462 37.3758 9.78842C46.1723 16.6571 54.95 23.5072 63.7465 30.3759C64.2892 30.8064 64.8507 31.2181 65.3186 31.5924C66.3667 30.5443 67.3586 29.5711 68.388 28.5417C57.6451 20.157 46.8835 11.7536 36.0844 3.33144C25.2666 11.7723 14.505 20.1757 3.76207 28.5604C4.79145 29.5898 5.78339 30.5818 6.81276 31.6111ZM60.1717 18.5662C60.1717 15.0101 60.1717 11.6039 60.1717 8.17885C58.3937 8.17885 56.6719 8.17885 54.8939 8.17885C54.8939 10.2189 54.8939 12.2215 54.9126 14.2241C54.9126 14.3551 55.0249 14.5235 55.1372 14.6171C56.7654 15.9272 58.4312 17.2186 60.1717 18.5662Z" fill="#3BB64B"/>
<path d="M36.0842 60.4895C31.7421 60.4895 27.3813 60.4895 23.0392 60.4895C21.6543 60.4895 21.2051 60.0216 21.2051 58.6367C21.2051 49.9712 21.2051 41.287 21.2051 32.6216C21.2051 31.1992 21.6543 30.75 23.0954 30.75C31.7421 30.75 40.3889 30.75 49.0543 30.75C50.5329 30.75 50.9633 31.1805 50.9633 32.6777C50.9633 41.3058 50.9633 49.9338 50.9633 58.5618C50.9633 60.0965 50.5516 60.5082 48.9982 60.5082C44.6935 60.5082 40.3889 60.5083 36.0842 60.4895ZM24.0499 33.5761C24.0499 37.1508 24.0499 40.6694 24.0499 44.1506C27.6059 44.1506 31.1245 44.1506 34.6244 44.1506C34.6244 40.5946 34.6244 37.0947 34.6244 33.5761C31.1058 33.5761 27.6059 33.5761 24.0499 33.5761ZM48.0998 44.188C48.0998 40.6133 48.0998 37.0947 48.0998 33.6135C44.5438 33.6135 41.0252 33.6135 37.5253 33.6135C37.5253 37.1695 37.5253 40.6694 37.5253 44.188C41.0439 44.188 44.5438 44.188 48.0998 44.188ZM34.6244 57.6634C34.6244 54.0887 34.6244 50.5701 34.6244 47.089C31.0683 47.089 27.5498 47.089 24.0499 47.089C24.0499 50.645 24.0499 54.1449 24.0499 57.6634C27.5685 57.6634 31.0683 57.6634 34.6244 57.6634ZM37.5066 57.6447C41.0813 57.6447 44.5812 57.6447 48.0811 57.6447C48.0811 54.0887 48.0811 50.5701 48.0811 47.0702C44.5251 47.0702 41.0252 47.0702 37.5066 47.0702C37.5066 50.5888 37.5066 54.0887 37.5066 57.6447Z" fill="black"/>
<path d="M17.2556 50.4769C17.2556 51.2629 16.5819 51.918 15.8145 51.8806C15.0659 51.8618 14.4482 51.2255 14.4482 50.4581C14.4482 49.6721 15.0846 49.0545 15.8894 49.0732C16.6567 49.0919 17.2556 49.7095 17.2556 50.4769Z" fill="black"/>
<path d="M64.4199 51.2066C64.4386 51.9739 63.7836 52.629 63.0162 52.629C62.2676 52.629 61.65 52.0114 61.6313 51.2627C61.6125 50.4954 62.2676 49.8403 63.0349 49.8403C63.7836 49.8403 64.4012 50.458 64.4199 51.2066Z" fill="black"/>
</g>
<defs>
<clipPath id="clip0_164_970">
<rect width="72.0187" height="72" fill="white"/>
</clipPath>
</defs>
</svg>
