<svg width="72" height="72" viewBox="0 0 72 72" fill="none" xmlns="http://www.w3.org/2000/svg">
<g clip-path="url(#clip0_59_341)">
<path d="M58.4297 1.05469H13.5703C12.4053 1.05469 11.4609 1.99909 11.4609 3.16406V16.9453C11.4609 18.1103 12.4053 19.0547 13.5703 19.0547H58.4297C59.5947 19.0547 60.5391 18.1103 60.5391 16.9453V3.16406C60.5391 1.99909 59.5947 1.05469 58.4297 1.05469Z" fill="#3BB64B"/>
<path d="M58.4297 1.05469H54.2109C54.7704 1.05469 55.3069 1.27692 55.7025 1.67251C56.0981 2.06809 56.3203 2.60462 56.3203 3.16406V16.9453C56.3203 17.5048 56.0981 18.0413 55.7025 18.4369C55.3069 18.8324 54.7704 19.0547 54.2109 19.0547H58.4297C58.9891 19.0547 59.5257 18.8324 59.9212 18.4369C60.3168 18.0413 60.5391 17.5048 60.5391 16.9453V3.16406C60.5391 2.60462 60.3168 2.06809 59.9212 1.67251C59.5257 1.27692 58.9891 1.05469 58.4297 1.05469Z" fill="#3BB64B"/>
<path d="M21.4568 5.73169L22.634 8.11697C22.6642 8.17833 22.709 8.23139 22.7644 8.2716C22.8197 8.3118 22.8841 8.33793 22.9518 8.34774L25.584 8.73024C25.6619 8.74155 25.7351 8.77444 25.7953 8.82517C25.8554 8.87591 25.9002 8.94248 25.9246 9.01734C25.9489 9.09221 25.9518 9.17239 25.9329 9.24881C25.9141 9.32524 25.8742 9.39487 25.8178 9.44982L23.9129 11.3065C23.864 11.3543 23.8273 11.4132 23.8062 11.4783C23.7851 11.5433 23.7801 11.6126 23.7917 11.68L24.2413 14.3017C24.2546 14.3792 24.2459 14.459 24.2162 14.5319C24.1866 14.6048 24.1371 14.668 24.0734 14.7142C24.0097 14.7605 23.9344 14.788 23.8559 14.7937C23.7774 14.7994 23.6988 14.7829 23.6292 14.7463L21.2748 13.5085C21.2143 13.4767 21.1469 13.4601 21.0785 13.4601C21.0101 13.4601 20.9427 13.4767 20.8822 13.5085L18.5277 14.7463C18.458 14.7829 18.3795 14.7994 18.301 14.7937C18.2225 14.788 18.1471 14.7605 18.0834 14.7142C18.0198 14.668 17.9703 14.6048 17.9406 14.5319C17.9109 14.459 17.9023 14.3792 17.9156 14.3017L18.3653 11.68C18.3769 11.6126 18.3719 11.5433 18.3507 11.4783C18.3296 11.4132 18.2929 11.3542 18.2439 11.3065L16.3393 9.44996C16.2829 9.39501 16.2431 9.32538 16.2242 9.24895C16.2053 9.17253 16.2082 9.09235 16.2326 9.01748C16.2569 8.94262 16.3017 8.87605 16.3619 8.82531C16.4221 8.77458 16.4953 8.74169 16.5732 8.73038L19.2054 8.34788C19.2731 8.33807 19.3374 8.31194 19.3928 8.27174C19.4481 8.23153 19.4929 8.17847 19.5232 8.11711L20.7002 5.73183C20.7351 5.66122 20.7889 5.60176 20.8558 5.56019C20.9227 5.51862 20.9998 5.49658 21.0786 5.49658C21.1573 5.49658 21.2345 5.51862 21.3013 5.56019C21.3682 5.60176 21.4221 5.66122 21.4569 5.73183L21.4568 5.73169ZM36.3785 5.73169L37.5555 8.11697C37.5858 8.17833 37.6306 8.23139 37.6859 8.2716C37.7413 8.3118 37.8056 8.33793 37.8733 8.34774L40.5056 8.73024C40.5835 8.74155 40.6567 8.77444 40.7168 8.82517C40.777 8.87591 40.8218 8.94248 40.8462 9.01734C40.8705 9.09221 40.8734 9.17239 40.8545 9.24881C40.8357 9.32524 40.7958 9.39487 40.7394 9.44982L38.8347 11.3065C38.7857 11.3542 38.749 11.4132 38.7279 11.4783C38.7067 11.5433 38.7017 11.6126 38.7133 11.68L39.1629 14.3017C39.1762 14.3792 39.1675 14.459 39.1378 14.5318C39.1081 14.6047 39.0587 14.6679 38.995 14.7141C38.9314 14.7604 38.856 14.7879 38.7775 14.7936C38.6991 14.7993 38.6205 14.7829 38.5509 14.7463L36.1964 13.5085C36.1359 13.4767 36.0685 13.4601 36.0001 13.4601C35.9317 13.4601 35.8643 13.4767 35.8038 13.5085L33.4493 14.7463C33.3796 14.7829 33.3011 14.7993 33.2226 14.7936C33.1441 14.7879 33.0688 14.7604 33.0051 14.7141C32.9415 14.6679 32.892 14.6047 32.8624 14.5318C32.8327 14.459 32.824 14.3792 32.8373 14.3017L33.2869 11.68C33.2984 11.6126 33.2934 11.5433 33.2723 11.4783C33.2512 11.4132 33.2145 11.3542 33.1655 11.3065L31.2607 9.44996C31.2044 9.39501 31.1645 9.32538 31.1456 9.24895C31.1268 9.17253 31.1297 9.09235 31.154 9.01748C31.1783 8.94262 31.2231 8.87605 31.2833 8.82531C31.3435 8.77458 31.4167 8.74169 31.4946 8.73038L34.127 8.34788C34.1946 8.33803 34.2589 8.31188 34.3142 8.27168C34.3695 8.23148 34.4142 8.17843 34.4445 8.11711L35.6218 5.73183C35.6566 5.66126 35.7105 5.60184 35.7774 5.56029C35.8442 5.51874 35.9214 5.49672 36.0001 5.49672C36.0788 5.49672 36.1559 5.51874 36.2228 5.56029C36.2896 5.60184 36.3435 5.66126 36.3784 5.73183L36.3785 5.73169ZM51.2999 5.802L52.4772 8.18729C52.5075 8.24862 52.5523 8.30168 52.6076 8.34188C52.6629 8.38208 52.7272 8.40822 52.7949 8.41805L55.4271 8.80055C55.505 8.81187 55.5782 8.84475 55.6384 8.89549C55.6986 8.94622 55.7434 9.01279 55.7677 9.08765C55.7921 9.16252 55.795 9.2427 55.7761 9.31913C55.7572 9.39555 55.7174 9.46518 55.661 9.52013L53.7562 11.3768C53.7072 11.4246 53.6706 11.4835 53.6494 11.5486C53.6283 11.6136 53.6233 11.6829 53.6349 11.7503L54.0846 14.372C54.0979 14.4496 54.0892 14.5293 54.0595 14.6022C54.0299 14.6751 53.9804 14.7383 53.9167 14.7845C53.853 14.8308 53.7777 14.8583 53.6992 14.864C53.6207 14.8697 53.5421 14.8533 53.4725 14.8166L51.118 13.5788C51.0574 13.547 50.9901 13.5304 50.9217 13.5304C50.8533 13.5304 50.7859 13.547 50.7253 13.5788L48.371 14.8166C48.3013 14.8533 48.2228 14.8697 48.1443 14.864C48.0658 14.8583 47.9904 14.8308 47.9267 14.7845C47.8631 14.7383 47.8136 14.6751 47.7839 14.6022C47.7542 14.5293 47.7456 14.4496 47.7589 14.372L48.2084 11.7503C48.22 11.6829 48.2151 11.6137 48.1939 11.5486C48.1728 11.4835 48.1362 11.4246 48.0872 11.3768L46.1823 9.52027C46.1259 9.46532 46.0861 9.39569 46.0672 9.31927C46.0484 9.24284 46.0513 9.16266 46.0756 9.08779C46.0999 9.01293 46.1447 8.94636 46.2049 8.89563C46.2651 8.84489 46.3383 8.81201 46.4162 8.80069L49.0485 8.41819C49.1162 8.40836 49.1805 8.38222 49.2359 8.34202C49.2912 8.30182 49.3359 8.24876 49.3662 8.18743L50.5434 5.80215C50.5782 5.73157 50.6321 5.67215 50.699 5.6306C50.7658 5.58906 50.843 5.56704 50.9217 5.56704C51.0004 5.56704 51.0775 5.58906 51.1444 5.6306C51.2112 5.67215 51.2651 5.73143 51.2999 5.802Z" fill="white"/>
<path d="M46.8807 9.26757C46.9484 9.25777 47.0127 9.23166 47.0681 9.19148C47.1234 9.15131 47.1682 9.09827 47.1985 9.03694L47.3844 8.65992L46.4162 8.80055C46.3524 8.80989 46.2915 8.83374 46.2384 8.87025C46.1852 8.90677 46.1411 8.95499 46.1094 9.0112C46.0778 9.06742 46.0595 9.13014 46.0558 9.19454C46.0522 9.25895 46.0634 9.32333 46.0885 9.38274L46.8807 9.26757ZM55.661 9.52013C55.7174 9.46518 55.7573 9.39555 55.7761 9.31912C55.795 9.2427 55.7921 9.16252 55.7677 9.08765C55.7434 9.01279 55.6986 8.94622 55.6384 8.89548C55.5782 8.84475 55.5051 8.81186 55.4272 8.80055L52.7949 8.41805C52.7272 8.40824 52.6629 8.38211 52.6075 8.34191C52.5522 8.3017 52.5074 8.24864 52.4771 8.18728L51.3001 5.802C51.2653 5.73139 51.2114 5.67193 51.1445 5.63036C51.0776 5.58879 51.0005 5.56675 50.9217 5.56675C50.843 5.56675 50.7659 5.58879 50.699 5.63036C50.6321 5.67193 50.5782 5.73139 50.5434 5.802L49.6282 7.65642L50.3094 9.0368C50.3397 9.09814 50.3844 9.15119 50.4397 9.19139C50.4951 9.23159 50.5594 9.25774 50.6271 9.26757L53.2594 9.65007C53.3373 9.66138 53.4105 9.69426 53.4707 9.745C53.5309 9.79574 53.5757 9.8623 53.6 9.93717C53.6243 10.012 53.6272 10.0922 53.6084 10.1686C53.5895 10.2451 53.5497 10.3147 53.4933 10.3696L51.5884 12.2263C51.5394 12.2741 51.5028 12.333 51.4817 12.3981C51.4606 12.4632 51.4556 12.5324 51.4672 12.5998L51.6863 13.8777L53.4725 14.8166C53.5421 14.8533 53.6207 14.8697 53.6992 14.864C53.7777 14.8583 53.8531 14.8308 53.9167 14.7845C53.9804 14.7383 54.0299 14.6751 54.0596 14.6022C54.0892 14.5293 54.0979 14.4496 54.0846 14.372L53.6349 11.7503C53.6233 11.6829 53.6283 11.6136 53.6495 11.5486C53.6706 11.4835 53.7073 11.4245 53.7563 11.3768L55.661 9.52013ZM40.7393 9.44981C40.7957 9.39487 40.8355 9.32526 40.8544 9.24884C40.8733 9.17243 40.8704 9.09225 40.8461 9.01739C40.8218 8.94253 40.777 8.87596 40.7168 8.82522C40.6566 8.77447 40.5835 8.74157 40.5056 8.73024L37.8732 8.34774C37.8056 8.33789 37.7413 8.31173 37.686 8.27153C37.6307 8.23133 37.586 8.17829 37.5557 8.11697L36.3784 5.73169C36.3435 5.66112 36.2896 5.6017 36.2228 5.56015C36.1559 5.5186 36.0788 5.49658 36.0001 5.49658C35.9214 5.49658 35.8443 5.5186 35.7774 5.56015C35.7106 5.6017 35.6567 5.66112 35.6218 5.73169L34.7064 7.58611L35.3877 8.96649C35.418 9.02782 35.4627 9.08088 35.518 9.12108C35.5734 9.16128 35.6377 9.18742 35.7054 9.19725L38.3376 9.57975C38.4155 9.59107 38.4887 9.62395 38.5488 9.67469C38.609 9.72542 38.6538 9.79199 38.6782 9.86685C38.7025 9.94172 38.7054 10.0219 38.6865 10.0983C38.6677 10.1748 38.6278 10.2444 38.5714 10.2993L36.6667 12.156C36.6177 12.2038 36.581 12.2627 36.5599 12.3278C36.5387 12.3928 36.5337 12.4621 36.5453 12.5295L36.7645 13.8074L38.5508 14.7463C38.6204 14.7829 38.699 14.7994 38.7775 14.7937C38.856 14.788 38.9313 14.7605 38.995 14.7142C39.0587 14.668 39.1082 14.6048 39.1378 14.5319C39.1675 14.459 39.1762 14.3792 39.1629 14.3017L38.7132 11.68C38.7016 11.6126 38.7066 11.5433 38.7277 11.4783C38.7489 11.4132 38.7855 11.3542 38.8345 11.3065L40.7393 9.44981ZM25.8179 9.44981C25.8742 9.39486 25.9141 9.32524 25.933 9.24881C25.9518 9.17238 25.9489 9.0922 25.9246 9.01734C25.9003 8.94247 25.8555 8.87591 25.7953 8.82517C25.7351 8.77443 25.6619 8.74155 25.584 8.73024L22.9516 8.34774C22.884 8.33791 22.8197 8.31177 22.7643 8.27156C22.709 8.23136 22.6642 8.17831 22.634 8.11697L21.4568 5.73169C21.422 5.66112 21.3681 5.6017 21.3012 5.56015C21.2344 5.5186 21.1572 5.49658 21.0785 5.49658C20.9998 5.49658 20.9227 5.5186 20.8558 5.56015C20.789 5.6017 20.7351 5.66112 20.7002 5.73169L19.7849 7.58611L20.4662 8.96649C20.4965 9.02781 20.5412 9.08085 20.5965 9.12105C20.6518 9.16125 20.7161 9.1874 20.7838 9.19725L23.4163 9.57975C23.4942 9.59109 23.5673 9.62399 23.6275 9.67473C23.6877 9.72548 23.7324 9.79204 23.7568 9.86691C23.7811 9.94177 23.784 10.0219 23.7651 10.0984C23.7462 10.1748 23.7064 10.2444 23.65 10.2993L21.7452 12.156C21.6962 12.2038 21.6596 12.2627 21.6384 12.3278C21.6173 12.3928 21.6123 12.4621 21.6239 12.5295L21.8431 13.8074L23.6292 14.7463C23.6988 14.7829 23.7774 14.7994 23.8559 14.7937C23.9344 14.788 24.0098 14.7605 24.0734 14.7142C24.1371 14.668 24.1866 14.6048 24.2163 14.5319C24.2459 14.459 24.2546 14.3792 24.2413 14.3017L23.7917 11.68C23.7802 11.6126 23.7852 11.5433 23.8063 11.4783C23.8275 11.4132 23.8641 11.3542 23.9131 11.3065L25.8179 9.44981ZM48.9503 14.4284C48.8897 14.3965 48.8223 14.3799 48.7539 14.3799C48.6855 14.3799 48.6182 14.3965 48.5576 14.4284L47.9086 14.7697C47.9723 14.8225 48.0503 14.8552 48.1327 14.8636C48.215 14.8719 48.298 14.8556 48.371 14.8166L49.0299 14.4703L48.9503 14.4284Z" fill="white"/>
<path d="M3.16406 27.4922H68.8359V70.9453H3.16406V27.4922Z" fill="white"/>
<path d="M62.5077 27.4922H68.8359V70.9453H62.5077V27.4922ZM16.0586 19.0547H20.6992V27.4922H16.0586V19.0547ZM51.3006 19.0547H55.9412V27.4922H51.3006V19.0547Z" fill="white"/>
<path d="M30.5156 52.3828H41.4844C42.0438 52.3828 42.5803 52.6051 42.9759 53.0006C43.3715 53.3962 43.5938 53.9327 43.5938 54.4922V70.9453H28.4062V54.4922C28.4062 53.9327 28.6285 53.3962 29.0241 53.0006C29.4197 52.6051 29.9562 52.3828 30.5156 52.3828Z" fill="#3BB64B"/>
<path d="M41.4844 52.3828H35.1562C35.7157 52.3828 36.2522 52.6051 36.6478 53.0006C37.0434 53.3962 37.2656 53.9327 37.2656 54.4922V70.9453H43.5938V54.4922C43.5938 53.9327 43.3715 53.3962 42.9759 53.0006C42.5803 52.6051 42.0438 52.3828 41.4844 52.3828Z" fill="#3BB64B"/>
<path d="M69.9609 23.2734H2.03906C1.49541 23.2734 1.05469 23.7142 1.05469 24.2578V26.5078C1.05469 27.0515 1.49541 27.4922 2.03906 27.4922H69.9609C70.5046 27.4922 70.9453 27.0515 70.9453 26.5078V24.2578C70.9453 23.7142 70.5046 23.2734 69.9609 23.2734Z" fill="#090909"/>
<path d="M69.9609 23.2734H63.6328C63.8939 23.2734 64.1443 23.3771 64.3289 23.5618C64.5135 23.7464 64.6172 23.9967 64.6172 24.2578V26.5078C64.6172 26.7689 64.5135 27.0193 64.3289 27.2039C64.1443 27.3885 63.8939 27.4922 63.6328 27.4922H69.9609C70.222 27.4922 70.4724 27.3885 70.657 27.2039C70.8416 27.0193 70.9453 26.7689 70.9453 26.5078V24.2578C70.9453 23.9967 70.8416 23.7464 70.657 23.5618C70.4724 23.3771 70.222 23.2734 69.9609 23.2734Z" fill="#090909"/>
<path d="M19.6172 33.8203H10.7578C10.0588 33.8203 9.49219 34.387 9.49219 35.0859V44.7891C9.49219 45.488 10.0588 46.0547 10.7578 46.0547H19.6172C20.3162 46.0547 20.8828 45.488 20.8828 44.7891V35.0859C20.8828 34.387 20.3162 33.8203 19.6172 33.8203Z" fill="white"/>
<path d="M19.6172 52.3828H10.7578C10.0588 52.3828 9.49219 52.9495 9.49219 53.6484V63.3516C9.49219 64.0505 10.0588 64.6172 10.7578 64.6172H19.6172C20.3162 64.6172 20.8828 64.0505 20.8828 63.3516V53.6484C20.8828 52.9495 20.3162 52.3828 19.6172 52.3828Z" fill="white"/>
<path d="M61.2422 33.8203H52.3828C51.6838 33.8203 51.1172 34.387 51.1172 35.0859V44.7891C51.1172 45.488 51.6838 46.0547 52.3828 46.0547H61.2422C61.9412 46.0547 62.5078 45.488 62.5078 44.7891V35.0859C62.5078 34.387 61.9412 33.8203 61.2422 33.8203Z" fill="white"/>
<path d="M61.2422 52.3828H52.3828C51.6838 52.3828 51.1172 52.9495 51.1172 53.6484V63.3516C51.1172 64.0505 51.6838 64.6172 52.3828 64.6172H61.2422C61.9412 64.6172 62.5078 64.0505 62.5078 63.3516V53.6484C62.5078 52.9495 61.9412 52.3828 61.2422 52.3828Z" fill="white"/>
<path d="M40.4297 33.8203H31.5703C30.8713 33.8203 30.3047 34.387 30.3047 35.0859V44.7891C30.3047 45.488 30.8713 46.0547 31.5703 46.0547H40.4297C41.1287 46.0547 41.6953 45.488 41.6953 44.7891V35.0859C41.6953 34.387 41.1287 33.8203 40.4297 33.8203Z" fill="white"/>
<path d="M40.6571 7.68656L38.3541 7.35187L37.3241 5.26486C37.2022 5.01782 37.0135 4.80982 36.7795 4.66438C36.5455 4.51895 36.2755 4.44187 36 4.44187C35.7245 4.44187 35.4545 4.51895 35.2205 4.66438C34.9865 4.80982 34.7978 5.01782 34.6759 5.26486L33.6459 7.35173L31.3429 7.68642C31.0703 7.72602 30.8141 7.84112 30.6034 8.01871C30.3928 8.19629 30.236 8.42928 30.1509 8.69132C30.0657 8.95337 30.0556 9.234 30.1216 9.50151C30.1876 9.76901 30.3272 10.0127 30.5245 10.205L32.191 11.8295L31.7977 14.1231C31.7503 14.3948 31.7801 14.6744 31.8837 14.9301C31.9872 15.1857 32.1604 15.4072 32.3835 15.5693C32.6067 15.7315 32.8708 15.8278 33.1459 15.8473C33.4211 15.8668 33.6962 15.8088 33.94 15.6798L36 14.597L38.0599 15.6798C38.3037 15.808 38.5786 15.8654 38.8534 15.8456C39.1282 15.8257 39.3919 15.7294 39.6148 15.5675C39.8377 15.4055 40.0109 15.1845 40.1147 14.9293C40.2185 14.6741 40.2488 14.3949 40.2023 14.1234L39.809 11.8295L41.4757 10.205C41.673 10.0127 41.8125 9.76901 41.8785 9.50151C41.9446 9.234 41.9344 8.95337 41.8493 8.69132C41.7641 8.42928 41.6074 8.19629 41.3967 8.01871C41.186 7.84112 40.9299 7.72602 40.6572 7.68642L40.6571 7.68656ZM38.0981 10.5514C37.9267 10.7185 37.7985 10.9247 37.7246 11.1524C37.6506 11.3801 37.6332 11.6223 37.6737 11.8582L37.9066 13.2161L36.6872 12.575C36.4753 12.4635 36.2394 12.4053 36 12.4053C35.7606 12.4053 35.5247 12.4635 35.3128 12.575L34.0935 13.2162L34.3263 11.8583C34.3668 11.6224 34.3494 11.3801 34.2754 11.1524C34.2014 10.9247 34.0732 10.7183 33.9017 10.5512L32.915 9.5895L34.2786 9.3915C34.5155 9.3571 34.7405 9.2656 34.9342 9.12488C35.1278 8.98416 35.2844 8.79844 35.3903 8.58375L36 7.34822L36.6096 8.58347C36.7155 8.79825 36.8721 8.98404 37.0658 9.12481C37.2595 9.26559 37.4845 9.35712 37.7215 9.3915L39.0849 9.5895L38.0981 10.5514ZM25.7355 7.68656L23.4325 7.35187L22.4025 5.26486C22.2806 5.01782 22.0919 4.80982 21.8579 4.66438C21.6239 4.51895 21.3539 4.44187 21.0784 4.44187C20.8029 4.44187 20.5329 4.51895 20.2989 4.66438C20.0649 4.80982 19.8763 5.01782 19.7543 5.26486L18.7242 7.35173L16.4212 7.68642C16.1485 7.72604 15.8924 7.84116 15.6818 8.01875C15.4711 8.19635 15.3144 8.42934 15.2292 8.69138C15.1441 8.95341 15.134 9.23405 15.2 9.50154C15.266 9.76903 15.4056 10.0127 15.6029 10.205L17.2693 11.8295L16.8761 14.1231C16.8287 14.3948 16.8585 14.6744 16.9621 14.9301C17.0656 15.1857 17.2388 15.4072 17.462 15.5693C17.6851 15.7315 17.9492 15.8278 18.2244 15.8473C18.4995 15.8668 18.7746 15.8088 19.0184 15.6798L21.0784 14.597L23.1383 15.6798C23.3822 15.808 23.657 15.8654 23.9318 15.8455C24.2065 15.8256 24.4703 15.7293 24.6931 15.5674C24.916 15.4054 25.0891 15.1844 25.1929 14.9292C25.2967 14.674 25.3271 14.3949 25.2806 14.1234L24.8872 11.8297L26.5541 10.205C26.7514 10.0127 26.8909 9.76899 26.957 9.50147C27.023 9.23396 27.0128 8.95332 26.9277 8.69127C26.8425 8.42923 26.6857 8.19624 26.475 8.01866C26.2643 7.84108 26.0082 7.72614 25.7355 7.68656ZM23.1764 10.5514C23.005 10.7185 22.8768 10.9247 22.8029 11.1524C22.7289 11.3801 22.7115 11.6223 22.752 11.8582L22.9847 13.2161L21.7655 12.575C21.5536 12.4635 21.3178 12.4053 21.0784 12.4053C20.8389 12.4053 20.6031 12.4635 20.3912 12.575L19.1717 13.2162L19.4044 11.8583C19.445 11.6224 19.4275 11.3801 19.3536 11.1524C19.2797 10.9247 19.1515 10.7184 18.98 10.5512L17.9934 9.5895L19.3567 9.3915C19.5937 9.35712 19.8187 9.26563 20.0124 9.12491C20.2061 8.98419 20.3626 8.79846 20.4685 8.58375L21.0783 7.34822L21.6882 8.58431C21.7942 8.79887 21.9508 8.98445 22.1444 9.12506C22.3381 9.26568 22.563 9.35711 22.7998 9.3915L24.1632 9.58964L23.1764 10.5514ZM52.3828 65.6719H61.2422C61.8573 65.6711 62.4471 65.4264 62.8821 64.9914C63.3171 64.5565 63.5618 63.9667 63.5625 63.3516V53.6484C63.5618 53.0333 63.3171 52.4435 62.8821 52.0086C62.4471 51.5736 61.8573 51.3289 61.2422 51.3281H52.3828C51.7677 51.3289 51.1779 51.5736 50.7429 52.0086C50.3079 52.4435 50.0632 53.0333 50.0625 53.6484V63.3516C50.0632 63.9667 50.3079 64.5565 50.7429 64.9914C51.1779 65.4264 51.7677 65.6711 52.3828 65.6719ZM57.8672 53.4375H61.2422C61.2981 53.4376 61.3517 53.4598 61.3913 53.4994C61.4308 53.5389 61.453 53.5925 61.4531 53.6484V57.4453H57.8672V53.4375ZM57.8672 59.5547H61.4531V63.3516C61.453 63.4075 61.4308 63.4611 61.3913 63.5006C61.3517 63.5402 61.2981 63.5624 61.2422 63.5625H57.8672V59.5547ZM52.1719 53.6484C52.172 53.5925 52.1942 53.5389 52.2337 53.4994C52.2733 53.4598 52.3269 53.4376 52.3828 53.4375H55.7578V57.4453H52.1719V53.6484ZM52.1719 59.5547H55.7578V63.5625H52.3828C52.3269 63.5624 52.2733 63.5402 52.2337 63.5006C52.1942 63.4611 52.172 63.4075 52.1719 63.3516V59.5547ZM69.9609 28.5469C70.5015 28.5462 71.0198 28.3312 71.4021 27.9489C71.7843 27.5667 71.9994 27.0484 72 26.5078V24.2578C71.9994 23.7172 71.7843 23.1989 71.4021 22.8167C71.0198 22.4344 70.5015 22.2194 69.9609 22.2188H56.996V20.1094H58.4297C59.2686 20.1084 60.0728 19.7747 60.666 19.1816C61.2591 18.5884 61.5928 17.7842 61.5938 16.9453V3.16406C61.5928 2.3252 61.2591 1.52097 60.666 0.927801C60.0728 0.334634 59.2686 0.000967678 58.4297 0L13.5703 0C12.7314 0.000967678 11.9272 0.334634 11.3341 0.927801C10.7409 1.52097 10.4072 2.3252 10.4062 3.16406V16.9453C10.4072 17.7842 10.7409 18.5884 11.3341 19.1816C11.9272 19.7747 12.7314 20.1084 13.5703 20.1094H15.004V22.2188H2.03906C1.49846 22.2194 0.980188 22.4344 0.597926 22.8167C0.215665 23.1989 0.000632693 23.7172 0 24.2578L0 26.5078C0.000632693 27.0484 0.215665 27.5667 0.597926 27.9489C0.980188 28.3312 1.49846 28.5462 2.03906 28.5469H2.10938V69.8906H1.05469C0.774967 69.8906 0.506703 70.0017 0.308911 70.1995C0.111119 70.3973 0 70.6656 0 70.9453C0 71.225 0.111119 71.4933 0.308911 71.6911C0.506703 71.8889 0.774967 72 1.05469 72H70.9453C71.225 72 71.4933 71.8889 71.6911 71.6911C71.8889 71.4933 72 71.225 72 70.9453C72 70.6656 71.8889 70.3973 71.6911 70.1995C71.4933 70.0017 71.225 69.8906 70.9453 69.8906H69.8906V28.5469H69.9609ZM13.5703 18C13.2907 17.9997 13.0226 17.8885 12.8249 17.6908C12.6271 17.493 12.5159 17.2249 12.5156 16.9453V3.16406C12.5159 2.88443 12.6271 2.61634 12.8249 2.41861C13.0226 2.22089 13.2907 2.10967 13.5703 2.10938H58.4297C58.7093 2.10967 58.9774 2.22089 59.1751 2.41861C59.3729 2.61634 59.4841 2.88443 59.4844 3.16406V16.9453C59.4841 17.2249 59.3729 17.493 59.1751 17.6908C58.9774 17.8885 58.7093 17.9997 58.4297 18H13.5703ZM54.8866 20.1094V22.2188H52.3554V20.1094H54.8866ZM50.246 20.1094V22.2188H21.754V20.1094H50.246ZM19.6446 20.1094V22.2188H17.1134V20.1094H19.6446ZM42.5391 69.8906H29.4609V54.4922C29.4612 54.2126 29.5724 53.9445 29.7702 53.7467C29.9679 53.549 30.236 53.4378 30.5156 53.4375H41.4844C41.764 53.4378 42.0321 53.549 42.2298 53.7467C42.4276 53.9445 42.5388 54.2126 42.5391 54.4922V69.8906ZM67.7812 69.8906H44.6484V54.4922C44.6475 53.6533 44.3138 52.8491 43.7206 52.2559C43.1275 51.6628 42.3232 51.3291 41.4844 51.3281H30.5156C29.6768 51.3291 28.8725 51.6628 28.2794 52.2559C27.6862 52.8491 27.3525 53.6533 27.3516 54.4922V69.8906H4.21875V28.5469H67.7812V69.8906ZM2.10938 26.4375V24.3281H69.8906V26.4375H2.10938ZM31.5703 47.1094H40.4297C41.0448 47.1086 41.6346 46.8639 42.0696 46.4289C42.5046 45.994 42.7493 45.4042 42.75 44.7891V35.0859C42.7493 34.4708 42.5046 33.881 42.0696 33.446C41.6346 33.011 41.0449 32.7663 40.4297 32.7656H31.5703C30.9551 32.7663 30.3654 33.011 29.9304 33.446C29.4954 33.881 29.2507 34.4708 29.25 35.0859V44.7891C29.2507 45.4042 29.4954 45.994 29.9304 46.4289C30.3654 46.8639 30.9552 47.1086 31.5703 47.1094ZM37.0547 34.875H40.4297C40.4856 34.8751 40.5392 34.8973 40.5788 34.9369C40.6183 34.9764 40.6405 35.03 40.6406 35.0859V38.8828H37.0547V34.875ZM37.0547 40.9922H40.6406V44.7891C40.6405 44.845 40.6183 44.8986 40.5788 44.9381C40.5392 44.9777 40.4856 44.9999 40.4297 45H37.0547V40.9922ZM31.3594 35.0859C31.3594 35.03 31.3817 34.9764 31.4212 34.9369C31.4608 34.8973 31.5144 34.8751 31.5703 34.875H34.9453V38.8828H31.3594V35.0859ZM31.3594 40.9922H34.9453V45H31.5703C31.5144 44.9999 31.4608 44.9777 31.4212 44.9381C31.3817 44.8986 31.3594 44.845 31.3594 44.7891V40.9922ZM10.7578 47.1094H19.6172C20.2323 47.1086 20.8221 46.8639 21.2571 46.4289C21.6921 45.994 21.9368 45.4042 21.9375 44.7891V35.0859C21.9368 34.4708 21.6921 33.881 21.2571 33.446C20.8221 33.011 20.2324 32.7663 19.6172 32.7656H10.7578C10.1426 32.7663 9.55287 33.011 9.11789 33.446C8.6829 33.881 8.43821 34.4708 8.4375 35.0859V44.7891C8.43824 45.4042 8.68294 45.994 9.11793 46.4289C9.55291 46.8639 10.1427 47.1086 10.7578 47.1094ZM16.2422 34.875H19.6172C19.6731 34.8751 19.7267 34.8973 19.7663 34.9369C19.8058 34.9764 19.8281 35.03 19.8281 35.0859V38.8828H16.2422V34.875ZM16.2422 40.9922H19.8281V44.7891C19.8281 44.845 19.8058 44.8986 19.7663 44.9381C19.7267 44.9777 19.6731 44.9999 19.6172 45H16.2422V40.9922ZM10.5469 35.0859C10.5469 35.03 10.5692 34.9764 10.6087 34.9369C10.6483 34.8973 10.7019 34.8751 10.7578 34.875H14.1328V38.8828H10.5469V35.0859ZM10.5469 40.9922H14.1328V45H10.7578C10.7019 44.9999 10.6483 44.9777 10.6087 44.9381C10.5692 44.8986 10.5469 44.845 10.5469 44.7891V40.9922ZM52.3828 47.1094H61.2422C61.8573 47.1086 62.4471 46.8639 62.8821 46.4289C63.3171 45.994 63.5618 45.4042 63.5625 44.7891V35.0859C63.5618 34.4708 63.3171 33.881 62.8821 33.446C62.4471 33.011 61.8574 32.7663 61.2422 32.7656H52.3828C51.7676 32.7663 51.1779 33.011 50.7429 33.446C50.3079 33.881 50.0632 34.4708 50.0625 35.0859V44.7891C50.0632 45.4042 50.3079 45.994 50.7429 46.4289C51.1779 46.8639 51.7677 47.1086 52.3828 47.1094ZM57.8672 34.875H61.2422C61.2981 34.8751 61.3517 34.8973 61.3913 34.9369C61.4308 34.9764 61.453 35.03 61.4531 35.0859V38.8828H57.8672V34.875ZM57.8672 40.9922H61.4531V44.7891C61.453 44.845 61.4308 44.8986 61.3913 44.9381C61.3517 44.9777 61.2981 44.9999 61.2422 45H57.8672V40.9922ZM52.1719 35.0859C52.172 35.03 52.1942 34.9764 52.2337 34.9369C52.2733 34.8973 52.3269 34.8751 52.3828 34.875H55.7578V38.8828H52.1719V35.0859ZM52.1719 40.9922H55.7578V45H52.3828C52.3269 44.9999 52.2733 44.9777 52.2337 44.9381C52.1942 44.8986 52.172 44.845 52.1719 44.7891V40.9922ZM10.7578 65.6719H19.6172C20.2323 65.6711 20.8221 65.4264 21.2571 64.9914C21.6921 64.5565 21.9368 63.9667 21.9375 63.3516V53.6484C21.9368 53.0333 21.6921 52.4435 21.2571 52.0086C20.8221 51.5736 20.2323 51.3289 19.6172 51.3281H10.7578C10.1427 51.3289 9.55291 51.5736 9.11793 52.0086C8.68294 52.4435 8.43824 53.0333 8.4375 53.6484V63.3516C8.43824 63.9667 8.68294 64.5565 9.11793 64.9914C9.55291 65.4264 10.1427 65.6711 10.7578 65.6719ZM16.2422 53.4375H19.6172C19.6731 53.4376 19.7267 53.4598 19.7663 53.4994C19.8058 53.5389 19.8281 53.5925 19.8281 53.6484V57.4453H16.2422V53.4375ZM16.2422 59.5547H19.8281V63.3516C19.8281 63.4075 19.8058 63.4611 19.7663 63.5006C19.7267 63.5402 19.6731 63.5624 19.6172 63.5625H16.2422V59.5547ZM10.5469 53.6484C10.5469 53.5925 10.5692 53.5389 10.6087 53.4994C10.6483 53.4598 10.7019 53.4376 10.7578 53.4375H14.1328V57.4453H10.5469V53.6484ZM10.5469 59.5547H14.1328V63.5625H10.7578C10.7019 63.5624 10.6483 63.5402 10.6087 63.5006C10.5692 63.4611 10.5469 63.4075 10.5469 63.3516V59.5547ZM55.5787 7.75688L53.2756 7.42219L52.2457 5.33517C52.1237 5.08813 51.9351 4.88013 51.7011 4.7347C51.4671 4.58926 51.1971 4.51219 50.9216 4.51219C50.6461 4.51219 50.3761 4.58926 50.1421 4.7347C49.9081 4.88013 49.7194 5.08813 49.5975 5.33517L48.5675 7.42205L46.2645 7.75673C45.9918 7.79633 45.7357 7.91143 45.525 8.08902C45.3144 8.26661 45.1576 8.4996 45.0724 8.76164C44.9873 9.02368 44.9771 9.30432 45.0432 9.57182C45.1092 9.83932 45.2488 10.083 45.4461 10.2753L47.1126 11.9L46.7193 14.1936C46.6719 14.4653 46.7017 14.7449 46.8052 15.0006C46.9088 15.2562 47.082 15.4777 47.3051 15.6399C47.5283 15.802 47.7925 15.8983 48.0676 15.9179C48.3428 15.9374 48.6179 15.8793 48.8617 15.7503L50.9216 14.6672L52.9816 15.7501C53.2254 15.8783 53.5003 15.9357 53.7751 15.9158C54.0498 15.8959 54.3135 15.7996 54.5364 15.6377C54.7593 15.4757 54.9324 15.2547 55.0362 14.9995C55.14 14.7444 55.1704 14.4652 55.1239 14.1937L54.7305 11.8998L56.397 10.2755C56.5943 10.0832 56.7338 9.83948 56.7999 9.57199C56.8659 9.3045 56.8558 9.02387 56.7706 8.76183C56.6855 8.49979 56.5287 8.2668 56.3181 8.08921C56.1074 7.91161 55.8513 7.79649 55.5787 7.75688ZM53.0198 10.6217C52.8485 10.7888 52.7203 10.9951 52.6464 11.2227C52.5725 11.4504 52.555 11.6926 52.5956 11.9285L52.8283 13.2864L51.6088 12.6453C51.3969 12.5339 51.1611 12.4757 50.9217 12.4757C50.6823 12.4757 50.4465 12.5339 50.2346 12.6453L49.0153 13.2865L49.248 11.9287C49.2885 11.6927 49.271 11.4504 49.197 11.2227C49.123 10.995 48.9948 10.7887 48.8233 10.6215L47.8368 9.65995L49.2005 9.46167C49.4373 9.42719 49.6622 9.33566 49.8558 9.19498C50.0495 9.05429 50.206 8.86866 50.312 8.65406L50.9217 7.41853L51.5313 8.65378C51.6372 8.86856 51.7938 9.05435 51.9875 9.19513C52.1812 9.3359 52.4063 9.42743 52.6432 9.46181L54.0066 9.65981L53.0198 10.6217Z" fill="#090909"/>
</g>
<defs>
<clipPath id="clip0_59_341">
<rect width="72" height="72" fill="white"/>
</clipPath>
</defs>
</svg>
