<svg width="72" height="72" viewBox="0 0 72 72" fill="none" xmlns="http://www.w3.org/2000/svg">
<g clip-path="url(#clip0_164_1235)">
<path d="M52.0725 0.130859C52.5403 0.130859 53.008 0.130859 53.4758 0.130859C55.2534 0.654768 56.3012 1.79614 56.4509 3.68595C57.1993 3.74209 57.929 3.70466 58.6213 3.85435C60.9415 4.34084 62.4197 6.28678 62.4197 8.81277C62.4197 18.3554 62.4197 27.8793 62.401 37.4219C62.401 37.9645 62.5507 38.2452 63.0184 38.5259C67.1723 40.977 69.9415 44.5134 71.27 49.1537C71.5881 50.239 71.7378 51.3803 71.981 52.4843C71.981 53.5134 71.981 54.5425 71.981 55.5716C71.9436 55.7213 71.8875 55.8897 71.8688 56.0394C70.7461 63.6173 66.5735 68.688 59.3137 71.1579C58.1162 71.5695 56.8251 71.7192 55.5715 71.9812C54.5423 71.9812 53.5132 71.9812 52.4841 71.9812C52.297 71.9437 52.1286 71.8876 51.9415 71.8502C50.6505 71.5508 49.3033 71.3824 48.0683 70.9333C43.3719 69.2681 39.9478 66.1433 37.796 61.6527C37.6276 61.3159 37.4592 61.1475 37.0663 61.1849C36.4301 61.2223 35.8126 61.2036 35.1764 61.2036C25.166 61.2036 15.1557 61.2036 5.16397 61.2036C2.6754 61.2036 0.953988 59.8938 0.280391 57.4988C0.26168 57.4053 0.205547 57.3492 0.149414 57.2556C0.149414 40.7338 0.149414 24.2307 0.149414 7.70882C0.242969 7.46558 0.317813 7.24105 0.411368 6.9978C1.02883 5.14541 2.69411 3.79822 4.64006 3.77951C5.65045 3.7608 6.21178 3.62982 6.43632 2.45103C6.66085 1.17868 7.82093 0.579924 8.98102 0.14957C9.44879 0.14957 9.91657 0.14957 10.3843 0.14957C12.1432 0.69219 13.191 1.83356 13.3407 3.72337C15.7357 3.72337 18.0746 3.72337 20.4134 3.72337C20.8999 1.53419 21.3677 0.991566 23.4259 0.14957C23.8937 0.14957 24.3615 0.14957 24.8292 0.14957C25.1848 0.31797 25.559 0.448947 25.8958 0.654768C27.0559 1.32836 27.5798 2.39489 27.7107 3.7608C29.638 3.7608 31.5278 3.7608 33.4176 3.7608C33.8667 3.7608 34.3719 3.87306 34.7087 3.66724C34.9519 3.51755 34.9332 2.95622 35.0642 2.582C35.4945 1.25352 36.5236 0.579924 37.7398 0.14957C38.2076 0.14957 38.6754 0.14957 39.1432 0.14957C40.4529 0.579924 41.4633 1.32836 41.8937 2.71298C41.9873 3.04978 42.0434 3.38658 42.1182 3.70466C44.5132 3.70466 46.8708 3.70466 49.2284 3.70466C49.3033 2.71298 49.5839 1.83356 50.3137 1.23481C50.8189 0.767034 51.4737 0.486369 52.0725 0.130859ZM59.9873 14.5571C40.7897 14.5571 21.6671 14.5571 2.52571 14.5571C2.52571 14.8751 2.52571 15.1371 2.52571 15.3803C2.52571 28.8897 2.52571 42.4178 2.52571 55.9271C2.52571 57.9105 3.40513 58.7899 5.3885 58.7899C15.5673 58.7899 25.7274 58.7899 35.9062 58.7899C36.1494 58.7899 36.4114 58.7899 36.6172 58.7899C36.3927 57.162 36.1681 55.5903 35.9436 53.9999C35.6442 53.9999 35.3448 53.9999 35.0455 53.9999C33.5112 53.9812 32.5008 53.0643 32.4821 51.5487C32.4446 49.977 32.4446 48.4053 32.4821 46.8523C32.5195 45.3928 33.4925 44.4573 34.9519 44.4386C36.0746 44.4198 37.1972 44.4573 38.3199 44.4198C38.6006 44.4011 38.9935 44.214 39.1432 43.9895C40.4904 42.0623 42.0995 40.4344 44.0455 39.1433C44.3823 38.9188 44.4758 38.6756 44.4758 38.2826C44.4571 36.8045 44.4571 35.345 44.4758 33.8668C44.4945 32.239 45.4301 31.2847 47.0392 31.2847C48.5361 31.2847 50.033 31.266 51.5299 31.2847C53.0455 31.3034 54.0184 32.2764 54.0371 33.792C54.0559 34.5404 54.0371 35.2702 54.0371 35.8876C56.0954 36.2431 58.0413 36.5986 60.006 36.9354C59.9873 29.5072 59.9873 22.0602 59.9873 14.5571ZM69.6047 54.0186C69.6234 45.5799 62.6629 38.4884 54.3178 38.451C45.4301 38.4136 38.4883 45.2993 38.4696 54.1683C38.4509 62.5695 45.5049 69.5862 53.9623 69.6049C62.5881 69.6049 69.586 62.6444 69.6047 54.0186ZM2.54442 12.0498C21.7419 12.0498 40.8459 12.0498 59.9873 12.0498C59.9873 10.7213 60.0621 9.43023 59.9685 8.15789C59.8937 7.11007 59.0517 6.3055 58.0787 6.17452C57.5548 6.09967 57.0122 6.15581 56.4883 6.15581C56.0392 8.45726 54.7856 9.67348 52.8771 9.69219C50.9311 9.7109 49.6401 8.49468 49.191 6.17452C46.8521 6.17452 44.4945 6.17452 42.1557 6.17452C41.4633 8.56953 40.4904 9.61735 38.8064 9.67348C36.3927 9.76703 35.1952 8.40113 34.8209 6.19323C32.4072 6.19323 30.0683 6.19323 27.7295 6.19323C27.4114 8.23273 26.1952 9.5425 24.4924 9.69219C23.6317 9.76703 22.8272 9.59863 22.0974 9.11215C21.0683 8.41984 20.6006 7.37202 20.4696 6.17452C18.0746 6.17452 15.7357 6.17452 13.4155 6.17452C12.7606 8.56953 11.6941 9.69219 9.91657 9.67348C9.16813 9.65477 8.34484 9.41152 7.68995 9.0373C6.62343 8.43855 6.23049 7.35331 6.09952 6.15581C5.61303 6.15581 5.20139 6.1371 4.78975 6.15581C3.59224 6.21194 2.61927 7.11007 2.56314 8.28886C2.48829 9.52379 2.54442 10.7587 2.54442 12.0498ZM51.6234 33.7171C50.0143 33.7171 48.4613 33.7171 46.8895 33.7171C46.8895 34.9895 46.8895 36.2057 46.8895 37.4406C48.48 37.0103 50.033 36.5799 51.6234 36.1496C51.6234 35.3637 51.6234 34.5778 51.6234 33.7171ZM25.2783 4.9583C25.2783 4.54666 25.297 4.11631 25.2783 3.70466C25.2409 3.03107 24.7544 2.54458 24.1182 2.54458C23.5195 2.54458 22.9581 2.97493 22.9207 3.61111C22.8646 4.49053 22.8646 5.38866 22.9207 6.26807C22.9581 6.92296 23.5382 7.35331 24.1931 7.31589C24.8105 7.27847 25.2409 6.8294 25.2783 6.15581C25.297 5.76288 25.2783 5.35123 25.2783 4.9583ZM8.53195 4.90217C8.53195 5.31381 8.51324 5.74416 8.53195 6.15581C8.56937 6.8294 8.99973 7.25976 9.61719 7.29718C10.2347 7.3346 10.8147 6.94167 10.8521 6.32421C10.927 5.38866 10.927 4.4531 10.8521 3.53626C10.8147 2.9188 10.1972 2.50716 9.59848 2.54458C8.99973 2.60071 8.55066 3.04978 8.51324 3.70466C8.51324 4.09759 8.53195 4.49053 8.53195 4.90217ZM51.6421 4.90217C51.6421 5.2951 51.6421 5.68803 51.6421 6.09967C51.6421 6.1371 51.6421 6.19323 51.6421 6.23065C51.717 6.86683 52.1848 7.29718 52.8022 7.31589C53.4197 7.31589 53.9623 6.90425 53.9997 6.26807C54.0559 5.38866 54.0559 4.49053 53.9997 3.61111C53.9623 2.99364 53.401 2.54458 52.8022 2.54458C52.2035 2.56329 51.6983 3.01236 51.6421 3.64853C51.6234 4.06017 51.6421 4.47182 51.6421 4.90217ZM39.6484 4.92088C39.6484 4.50924 39.6858 4.07888 39.6484 3.66724C39.5735 2.97493 39.0683 2.52587 38.4322 2.54458C37.796 2.56329 37.3095 3.01236 37.2908 3.72337C37.2534 4.54666 37.2534 5.35123 37.2908 6.17452C37.3282 6.88554 37.796 7.31589 38.4509 7.31589C39.087 7.31589 39.5735 6.88554 39.6484 6.19323C39.6858 5.76288 39.6484 5.33252 39.6484 4.92088ZM34.9145 46.871C34.9145 48.4801 34.9145 50.0331 34.9145 51.6049C35.3636 51.6049 35.7752 51.6049 36.1494 51.6049C36.5798 50.0144 37.0101 48.4614 37.4405 46.871C36.6172 46.871 35.7939 46.871 34.9145 46.871Z" fill="#3BB64B"/>
<path d="M30.0687 22.8648C30.0687 23.6881 30.0874 24.4926 30.0687 25.3159C30.0313 26.6818 29.0583 27.6361 27.6924 27.6548C26.0833 27.6735 24.4741 27.6735 22.865 27.6548C21.5552 27.6361 20.5448 26.6631 20.5261 25.3533C20.4887 23.7255 20.4887 22.0789 20.5261 20.4511C20.5448 19.1039 21.5739 18.1309 22.9024 18.1122C24.5116 18.0935 26.1207 18.0935 27.7299 18.1122C29.0583 18.1309 30.0126 19.1039 30.0687 20.4136C30.0874 21.2369 30.0687 22.0602 30.0687 22.8648ZM27.655 20.5446C26.0459 20.5446 24.4928 20.5446 22.9398 20.5446C22.9398 22.135 22.9398 23.6881 22.9398 25.2224C24.549 25.2224 26.102 25.2224 27.655 25.2224C27.655 23.6319 27.655 22.1163 27.655 20.5446Z" fill="black"/>
<path d="M30.0685 36.0376C30.0685 36.8235 30.0872 37.6281 30.0685 38.4139C30.0311 39.8547 29.0768 40.8277 27.6361 40.8464C26.0644 40.8651 24.5114 40.8651 22.9396 40.8464C21.5176 40.8277 20.5259 39.836 20.5072 38.4139C20.4885 36.8422 20.4885 35.2892 20.5072 33.7175C20.5259 32.2954 21.5363 31.3037 22.9583 31.285C24.5301 31.2663 26.0831 31.2663 27.6548 31.285C29.0581 31.3037 30.0311 32.258 30.0685 33.6426C30.0872 34.4472 30.0685 35.2331 30.0685 36.0376ZM27.6361 38.4326C27.6361 36.8235 27.6361 35.2892 27.6361 33.7362C26.0457 33.7362 24.4926 33.7362 22.9396 33.7362C22.9396 35.3266 22.9396 36.8796 22.9396 38.4326C24.5301 38.4326 26.0644 38.4326 27.6361 38.4326Z" fill="black"/>
<path d="M13.3975 44.4575C14.1646 44.4575 14.9318 44.4388 15.7176 44.4575C17.1022 44.495 18.0752 45.4679 18.0939 46.8713C18.1126 48.443 18.1126 49.996 18.0939 51.5677C18.0752 52.9898 17.0835 54.0002 15.6802 54.0189C14.0898 54.0376 12.4993 54.0376 10.9089 54.0189C9.56169 54.0002 8.57001 53.0085 8.53259 51.6613C8.51388 50.0521 8.51388 48.443 8.53259 46.8338C8.5513 45.4305 9.52427 44.495 10.9463 44.4575C11.7696 44.4388 12.5929 44.4575 13.3975 44.4575ZM10.965 51.5864C12.5742 51.5864 14.1272 51.5864 15.6802 51.5864C15.6802 49.996 15.6802 48.4617 15.6802 46.89C14.0898 46.89 12.5555 46.89 10.965 46.89C10.965 48.4617 10.965 49.996 10.965 51.5864Z" fill="black"/>
<path d="M25.3163 44.4575C26.1396 44.4575 26.9441 44.4388 27.7674 44.4575C29.0585 44.495 30.0315 45.4492 30.0502 46.7403C30.0876 48.4056 30.0876 50.0521 30.0502 51.7174C30.0315 53.0272 29.0398 54.0002 27.7113 54.0189C26.1022 54.0376 24.493 54.0376 22.8839 54.0189C21.5367 54.0002 20.5263 53.0085 20.5076 51.6613C20.4701 50.0521 20.4701 48.443 20.5076 46.8338C20.5263 45.4866 21.518 44.5137 22.8651 44.4762C23.6697 44.4388 24.493 44.4575 25.3163 44.4575ZM27.6365 46.9087C26.0086 46.9087 24.4556 46.9087 22.9213 46.9087C22.9213 48.4991 22.9213 50.0334 22.9213 51.5864C24.5117 51.5864 26.0647 51.5864 27.6365 51.5864C27.6365 50.0147 27.6365 48.4804 27.6365 46.9087Z" fill="black"/>
<path d="M13.2665 27.6738C12.4993 27.6738 11.7322 27.6926 10.9463 27.6738C9.54298 27.6364 8.5513 26.7009 8.53259 25.2975C8.51388 23.6884 8.51388 22.0792 8.53259 20.4701C8.5513 19.1229 9.54298 18.1499 10.9089 18.1312C12.4993 18.1125 14.0898 18.1125 15.6802 18.1312C17.0648 18.1499 18.0752 19.1416 18.0939 20.5075C18.1126 22.098 18.1126 23.6884 18.0939 25.2788C18.0752 26.6634 17.1022 27.6551 15.7176 27.6926C14.8943 27.6926 14.0711 27.6738 13.2665 27.6738ZM10.965 20.5262C10.965 22.1354 10.965 23.6697 10.965 25.2414C12.5555 25.2414 14.1085 25.2414 15.6615 25.2414C15.6615 23.651 15.6615 22.098 15.6615 20.5262C14.071 20.5262 12.5367 20.5262 10.965 20.5262Z" fill="black"/>
<path d="M37.2541 27.6737C36.4683 27.6737 35.6637 27.6924 34.8778 27.6737C33.5306 27.6362 32.5389 26.7568 32.5015 25.4096C32.4454 23.7256 32.4267 22.0416 32.5015 20.3577C32.5576 18.9918 33.5868 18.1123 34.9714 18.0936C36.5057 18.0749 38.0587 18.0749 39.593 18.0936C40.9963 18.1123 42.0067 19.0292 42.0628 20.4325C42.119 22.0604 42.119 23.7069 42.0628 25.3348C42.0067 26.7381 41.015 27.6362 39.593 27.655C38.8071 27.6737 38.0213 27.6737 37.2541 27.6737ZM39.6304 20.5261C38.0026 20.5261 36.487 20.5261 34.9152 20.5261C34.9152 22.1165 34.9152 23.6695 34.9152 25.2225C36.5057 25.2225 38.0587 25.2225 39.6304 25.2225C39.6304 23.6321 39.6304 22.1165 39.6304 20.5261Z" fill="black"/>
<path d="M49.1913 27.6735C48.4241 27.6735 47.657 27.6922 46.8711 27.6735C45.4678 27.6361 44.4761 26.7005 44.4574 25.2972C44.4387 23.6881 44.4387 22.0789 44.4574 20.4698C44.4761 19.1226 45.4678 18.1496 46.8337 18.1122C48.4241 18.0935 50.0146 18.0935 51.605 18.1122C53.027 18.1309 54.0187 19.1413 54.0187 20.5633C54.0374 22.135 54.0374 23.6881 54.0187 25.2598C54 26.6444 53.027 27.6361 51.6424 27.6735C50.8191 27.6922 50.0146 27.6735 49.1913 27.6735ZM46.9085 20.5259C46.9085 22.1163 46.9085 23.6694 46.9085 25.2224C48.499 25.2224 50.052 25.2224 51.605 25.2224C51.605 23.6319 51.605 22.0976 51.605 20.5259C50.0333 20.5259 48.499 20.5259 46.9085 20.5259Z" fill="black"/>
<path d="M8.53273 36.0375C8.53273 35.2516 8.51402 34.447 8.53273 33.6612C8.57015 32.2953 9.52441 31.3223 10.8903 31.3036C12.4995 31.2849 14.1086 31.2849 15.7178 31.3036C17.065 31.3223 18.0566 32.314 18.0941 33.6612C18.1128 35.2703 18.1128 36.8795 18.0941 38.4886C18.0753 39.8358 17.065 40.8275 15.7365 40.8462C14.1273 40.8649 12.5182 40.8649 10.909 40.8462C9.56184 40.8275 8.58886 39.8545 8.55144 38.4886C8.51402 37.6653 8.53273 36.8608 8.53273 36.0375ZM15.6803 33.7173C14.0712 33.7173 12.5182 33.7173 10.9839 33.7173C10.9839 35.3077 10.9839 36.8608 10.9839 38.4138C12.5743 38.4138 14.1086 38.4138 15.6803 38.4138C15.6803 36.842 15.6803 35.3077 15.6803 33.7173Z" fill="black"/>
<path d="M37.2728 40.8464C36.4869 40.8464 35.6823 40.8651 34.8965 40.8464C33.568 40.8277 32.5576 39.9482 32.5014 38.601C32.4266 36.917 32.4266 35.2331 32.5014 33.5491C32.5576 32.1832 33.568 31.285 34.9526 31.285C36.4869 31.2663 38.0399 31.2663 39.5742 31.285C41.015 31.3037 42.0254 32.2206 42.0628 33.6613C42.1002 35.2518 42.1002 36.8422 42.0628 38.4326C42.0254 39.9108 41.015 40.8277 39.5368 40.8464C38.7696 40.8464 38.0212 40.8464 37.2728 40.8464ZM39.6116 38.4326C39.6116 36.8235 39.6116 35.2705 39.6116 33.7175C38.0212 33.7175 36.4869 33.7175 34.9152 33.7175C34.9152 35.3079 34.9152 36.8609 34.9152 38.4326C36.4869 38.4326 38.0212 38.4326 39.6116 38.4326Z" fill="black"/>
<path d="M50.2956 58.285C51.7737 56.4326 53.1771 54.6738 54.5804 52.9337C56.0398 51.1 57.4993 49.285 58.9588 47.4513C59.3704 46.9461 59.8569 46.7029 60.4931 46.9461C61.2976 47.2642 61.4473 48.1624 60.8299 48.9295C59.5762 50.5199 58.2852 52.1104 57.0128 53.7008C55.1978 55.9649 53.4016 58.2289 51.5866 60.4929C50.8382 61.4285 50.202 61.4659 49.36 60.6239C48.6864 59.9503 47.9941 59.2767 47.3205 58.5844C46.7405 57.9856 46.703 57.2933 47.2082 56.7881C47.7134 56.2642 48.387 56.3017 49.0045 56.9004C49.4348 57.3308 49.8278 57.7798 50.2956 58.285Z" fill="black"/>
</g>
<defs>
<clipPath id="clip0_164_1235">
<rect width="72" height="72" fill="white"/>
</clipPath>
</defs>
</svg>
