<svg width="72" height="72" viewBox="0 0 72 72" fill="none" xmlns="http://www.w3.org/2000/svg">
<path d="M69.1947 32.3976L65.4911 30.0046V17.9295C65.4904 17.3517 65.2606 16.7976 64.8519 16.389C64.4433 15.9803 63.8893 15.7505 63.3114 15.7499H55.577C54.9991 15.7505 54.4451 15.9803 54.0364 16.389C53.6278 16.7976 53.3979 17.3517 53.3973 17.9295V22.1905L45.064 16.8064C46.1011 14.7129 46.7913 12.6295 46.7913 10.7911C46.7913 9.37403 46.5122 7.97079 45.9699 6.66155C45.4276 5.35231 44.6327 4.1627 43.6307 3.16065C42.6286 2.1586 41.439 1.36373 40.1298 0.821427C38.8205 0.279121 37.4173 0 36.0002 0C34.583 0 33.1798 0.279121 31.8706 0.821427C30.5613 1.36373 29.3717 2.1586 28.3697 3.16065C27.3676 4.1627 26.5728 5.35231 26.0304 6.66155C25.4881 7.97079 25.209 9.37403 25.209 10.7911C25.209 12.6319 25.9009 14.7184 26.9404 16.8145L2.81379 32.4181C2.56514 32.5782 2.36109 32.7986 2.22067 33.0588C2.08026 33.319 2.00806 33.6106 2.01082 33.9062L2.03782 37.7994C2.03998 38.1144 2.12675 38.4231 2.28905 38.693C2.45134 38.963 2.68321 39.1844 2.96039 39.3341C3.23757 39.4838 3.54987 39.5562 3.86464 39.5438C4.1794 39.5315 4.48506 39.4347 4.74963 39.2638L6.88713 37.8825V68.8358C6.8881 69.6747 7.22176 70.4789 7.81493 71.0721C8.4081 71.6652 9.21233 71.9989 10.0512 71.9999H61.949C62.7879 71.9989 63.5921 71.6652 64.1853 71.0721C64.7784 70.4789 65.1121 69.6747 65.1131 68.8358V37.8765L67.2596 39.2635C67.5241 39.4344 67.8297 39.5312 68.1445 39.5436C68.4592 39.5559 68.7715 39.4835 69.0487 39.3339C69.3258 39.1842 69.5577 38.9629 69.72 38.6929C69.8823 38.423 69.9692 38.1144 69.9714 37.7994L69.9986 33.8861C70.0014 33.5903 69.9292 33.2985 69.7886 33.0382C69.648 32.7779 69.4436 32.5575 69.1947 32.3976ZM55.5067 17.9295C55.5067 17.9109 55.5141 17.893 55.5273 17.8798C55.5405 17.8666 55.5583 17.8592 55.577 17.8592H63.3114C63.33 17.8592 63.3479 17.8666 63.3611 17.8798C63.3743 17.893 63.3817 17.9109 63.3817 17.9295V28.6417L55.5067 23.5536V17.9295ZM36.0002 2.10923C38.3019 2.11184 40.5087 3.02738 42.1363 4.65499C43.7639 6.28261 44.6794 8.48937 44.6819 10.7911C44.6819 15.6075 38.3351 23.3236 36.3898 25.5738C36.3415 25.6298 36.2817 25.6747 36.2145 25.7055C36.1473 25.7363 36.0742 25.7523 36.0002 25.7523C35.9263 25.7523 35.8532 25.7363 35.786 25.7055C35.7187 25.6747 35.6589 25.6298 35.6106 25.5738C33.6654 23.3236 27.3184 15.6074 27.3184 10.7911C27.321 8.48937 28.2365 6.28261 29.8641 4.65499C31.4916 3.02738 33.6984 2.11184 36.0002 2.10923ZM4.14269 37.1444L4.1216 34.0844L27.9476 18.6754C28.3815 19.4185 28.8466 20.1538 29.3276 20.8709L4.14269 37.1444ZM29.9498 69.8905H15.3248V47.4217C15.3251 47.1421 15.4363 46.874 15.634 46.6763C15.8317 46.4785 16.0998 46.3673 16.3795 46.367H28.8951C29.1747 46.3673 29.4428 46.4785 29.6405 46.6763C29.8383 46.874 29.9495 47.1421 29.9498 47.4217V69.8905ZM63.0037 68.8358C63.0034 69.1154 62.8922 69.3835 62.6944 69.5812C62.4967 69.779 62.2286 69.8902 61.949 69.8905H32.0591V47.4217C32.0582 46.5828 31.7245 45.7786 31.1313 45.1854C30.5382 44.5923 29.734 44.2586 28.8951 44.2576H16.3795C15.5406 44.2586 14.7364 44.5923 14.1432 45.1854C13.55 45.7786 13.2164 46.5828 13.2154 47.4217V69.8905H10.0513C9.7717 69.8902 9.50361 69.779 9.30589 69.5812C9.10816 69.3835 8.99694 69.1154 8.99665 68.8358V36.5195L30.5393 22.5993C31.7581 24.2678 32.9937 25.7723 34.0148 26.9533C34.2611 27.2384 34.5659 27.4671 34.9085 27.6238C35.2511 27.7806 35.6234 27.8617 36.0002 27.8617C36.3769 27.8617 36.7492 27.7806 37.0918 27.6238C37.4344 27.4671 37.7392 27.2384 37.9855 26.9533C39.0073 25.7714 40.2442 24.2654 41.464 22.5953L63.0037 36.5136V68.8358ZM67.8665 37.1443L42.6756 20.8668C43.1574 20.1485 43.6232 19.4117 44.0577 18.6674L67.888 34.0646L67.8665 37.1443Z" fill="#090909"/>
<path d="M39.9414 56.8584V47.4219C39.9424 46.583 40.276 45.7788 40.8692 45.1856C41.4624 44.5924 42.2666 44.2588 43.1055 44.2578H55.6211C56.46 44.2588 57.2642 44.5924 57.8574 45.1856C58.4505 45.7788 58.7842 46.583 58.7852 47.4219V56.8584C58.7842 57.6972 58.4505 58.5015 57.8574 59.0946C57.2642 59.6878 56.46 60.0215 55.6211 60.0224H43.1055C42.2666 60.0215 41.4624 59.6878 40.8692 59.0946C40.276 58.5015 39.9424 57.6972 39.9414 56.8584Z" fill="#0089ED"/>
<path d="M39.1622 8.75703C39.5801 9.38241 39.8031 10.1177 39.8031 10.8698C39.802 11.8781 39.4009 12.8447 38.688 13.5576C37.975 14.2706 37.0084 14.6716 36.0002 14.6727C35.248 14.6727 34.5128 14.4497 33.8874 14.0318C33.262 13.614 32.7746 13.02 32.4867 12.3251C32.1989 11.6302 32.1236 10.8656 32.2703 10.1279C32.4171 9.39021 32.7793 8.71259 33.3111 8.18075C33.843 7.6489 34.5206 7.2867 35.2583 7.13997C35.996 6.99323 36.7606 7.06854 37.4555 7.35638C38.1504 7.64421 38.7443 8.13164 39.1622 8.75703Z" fill="#0089ED"/>
</svg>
