<svg width="72" height="72" viewBox="0 0 72 72" fill="none" xmlns="http://www.w3.org/2000/svg">
<g clip-path="url(#clip0_206_57)">
<path d="M49.4368 8.65715L49.5642 8.70414L51.7242 9.90587L50.3783 12.3262L48.2959 11.163L48.0688 11.0802L49.1571 8.53512L49.4368 8.65715ZM43.0787 8.99215L43.0344 9.20545H43.0149L42.9485 9.17773L40.4424 8.65715L41.0073 5.94336L43.6048 6.48592L43.7322 6.5329L43.843 6.57448L43.0787 8.99215ZM56.8639 13.7856L56.9664 13.8741L58.4396 15.4166L56.4457 17.3357L54.9725 15.8043H54.9614L54.5848 15.4859L56.3848 13.3786L56.8639 13.7856ZM62.3386 20.6701L62.4051 20.7864L63.33 22.578L60.8709 23.8518L59.9543 22.0851L59.9433 22.0517L59.611 21.5338L61.9343 20.0329L62.3386 20.6701ZM65.6119 28.7784L65.6424 28.9112L66.0079 30.8303L63.294 31.3481L62.9285 29.4761L62.7263 28.7784L65.382 28.0002L65.6119 28.7784ZM9.10292 42.5275L9.2913 43.1671L6.63556 43.9452L6.41956 43.2252L6.38913 43.0924L6.00977 41.1152L8.72635 40.5892L9.10292 42.5275ZM12.0799 49.9157L12.091 49.9492L12.39 50.4143L10.0639 51.9152L9.69281 51.3365L9.62638 51.2202L8.6682 49.3701L11.1328 48.0991L12.0799 49.9157ZM17.0562 56.1938H17.07L17.4023 56.4761L15.6024 58.5807L15.1675 58.2068L15.0679 58.1156L13.5448 56.5288L15.5442 54.6098L17.0562 56.1938ZM30.9743 66.0301L28.435 65.5038L28.3075 65.4568L28.1414 65.396L28.9722 62.7569L29.083 62.8012L31.5448 63.3052L30.9743 66.0301ZM23.7356 60.8209L23.9128 60.8875L22.8162 63.4353L22.6029 63.3244L22.4756 63.2775L20.2629 62.045L21.6088 59.6246L23.7356 60.8209Z" fill="#090909"/>
<path fill-rule="evenodd" clip-rule="evenodd" d="M34.6152 52.6129V71.9976H37.3845V52.6129H34.6152ZM34.6152 -0.00244141V19.3822H37.3845V-0.00244141H34.6152Z" fill="#00ED6D"/>
<path d="M34.383 25.04C32.0073 25.3934 29.8104 26.5081 28.1226 28.2169C26.4347 29.9258 25.3471 32.1364 25.0231 34.5163C24.7058 36.8953 25.1693 39.3127 26.344 41.4056C27.5187 43.4985 29.341 45.1534 31.537 46.1216C33.733 47.0899 36.1841 47.3193 38.5215 46.7751C40.859 46.2308 42.9566 44.9424 44.499 43.1036C44.6206 42.9646 44.7132 42.8029 44.7712 42.6276C44.8293 42.4524 44.8518 42.2671 44.8372 42.083C44.8227 41.899 44.7716 41.7197 44.6867 41.5557C44.6019 41.3917 44.4852 41.2463 44.3434 41.1281C44.2015 41.0099 44.0375 40.9213 43.8609 40.8675C43.6843 40.8136 43.4987 40.7958 43.315 40.8147C43.1314 40.8336 42.9533 40.8889 42.7914 40.9777C42.6295 41.0664 42.487 41.1866 42.3722 41.3312C41.2179 42.7149 39.6443 43.685 37.8896 44.0947C36.1348 44.5044 34.2944 44.3316 32.6467 43.6022C30.9976 42.877 29.6294 41.6344 28.749 40.0626C27.8687 38.4908 27.5241 36.6753 27.7674 34.8902C28.0064 33.1043 28.8205 31.4448 30.0866 30.1627C31.3527 28.8806 33.0018 28.0457 34.7846 27.7843C36.5671 27.5186 38.3877 27.8401 39.9713 28.7003C41.555 29.5606 42.8156 30.9127 43.563 32.5527C43.6356 32.7222 43.7413 32.8758 43.874 33.0039C44.0067 33.1321 44.1637 33.2324 44.3357 33.2991C44.5077 33.3657 44.6912 33.3973 44.8755 33.392C45.0599 33.3867 45.2414 33.3447 45.4093 33.2683C45.5772 33.1919 45.7281 33.0827 45.8532 32.9472C45.9783 32.8116 46.0751 32.6524 46.1379 32.479C46.2006 32.3055 46.2282 32.1213 46.2187 31.9371C46.2093 31.7529 46.1631 31.5725 46.083 31.4064C45.0853 29.2213 43.4052 27.4193 41.2953 26.2712C39.1853 25.1231 36.7596 24.6911 34.383 25.04Z" fill="#00ED6D"/>
<path d="M36.0002 11.0747C22.251 11.0747 11.0771 22.2513 11.0771 35.9978C11.0771 49.747 22.251 60.9209 36.0002 60.9209C49.7495 60.9209 60.9233 49.747 60.9233 35.9978C60.9233 22.2513 49.7495 11.0747 36.0002 11.0747ZM36.0002 13.8439C48.2513 13.8439 58.1541 23.7467 58.1541 35.9978C58.1541 48.2489 48.2513 58.1516 36.0002 58.1516C23.7491 58.1516 13.8464 48.2489 13.8464 35.9978C13.8464 23.7467 23.7491 13.8439 36.0002 13.8439Z" fill="#00ED6D"/>
<path fill-rule="evenodd" clip-rule="evenodd" d="M0 34.6128V37.382H19.3846V34.6128H0ZM52.6154 34.6128V37.382H72V34.6128H52.6154Z" fill="#00ED6D"/>
<path d="M22.5808 8.65715L22.4562 8.70414L20.2962 9.90587L21.6393 12.3262L23.7218 11.163L23.9515 11.0802L22.8605 8.53512L22.5808 8.65715ZM28.939 8.99215L28.9833 9.20545H29.0026L29.0691 9.17773L31.5753 8.65715L31.0131 5.94336L28.4128 6.48592L28.2882 6.5329L28.1774 6.57448L28.939 8.99215ZM15.1537 13.7856L15.054 13.8741L13.5781 15.4166L15.5718 17.3357L17.0451 15.8043H17.0562L17.4355 15.4859L15.6356 13.3786L15.1537 13.7856ZM9.68173 20.6701L9.61523 20.7864L8.68756 22.578L11.1466 23.8518L12.066 22.0851L12.0771 22.0517L12.4094 21.5338L10.0832 20.0329L9.68173 20.6701ZM6.4057 28.7784L6.37527 28.9112L6.00977 30.8303L8.72356 31.3481L9.08915 29.4761L9.2913 28.7784L6.63556 28.0002L6.4057 28.7784ZM62.9146 42.5275L62.7263 43.1671L65.382 43.9452L65.598 43.2252L65.6285 43.0924L66.0079 41.1152L63.294 40.5892L62.9146 42.5275ZM59.9405 49.9157L59.9294 49.9492L59.6276 50.4143L61.9538 51.9152L62.3248 51.3365L62.3913 51.2202L63.3494 49.3701L60.8848 48.0991L59.9405 49.9157ZM54.9642 56.1938H54.9503L54.6152 56.4761L56.4153 58.5807L56.8528 58.2068L56.9497 58.1156L58.4728 56.5288L56.4734 54.6098L54.9642 56.1938ZM41.0433 66.0301L43.5855 65.5038L43.71 65.4568L43.8762 65.396L43.0454 62.7569L42.9346 62.8012L40.4756 63.3052L41.0433 66.0301ZM48.282 60.8209L48.1048 60.8875L49.2014 63.4353L49.4146 63.3244L49.5421 63.2775L51.7574 62.045L50.4116 59.6246L48.282 60.8209Z" fill="#090909"/>
<path d="M45.7255 35.0149C45.5437 35.0097 45.3626 35.0407 45.1926 35.1055C45.0226 35.1704 44.8672 35.2679 44.735 35.3928C44.6028 35.5178 44.4965 35.6676 44.4222 35.8336C44.3479 35.9997 44.3071 36.1788 44.3021 36.3607C44.28 36.8896 44.2025 37.413 44.0806 37.9309C44.0348 38.1091 44.0251 38.295 44.0519 38.4771C44.0787 38.6592 44.1415 38.8341 44.2367 38.9916C44.3319 39.1492 44.4576 39.2862 44.6063 39.3946C44.7551 39.503 44.924 39.5804 45.1032 39.6227C45.2823 39.6651 45.4681 39.6713 45.6497 39.641C45.8313 39.6107 46.0049 39.5445 46.1606 39.4463C46.3162 39.3481 46.4508 39.2199 46.5563 39.069C46.6618 38.9182 46.7362 38.7476 46.775 38.5677C46.9384 37.881 47.0354 37.1834 47.0658 36.48C47.0771 36.295 47.051 36.1095 46.9892 35.9347C46.9274 35.76 46.8312 35.5994 46.7062 35.4625C46.5812 35.3256 46.43 35.2153 46.2616 35.138C46.0931 35.0606 45.9108 35.0205 45.7255 35.0149Z" fill="#00ED6D"/>
</g>
<defs>
<clipPath id="clip0_206_57">
<rect width="72" height="72" fill="white"/>
</clipPath>
</defs>
</svg>
