<svg width="36" height="37" viewBox="0 0 36 37" fill="none" xmlns="http://www.w3.org/2000/svg">
<rect x="0.5" y="1.36279" width="35" height="35" rx="17.5" stroke="#090909"/>
<g clip-path="url(#clip0_44_93)">
<path d="M27 27.862V21.262C27 18.037 26.325 15.562 22.5 15.562C20.7 15.562 19.5 16.537 18.975 17.512H18.9V15.862H15.375V27.862H19.125V21.937C19.125 20.362 19.425 18.862 21.375 18.862C23.25 18.862 23.325 20.662 23.325 22.012V27.862H27Z" fill="#090909"/>
<path d="M9.30078 15.8628H13.0508V27.8628H9.30078V15.8628Z" fill="#090909"/>
<path d="M11.175 9.86279C9.975 9.86279 9 10.8378 9 12.0378C9 13.2378 9.975 14.2128 11.175 14.2128C12.375 14.2128 13.35 13.2378 13.35 12.0378C13.35 10.8378 12.375 9.86279 11.175 9.86279Z" fill="#090909"/>
</g>
<defs>
<clipPath id="clip0_44_93">
<rect width="18" height="18" fill="white" transform="translate(9 9.86279)"/>
</clipPath>
</defs>
</svg>
