<svg width="186" height="55" viewBox="0 0 186 55" fill="none" xmlns="http://www.w3.org/2000/svg">
<g clip-path="url(#clip0_44_328)">
<path d="M27.4347 7.96213C28.3558 7.96222 29.2484 7.64296 29.9604 7.05873C30.6725 6.47449 31.1599 5.66144 31.3397 4.75811C31.5194 3.85478 31.3804 2.91707 30.9463 2.10474C30.5122 1.29241 29.8099 0.655726 28.959 0.303181C28.1081 -0.0493651 27.1613 -0.0959659 26.2799 0.171324C25.3984 0.438613 24.637 1.00326 24.1252 1.76904C23.6135 2.53481 23.383 3.45435 23.4732 4.37097C23.5635 5.28759 23.9687 6.14456 24.6199 6.79589C24.989 7.16631 25.4277 7.46007 25.9108 7.66022C26.3939 7.86037 26.9118 7.96297 27.4347 7.96213Z" fill="#FFB715"/>
<path d="M17.715 27.3886C18.0652 26.9162 18.4319 26.4471 18.8019 25.9944C20.9083 23.3899 23.2799 21.0115 25.8786 18.8979C24.6277 17.9802 23.331 17.1268 21.9934 16.3408C21.0022 17.1998 20.0111 18.105 19.086 19.04C18.161 19.9749 17.1765 21.0222 16.2943 22.0596C15.8913 22.5222 15.5047 22.9913 15.1413 23.4472L15.0455 23.5662L14.9662 23.4373C14.6358 22.9087 14.3451 22.3801 14.0577 21.8614C12.3124 18.7097 10.9271 15.3717 9.92794 11.9104C9.79205 11.4404 9.50729 11.0272 9.11647 10.7329C8.72566 10.4386 8.24989 10.2791 7.76066 10.2783C7.41467 10.2805 7.07388 10.3626 6.76483 10.5182C6.45579 10.6738 6.18686 10.8986 5.979 11.1752C5.77115 11.4519 5.63 11.7727 5.56654 12.1128C5.50309 12.453 5.51906 12.8032 5.6132 13.1361C6.89894 17.6027 8.77439 21.8781 11.19 25.8491C11.4939 26.348 11.8144 26.8567 12.1811 27.4052L12.2175 27.4646L12.1811 27.5208C11.8508 28.023 11.5204 28.5516 11.19 29.0868C8.77981 33.0553 6.91199 37.3288 5.63632 41.7932C5.52659 42.1776 5.52172 42.5843 5.62222 42.9712C5.72272 43.3581 5.92493 43.7111 6.20787 43.9935C6.4192 44.208 6.67204 44.3773 6.95093 44.4909C7.22983 44.6045 7.52894 44.6601 7.83003 44.6542C8.41123 44.6366 8.96445 44.4007 9.37951 43.9935C9.65286 43.7183 9.84985 43.3767 9.95107 43.0023C10.9437 39.5433 12.3212 36.2066 14.0577 33.0546C14.3451 32.5293 14.6524 31.9974 14.9629 31.482C15.8092 30.0711 16.7277 28.7048 17.715 27.3886Z" fill="#33D9C4"/>
<path d="M43.6727 29.09C43.3424 28.5515 43.012 28.0262 42.6816 27.524L42.6453 27.4678L42.6816 27.4084C43.045 26.86 43.3655 26.3512 43.6727 25.8523C46.0883 21.8813 47.9638 17.606 49.2495 13.1393C49.3455 12.8026 49.3613 12.448 49.2957 12.1041C49.2301 11.7601 49.0848 11.4363 48.8716 11.1586C48.6584 10.8808 48.3831 10.6568 48.0678 10.5045C47.7525 10.3522 47.4059 10.2759 47.0558 10.2815C46.4729 10.2957 45.9174 10.5321 45.503 10.9423C45.2339 11.2124 45.0383 11.5467 44.9348 11.9136C43.9392 15.3768 42.5573 18.717 40.815 21.8712C40.5275 22.3899 40.2236 22.9185 39.9064 23.4471C39.0588 24.8545 38.138 26.2164 37.1478 27.5273C36.8009 27.9898 36.4341 28.459 36.0608 28.9215C35.0008 30.2268 33.8738 31.4762 32.6843 32.6647C31.5117 33.8356 30.2811 34.9471 28.9973 35.9949C30.2501 36.9102 31.5491 37.7604 32.8892 38.5421C33.9001 37.6732 34.8913 36.7548 35.8329 35.8132C36.7744 34.8716 37.6962 33.8772 38.5717 32.8596C38.9615 32.407 39.3514 31.9412 39.728 31.472L39.8205 31.3531L39.8998 31.4853C40.2104 32.004 40.5176 32.5326 40.8051 33.0579C42.5403 36.215 43.9177 39.556 44.9117 43.0188C45.0158 43.396 45.217 43.7395 45.4951 44.0148C45.7733 44.2901 46.1187 44.4878 46.4971 44.588C46.8754 44.6883 47.2734 44.6877 47.6514 44.5862C48.0294 44.4848 48.3742 44.2861 48.6515 44.0099C48.9334 43.7268 49.1361 43.3749 49.2396 42.9891C49.34 42.6026 49.3343 42.1963 49.2231 41.8129C47.9514 37.3424 46.0845 33.0631 43.6727 29.09Z" fill="#3BB64B"/>
<path d="M42.9956 44.9248C39.5305 43.9344 36.188 42.5568 33.0313 40.8182C32.5093 40.5308 31.9807 40.2268 31.4554 39.9097C30.048 39.0624 28.684 38.145 27.3687 37.1609C26.8995 36.8074 26.4304 36.4407 25.9745 36.0707C23.3769 33.9695 21.0032 31.6058 18.8911 29.0171C17.9756 30.2703 17.1243 31.5693 16.3406 32.909C17.2029 33.9001 18.1048 34.8912 19.0299 35.8031C19.9549 36.7149 21.0122 37.6961 22.0297 38.5816C22.5055 38.9912 22.9614 39.3712 23.4239 39.7379L23.5429 39.8337L23.4107 39.9097C22.8722 40.2401 22.3403 40.5407 21.8348 40.8182C18.6781 42.5569 15.3356 43.9345 11.8706 44.9248C11.3972 45.0591 10.9812 45.3453 10.6865 45.7393C10.3917 46.1333 10.2347 46.6132 10.2396 47.1052C10.2445 47.5972 10.411 48.074 10.7135 48.462C11.0159 48.8501 11.4376 49.128 11.9135 49.2528C12.2998 49.3569 12.7067 49.3569 13.093 49.2528C17.5624 47.9737 21.8412 46.1037 25.8159 43.6925C26.3346 43.3787 26.8599 43.0318 27.3753 42.7014L27.4314 42.665L27.4909 42.7014C28.0063 43.0318 28.5316 43.3621 29.0503 43.6925C33.0269 46.0998 37.3067 47.9663 41.7765 49.2429C42.1606 49.3519 42.567 49.3561 42.9534 49.255C43.3397 49.154 43.6919 48.9513 43.9735 48.668C44.1881 48.4574 44.3574 48.2052 44.471 47.9268C44.5847 47.6485 44.6402 47.3498 44.6342 47.0492C44.6209 46.467 44.3843 45.9123 43.9735 45.4997C43.7024 45.2271 43.3656 45.0291 42.9956 44.9248Z" fill="#FE4438"/>
<path d="M11.8936 9.92773C15.3542 10.9248 18.692 12.3067 21.8446 14.0476C22.3732 14.3383 22.9018 14.6422 23.4172 14.9528C24.8238 15.8016 26.1857 16.7223 27.4974 17.7115C27.9665 18.0617 28.4357 18.4284 28.8916 18.7984C31.4907 20.9075 33.8655 23.2789 35.9782 25.8751C36.8952 24.6244 37.7476 23.3277 38.532 21.9899C37.6632 20.9789 36.7414 19.9845 35.7899 19.0165C34.8384 18.0484 33.8407 17.1399 32.8165 16.2677C32.3606 15.8745 31.8947 15.488 31.4289 15.1147L31.31 15.0189L31.4388 14.9396C31.9542 14.6323 32.4828 14.3251 33.0114 14.0343C36.1672 12.2962 39.5085 10.9187 42.9723 9.92773C43.3496 9.8236 43.693 9.62243 43.9683 9.34426C44.2437 9.0661 44.4413 8.72065 44.5416 8.34233C44.6418 7.96401 44.6412 7.56601 44.5398 7.188C44.4384 6.80999 44.2397 6.46515 43.9635 6.18784C43.6773 5.90251 43.319 5.70018 42.9268 5.60244C42.5347 5.50469 42.1234 5.51519 41.7367 5.6328C37.2762 6.91643 33.0065 8.78853 29.0403 11.1997C28.5051 11.5301 27.9831 11.8604 27.4809 12.1908L27.4214 12.2305L27.3652 12.1908C26.8631 11.8604 26.3411 11.5301 25.8059 11.1997C21.8428 8.78933 17.5765 6.91726 13.1193 5.6328C12.9196 5.57494 12.7127 5.54601 12.5048 5.5469C11.9087 5.54893 11.3375 5.78643 10.9157 6.20766C10.7005 6.41852 10.5309 6.67127 10.4172 6.95028C10.3036 7.22929 10.2483 7.52863 10.2549 7.82982C10.2679 8.41202 10.5045 8.96688 10.9157 9.3793C11.1888 9.64349 11.5257 9.83243 11.8936 9.92773Z" fill="#FFB715"/>
<path d="M6.79593 24.6166C6.14651 23.9695 5.2929 23.5675 4.3804 23.479C3.46791 23.3905 2.55294 23.6209 1.79125 24.1311C1.02956 24.6414 0.468243 25.3998 0.202844 26.2773C-0.0625553 27.1548 -0.0156355 28.0972 0.335629 28.944C0.686893 29.7908 1.32079 30.4897 2.12939 30.9218C2.938 31.3538 3.87134 31.4922 4.77053 31.3135C5.66972 31.1347 6.47917 30.6499 7.0611 29.9415C7.64303 29.2331 7.96145 28.3449 7.96217 27.4281C7.96367 26.9056 7.86136 26.388 7.66115 25.9053C7.46095 25.4227 7.16685 24.9846 6.79593 24.6166Z" fill="#33D9C4"/>
<path d="M27.4314 46.9038C26.5147 46.9061 25.6271 47.2259 24.9197 47.8089C24.2123 48.3919 23.7288 49.2021 23.5515 50.1015C23.3741 51.0008 23.5139 51.9339 23.9471 52.7418C24.3803 53.5497 25.0801 54.1825 25.9273 54.5325C26.7745 54.8825 27.7169 54.9282 28.594 54.6616C29.471 54.395 30.2286 53.8328 30.7378 53.0705C31.247 52.3082 31.4763 51.393 31.3867 50.4807C31.297 49.5684 30.894 48.7154 30.2462 48.0668C29.8769 47.6969 29.438 47.4038 28.9549 47.2042C28.4719 47.0046 27.9541 46.9025 27.4314 46.9038Z" fill="#FE4438"/>
<path d="M53.6997 24.6195C53.0504 23.9725 52.197 23.5705 51.2846 23.4819C50.3723 23.3934 49.4574 23.6236 48.6957 24.1336C47.9341 24.6436 47.3726 25.4017 47.107 26.279C46.8414 27.1563 46.8879 28.0986 47.2388 28.9454C47.5897 29.7923 48.2231 30.4913 49.0314 30.9237C49.8396 31.3561 50.7727 31.495 51.6719 31.3169C52.5711 31.1388 53.3807 30.6545 53.9631 29.9467C54.5454 29.2388 54.8645 28.351 54.866 27.4344C54.8655 26.3786 54.446 25.3662 53.6997 24.6195Z" fill="#3BB64B"/>
<path d="M85.7234 11.4841C86.0904 11.4561 86.4558 11.5565 86.7571 11.768C87.0584 11.9795 87.2769 12.289 87.3753 12.6437L97.7888 41.717C97.8818 41.9065 97.9255 42.1164 97.9156 42.3272C97.9058 42.538 97.8429 42.743 97.7327 42.9229C97.5947 43.084 97.4201 43.2095 97.2234 43.2889C97.0267 43.3682 96.8139 43.3991 96.6028 43.3789H92.7869C92.4167 43.4035 92.0495 43.2986 91.7481 43.0823C91.4467 42.8659 91.23 42.5514 91.135 42.1928L89.1527 36.203H77.6357L75.6534 42.1928C75.5584 42.5514 75.3417 42.8659 75.0403 43.0823C74.739 43.2986 74.3717 43.4035 74.0015 43.3789H70.1857C69.9749 43.4008 69.762 43.3708 69.5656 43.2913C69.3692 43.2118 69.1952 43.0853 69.0591 42.9229C68.9477 42.7435 68.8839 42.5386 68.8735 42.3277C68.8631 42.1167 68.9065 41.9066 68.9996 41.717L79.4131 12.6437C79.5116 12.289 79.7301 11.9795 80.0314 11.768C80.3326 11.5565 80.698 11.4561 81.065 11.4841H85.7234ZM83.4107 18.3857L79.3074 30.917H87.5107L83.4107 18.3857Z" fill="#090909"/>
<path d="M107.641 12.9409C107.641 11.9695 108.126 11.4839 109.098 11.4839H112.653C113.624 11.4839 114.11 11.9695 114.11 12.9409V37.7986H125.547C126.519 37.7986 127.004 38.2842 127.004 39.2555V41.9217C127.004 42.893 126.519 43.3787 125.547 43.3787H109.098C108.126 43.3787 107.641 42.893 107.641 41.9217V12.9409Z" fill="#090909"/>
<path d="M136.301 12.9409C136.301 11.9695 136.787 11.4839 137.758 11.4839H141.313C142.284 11.4839 142.77 11.9695 142.77 12.9409V37.7986H154.208C155.179 37.7986 155.665 38.2842 155.665 39.2555V41.9217C155.665 42.893 155.179 43.3787 154.208 43.3787H137.758C136.787 43.3787 136.301 42.893 136.301 41.9217V12.9409Z" fill="#090909"/>
<path d="M172.663 24.3782L179.201 12.5077C179.36 12.1887 179.609 11.9225 179.916 11.7409C180.223 11.5593 180.576 11.4699 180.932 11.4835H184.738C185.313 11.4835 185.696 11.6454 185.888 11.9725C186.079 12.2996 186.026 12.7192 185.739 13.2379L175.897 30.5299V41.9214C175.897 42.8927 175.411 43.3783 174.44 43.3783H170.885C169.914 43.3783 169.428 42.8927 169.428 41.9214V30.5299L159.586 13.2313C159.295 12.7126 159.256 12.293 159.438 11.9659C159.619 11.6388 160.009 11.4769 160.587 11.4769H164.393C164.75 11.4633 165.102 11.5527 165.409 11.7343C165.717 11.9159 165.965 12.1821 166.124 12.5011L172.663 24.3782Z" fill="#090909"/>
</g>
<defs>
<clipPath id="clip0_44_328">
<rect width="186" height="54.8627" fill="white"/>
</clipPath>
</defs>
</svg>
