<svg width="24" height="24" viewBox="0 0 24 24" fill="none" xmlns="http://www.w3.org/2000/svg">
<path d="M11.9991 11.1075L21.5841 4.95C21.1987 4.66096 20.7308 4.50323 20.2491 4.5H3.74906C3.26736 4.50323 2.79942 4.66096 2.41406 4.95L11.9991 11.1075Z" fill="#FE4438"/>
<path d="M12.405 12.6296L12.2775 12.6896H12.2175C12.1484 12.7204 12.0751 12.7407 12 12.7496C11.9377 12.7574 11.8748 12.7574 11.8125 12.7496H11.7525L11.625 12.6896L1.575 6.19458C1.52698 6.37573 1.50179 6.56218 1.5 6.74958V17.2496C1.5 17.8463 1.73705 18.4186 2.15901 18.8406C2.58097 19.2625 3.15326 19.4996 3.75 19.4996H20.25C20.8467 19.4996 21.419 19.2625 21.841 18.8406C22.2629 18.4186 22.5 17.8463 22.5 17.2496V6.74958C22.4982 6.56218 22.473 6.37573 22.425 6.19458L12.405 12.6296Z" fill="#FE4438"/>
</svg>
