<svg width="72" height="71" viewBox="0 0 72 71" fill="none" xmlns="http://www.w3.org/2000/svg">
<g clip-path="url(#clip0_164_1045)">
<path d="M57.4725 23.4816C57.4163 32.3059 51.7439 40.2071 43.2822 43.1977C42.6831 43.4008 42.2525 43.7146 41.8968 44.25C40.3804 46.6314 38.8079 48.9759 37.2541 51.3389C36.4865 52.5019 35.6815 52.5019 34.8953 51.3204C33.2853 48.8836 31.694 46.4468 30.0653 44.0285C29.8594 43.7331 29.5224 43.4562 29.1854 43.3454C20.1433 40.2625 14.265 31.6782 14.7705 22.3002C15.3321 11.9252 23.6066 3.41483 34.0715 2.47333C45.5848 1.43953 55.7689 9.46995 57.2478 20.7495C57.3789 21.6356 57.3976 22.5586 57.4725 23.4816ZM48.2806 24.2755C50.6207 25.5492 53.3352 26.1954 54.1964 29.2045C56.7424 21.9309 54.3461 12.3498 46.0154 7.3285C37.9093 2.41795 27.5567 4.1348 21.3976 11.3529C15.538 18.2388 16.212 27.303 19.2822 32.1397C19.3009 32.1028 19.3383 32.0659 19.357 32.029C19.8625 30.6998 20.4054 29.3706 20.8921 28.023C21.3976 26.62 22.2962 25.5492 23.6066 24.8108C24.4116 24.3493 25.1979 23.8693 25.9842 23.4078C25.6659 22.5032 25.1417 21.9679 24.1683 21.9309C23.8875 21.9309 23.6254 21.8386 23.3446 21.7648C21.0232 21.211 20.0123 18.9957 21.1168 16.9281C21.2291 16.725 21.2853 16.4481 21.2666 16.2266C21.1168 14.6205 21.9031 13.3282 23.4007 12.719C23.6815 12.6083 23.9811 12.3498 24.1121 12.0729C25.0107 10.3376 27.0513 9.67302 28.7549 10.6514C29.1667 10.8914 29.4475 10.8914 29.8781 10.6514C31.5442 9.69148 33.641 10.3191 34.4647 12.0175C34.6519 12.4052 34.8953 12.6083 35.2884 12.756C36.7299 13.2913 37.5349 14.6574 37.3851 16.1527C37.3664 16.4481 37.46 16.7804 37.591 17.0389C38.5645 18.9403 37.591 21.1556 35.513 21.7094C35.1761 21.8017 34.8391 21.9309 34.4834 21.9309C33.5099 21.9494 32.967 22.4848 32.6675 23.3709C34.2213 24.4785 36.187 25.0877 37.1792 26.7677C38.0029 26.2877 38.733 25.8446 39.4818 25.4385C40.2307 25.0324 41.0169 24.6631 41.8407 24.257C40.7174 23.0755 40.4928 21.6725 40.5489 20.1772C40.5864 19.0695 40.5489 17.9619 40.5676 16.8542C40.5864 14.1774 42.5146 12.2944 45.2291 12.2944C46.1839 12.2944 47.1386 12.2944 48.1121 12.2944C49.1605 12.2944 49.5536 12.6637 49.5536 13.7159C49.5536 15.9312 49.5162 18.1465 49.5723 20.3618C49.6098 21.8202 49.3664 23.1309 48.2806 24.2755ZM43.9561 25.7523C42.6456 26.3984 41.485 27.0261 40.2681 27.5615C38.7892 28.2076 38.0403 29.2968 37.8906 30.8659C37.8157 31.7521 37.6285 32.6197 37.4974 33.5243C36.7112 33.4135 36.0372 33.3028 35.3071 33.192C35.4569 32.1767 35.513 31.1982 35.719 30.2567C36.0185 28.8353 35.4382 27.8015 34.3524 27.0261C33.2853 26.2692 32.1246 25.66 31.0013 25.0139C30.8703 24.94 30.7018 24.94 30.4397 24.8662C30.4397 26.2692 30.4397 27.5799 30.4397 28.8906C29.6535 28.8906 28.9608 28.8906 28.1932 28.8906C28.1932 27.5615 28.1932 26.2508 28.1932 24.8293C27.8563 24.977 27.6316 25.0508 27.4257 25.1616C26.5084 25.6785 25.6285 26.2323 24.7112 26.7492C23.8875 27.2292 23.3258 27.8938 23.0076 28.7799C22.3524 30.5521 21.6971 32.3243 20.9857 34.0781C20.7985 34.5396 20.8921 34.8165 21.1729 35.1858C23.6254 38.1395 26.6956 40.2071 30.3648 41.3701C30.9452 41.5547 31.3383 41.8501 31.6566 42.3485C32.967 44.3607 34.2962 46.373 35.6254 48.3852C35.7564 48.5883 35.9062 48.7729 36.0747 49.0498C37.591 46.7422 39.0513 44.5638 40.474 42.3485C40.7923 41.8501 41.2042 41.5547 41.7658 41.3886C45.9405 40.0594 49.2728 37.6226 51.8001 34.0966C52.2868 33.4135 52.6238 32.7489 52.3617 31.8628C52.2307 31.4198 52.2307 30.9582 52.1558 30.4967C52.0247 29.5922 51.7252 28.7245 50.9202 28.2445C49.4038 27.3584 47.8126 26.5831 46.1464 25.7154C46.1464 26.8969 46.1464 27.8938 46.1464 28.9091C45.3789 28.9091 44.6675 28.9091 43.9187 28.9091C43.9561 27.8568 43.9561 26.86 43.9561 25.7523ZM33.8282 19.771C35.7564 19.6787 36.1121 19.0326 35.2135 17.445C35.0263 17.1312 35.0076 16.6512 35.0825 16.282C35.251 15.4512 35.0825 14.9712 34.24 14.7497C33.3602 14.5097 32.7611 14.1036 32.5177 13.1621C32.3305 12.4421 31.5255 12.1468 30.9452 12.6267C29.8032 13.5867 28.7923 13.5313 27.6691 12.6083C27.1449 12.1837 26.3399 12.4237 26.1714 13.0698C25.9093 14.1221 25.2166 14.5651 24.2432 14.8051C23.7003 14.9343 23.3446 15.3958 23.513 15.8943C23.8126 16.725 23.5505 17.3342 23.1012 17.9988C22.6332 18.6634 22.9701 19.4018 23.7751 19.6049C24.0934 19.6972 24.4491 19.7157 24.8235 19.7895C24.8235 19.1988 24.8422 18.6634 24.8235 18.128C24.7861 17.4081 25.0856 16.965 25.7783 16.7066C27.3882 16.0974 28.9795 15.4512 30.5895 14.8051C31.9935 14.2513 33.7907 15.4512 33.8095 16.9835C33.8469 17.925 33.8282 18.848 33.8282 19.771ZM31.7127 18.8849C31.6753 18.8849 31.6378 18.8665 31.6004 18.8665C31.6004 18.4234 31.6004 17.9988 31.6004 17.5558C31.6004 17.0204 31.3758 16.9096 30.889 17.1127C29.7658 17.5742 28.6238 17.9988 27.5193 18.4603C27.3508 18.5342 27.1261 18.7188 27.1261 18.848C27.1823 19.6603 27.1823 20.5279 27.4444 21.2848C27.7252 22.1156 28.3617 22.9094 29.3352 22.9278C30.3461 22.9278 30.9639 22.1156 31.2822 21.2479C31.5442 20.5095 31.563 19.6787 31.7127 18.8849ZM42.8329 19.9003C42.8329 20.4356 42.8141 20.8602 42.8329 21.3033C42.9077 22.4294 43.8438 23.334 44.967 23.3893C46.109 23.4447 47.1573 22.614 47.2697 21.4879C47.3446 20.7495 47.2884 19.9741 47.2884 19.1618C45.7907 19.4203 44.3305 19.6603 42.8329 19.9003ZM47.2884 14.5467C46.6332 14.5467 46.0341 14.5467 45.4538 14.5467C43.5068 14.5467 42.5895 15.6543 42.889 17.6481C44.3492 17.4081 45.8095 17.1681 47.2697 16.9281C47.2884 16.1158 47.2884 15.3589 47.2884 14.5467Z" fill="black"/>
<path d="M21.5655 40.9827C21.5093 41.758 21.4532 42.4411 21.397 43.1795C17.9711 42.9211 14.695 42.238 11.4189 41.2042C11.4001 41.4811 11.3814 41.7026 11.3814 41.9242C11.3814 49.1608 11.3814 56.4158 11.3627 63.6525C11.3627 64.1878 11.5312 64.3909 12.0366 64.5386C19.8994 67.0862 27.8182 67.1785 35.812 65.1478C38.9571 64.354 42.1209 63.634 45.3221 63.0986C49.9087 62.3417 54.514 62.6002 59.0632 63.4494C59.6061 63.5417 60.1677 63.634 60.748 63.7448C60.748 56.0097 60.748 48.3116 60.748 40.5027C58.5203 40.1704 56.2925 39.8196 53.9898 39.4689C54.0273 38.8043 54.0835 38.1028 54.1209 37.2905C55.787 37.5121 57.3596 37.7151 58.9134 37.9551C59.8682 38.1028 60.8042 38.2874 61.7402 38.472C62.7512 38.6566 63.0132 38.9705 63.0132 40.0227C63.0132 48.2562 63.0132 56.4897 63.0132 64.7416C63.0132 65.9601 62.5078 66.3477 61.2909 66.1447C59.3627 65.8124 57.4345 65.4432 55.4875 65.2032C50.2644 64.557 45.1349 65.0924 40.0616 66.3477C36.8978 67.1415 33.7153 67.9169 30.4766 68.3969C23.4937 69.4307 16.6794 68.563 10.0522 66.2185C9.3783 65.9785 9.11621 65.5539 9.11621 64.8524C9.11621 56.5266 9.11621 48.2008 9.11621 39.8566C9.11621 38.8228 9.77144 38.2874 10.6888 38.6197C14.1895 39.875 17.7839 40.6688 21.5655 40.9827Z" fill="#088DEE"/>
<path d="M39.725 50.6191C40.3053 50.1945 40.867 49.7884 41.4286 49.3822C43.4879 51.5052 43.2445 55.5666 40.9418 57.9296C38.4145 60.5141 34.2772 60.6617 31.5815 58.2434C28.998 55.9358 28.6049 51.8744 30.7577 49.3638C31.3194 49.7884 31.8997 50.213 32.4613 50.6191C31.1696 53.1851 31.4691 55.3266 33.3038 56.7665C34.9886 58.0957 37.3287 58.0588 38.9949 56.6927C40.7359 55.2343 41.0167 53.0375 39.725 50.6191Z" fill="#088DEE"/>
<path d="M13.0853 18.1098C11.6999 24.571 12.7857 30.5154 16.2865 36.0905C15.6687 36.4782 15.0884 36.8659 14.4144 37.2905C10.558 31.1615 9.37856 24.6633 10.9137 17.6113C11.6812 17.7959 12.3552 17.9436 13.0853 18.1098Z" fill="#088DEE"/>
<path d="M61.9275 23.3897C61.1412 23.3897 60.4672 23.3897 59.6997 23.3897C59.6248 18.3869 58.1646 13.8086 55.1318 9.65495C55.7309 9.23035 56.2925 8.80576 56.9478 8.34424C60.2239 12.8487 61.8526 17.8146 61.9275 23.3897Z" fill="#088DEE"/>
<path d="M13.6284 51.0437C13.6284 49.3453 13.6097 47.7023 13.6284 46.0593C13.6284 45.2655 14.2088 44.7671 14.9389 44.8963C17.8406 45.3578 20.7236 45.8378 23.6815 46.3178C23.6815 46.8347 23.6815 47.5362 23.6815 48.4039C21.0419 48.09 18.4771 47.7946 15.8749 47.4993C15.8749 48.6254 15.8749 49.8069 15.8749 51.0437C15.1074 51.0437 14.396 51.0437 13.6284 51.0437Z" fill="#088DEE"/>
<path d="M58.5399 48.8653C57.7536 48.8653 57.0797 48.8653 56.3308 48.8653C56.3308 47.5361 56.3308 46.2069 56.3308 44.767C54.9642 44.6562 53.6725 44.527 52.3808 44.4716C51.2762 44.4347 50.1904 44.4532 49.0859 44.4901C48.6366 44.5086 48.4307 44.3978 48.4494 43.9363C48.4681 43.4378 48.4494 42.9209 48.4494 42.3487C48.7302 42.3117 49.011 42.2563 49.3106 42.2563C51.9502 42.3856 54.5898 42.4963 57.2107 42.6809C58.2404 42.7548 58.5399 43.1609 58.5399 44.1763C58.5586 45.727 58.5399 47.2592 58.5399 48.8653Z" fill="#088DEE"/>
<path d="M23.6817 63.6156C20.5179 63.5602 17.5601 63.1171 14.6209 62.4341C14.0593 62.3048 13.6661 61.991 13.6474 61.4003C13.61 59.8311 13.6287 58.2804 13.6287 56.6743C14.3775 56.6743 15.0702 56.6743 15.8378 56.6743C15.8378 57.9112 15.8378 59.1665 15.8378 60.5695C18.4961 60.9018 21.0796 61.2341 23.663 61.5479C23.6817 62.1756 23.6817 62.8771 23.6817 63.6156Z" fill="#088DEE"/>
<path d="M48.5049 59.8126C48.4675 59.0926 48.43 58.4096 48.3926 57.5235C51.0509 57.5973 53.6531 57.6712 56.2927 57.7635C56.2927 56.7112 56.2927 55.622 56.2927 54.459C57.0416 54.459 57.753 54.459 58.5392 54.459C58.5392 56.0835 58.5767 57.7081 58.5205 59.3326C58.5018 59.9234 57.9776 60.2741 57.3224 60.2187C56.4799 60.1634 55.6562 59.9787 54.8138 59.9418C52.923 59.868 51.0322 59.8311 49.1414 59.7941C48.9355 59.8126 48.767 59.8126 48.5049 59.8126Z" fill="#088DEE"/>
<path d="M17.9346 55.3266C18.0656 54.5882 18.1779 53.9051 18.2715 53.2959C21.192 53.462 24.075 53.6097 27.0329 53.7759C27.0329 54.3482 27.0329 55.0312 27.0329 55.8066C24.0563 56.0281 21.0422 55.7881 17.9346 55.3266Z" fill="#088DEE"/>
<path d="M45.2107 52.262C45.1171 51.6528 45.0235 50.9698 44.9111 50.2498C47.9626 49.7698 50.9767 49.7514 54.1217 49.9175C54.0656 50.6744 54.0281 51.3575 53.9907 51.9851C51.0328 52.0774 48.1685 52.1697 45.2107 52.262Z" fill="#088DEE"/>
<path d="M51.1074 5.42739C51.5754 4.87357 52.0247 4.33821 52.5302 3.729C53.3165 4.44897 54.0653 5.13202 54.889 5.88891C54.3274 6.40581 53.8032 6.90425 53.2603 7.40269C52.5489 6.7381 51.8563 6.11044 51.1074 5.42739Z" fill="#088DEE"/>
<path d="M14.6207 13.6794C14.3024 14.4732 14.0029 15.1932 13.7033 15.9685C13.0107 15.747 12.3367 15.5255 11.5879 15.267C11.9249 14.4178 12.2431 13.624 12.5988 12.7563C13.2915 13.0886 13.928 13.3656 14.6207 13.6794Z" fill="#088DEE"/>
<path d="M26.0029 37.8073C26.0029 37.032 26.0029 36.3489 26.0029 35.5921C26.2837 35.5921 26.5271 35.5921 26.7892 35.5921C32.2931 35.5921 37.7783 35.5921 43.2822 35.5921C43.4694 35.5921 43.6566 35.5921 43.8438 35.5921C44.5926 35.5551 45.0981 35.1121 45.0794 34.4659C45.0607 33.8383 44.5926 33.3952 43.8625 33.3952C43.0014 33.3768 42.1402 33.3952 41.2603 33.3952C41.0544 33.3952 40.8485 33.3952 40.6238 33.3952C40.6238 32.6383 40.6238 31.9553 40.6238 31.2722C41.9904 31.2722 43.3758 31.1246 44.7237 31.3092C46.4085 31.5491 47.4756 33.1552 47.3259 34.8167C47.1761 36.4782 45.7533 37.8073 44.031 37.8258C40.5864 37.8443 37.1605 37.8258 33.7159 37.8443C31.1511 37.8073 28.6051 37.8073 26.0029 37.8073Z" fill="black"/>
</g>
<defs>
<clipPath id="clip0_164_1045">
<rect width="72" height="71" fill="white"/>
</clipPath>
</defs>
</svg>
