<svg width="72" height="72" viewBox="0 0 72 72" fill="none" xmlns="http://www.w3.org/2000/svg">
<g clip-path="url(#clip0_164_874)">
<path d="M66.6691 0.14502C67.3065 0.507193 67.4804 1.08667 67.4804 1.79653C67.4659 11.1261 67.4659 20.4557 67.4659 29.7997C67.4659 31.0601 67.0892 31.4368 65.8289 31.4368C55.3259 31.4368 44.8228 31.4368 34.3198 31.4223C33.7838 31.4223 33.4651 31.5382 33.1609 32.0597C32.1033 33.8706 29.8144 34.4645 27.9601 33.4649C26.352 32.5957 24.7584 31.7265 23.1649 30.8428C22.9621 30.7414 22.7593 30.64 22.455 30.4951C22.455 30.8718 22.455 31.147 22.455 31.4078C22.455 33.6822 22.455 35.9422 22.4405 38.2166C22.4405 39.2742 22.0349 39.6943 21.0208 39.6943C17.0514 39.6943 13.0675 39.6943 9.09809 39.6943C8.05503 39.6943 7.67837 39.2887 7.66388 38.2311C7.66388 37.7676 7.66388 37.304 7.66388 36.9128C7.01197 36.8839 6.41801 36.9128 5.85302 36.7969C4.52022 36.5072 3.39024 35.3482 3.39024 34.001C3.36126 30.9442 3.08601 27.873 3.651 24.8307C4.04215 22.6867 4.91137 20.7309 6.14275 18.9346C7.22927 17.3555 8.79386 16.5297 10.6482 16.4573C13.4007 16.3414 16.1677 16.3559 18.9202 16.3993C20.6297 16.4283 21.9914 17.2541 23.1359 18.5C23.3532 18.7317 23.556 18.9925 23.8747 19.3692C23.8747 18.978 23.8747 18.7317 23.8747 18.4855C23.8747 12.9225 23.8892 7.35951 23.8603 1.78204C23.8603 1.0577 24.0341 0.507193 24.686 0.14502C38.6949 0.14502 52.6747 0.14502 66.6691 0.14502ZM65.09 29.0754C65.09 20.1659 65.09 11.3579 65.09 2.50639C52.1387 2.50639 39.2164 2.50639 26.2506 2.50639C26.2361 2.76715 26.2216 2.99894 26.2216 3.23073C26.2216 9.66293 26.2216 16.0951 26.2361 22.5273C26.2361 22.8895 26.3375 23.4255 26.5838 23.5704C27.9021 24.3816 29.2929 25.0915 30.6836 25.8593C33.0015 22.4259 35.2615 19.0649 37.5794 15.646C38.2313 16.0806 38.8542 16.5008 39.4916 16.9209C39.3323 17.1672 39.2164 17.37 39.086 17.5583C37.1158 20.4847 35.1601 23.4255 33.1609 26.3229C32.7697 26.8879 32.6393 27.308 33.1609 27.815C33.3202 27.9744 33.4361 28.2062 33.4796 28.4235C33.5955 29.003 33.9287 29.1044 34.4792 29.1044C44.4172 29.0899 54.3552 29.0899 64.2933 29.0899C64.5395 29.0754 64.7858 29.0754 65.09 29.0754ZM20.1516 37.3185C20.1516 36.9998 20.1516 36.71 20.1516 36.4058C20.1661 33.2042 20.1661 30.0026 20.1951 26.801C20.1951 26.0331 20.6586 25.5551 21.325 25.5551C21.9914 25.5551 22.455 26.0187 22.484 26.772C22.4985 26.9603 22.4405 27.1631 22.4985 27.3225C22.5999 27.5688 22.7013 27.902 22.9041 28.0179C24.9323 29.1623 26.9894 30.2778 29.0466 31.3933C29.655 31.7265 30.2635 31.6686 30.8285 31.2629C31.379 30.8573 31.6397 30.2488 31.4079 29.6549C31.2051 29.1334 30.785 28.5973 30.3069 28.3076C28.7279 27.3515 27.0764 26.5402 25.4683 25.6275C25.0772 25.4102 24.715 25.0625 24.4687 24.7004C23.5705 23.3531 22.7593 21.9768 21.8755 20.615C21.1222 19.4561 20.0647 18.7028 18.645 18.6738C16.1967 18.6448 13.7339 18.6303 11.2856 18.6883C9.76448 18.7173 8.50412 19.3112 7.76529 20.7164C7.31619 21.5857 6.82364 22.4404 6.49044 23.3531C5.23008 26.6995 5.75161 30.1909 5.70815 33.6388C5.69366 34.2038 6.09929 34.5804 6.73672 34.5515C7.33068 34.5225 7.62042 34.1603 7.67837 33.6098C7.72183 33.1897 7.69285 32.7696 7.69285 32.3494C7.69285 30.2488 7.67837 28.1338 7.69285 26.0331C7.69285 25.135 8.28682 24.5845 9.02565 24.7148C9.6341 24.8307 9.98179 25.2943 9.98179 26.0621C9.98179 29.5535 9.98179 33.0303 9.98179 36.5217C9.98179 36.768 9.98179 37.0287 9.98179 37.304C13.3862 37.3185 16.7182 37.3185 20.1516 37.3185Z" fill="black"/>
<path d="M45.0547 72.0002C44.7795 71.9712 44.5187 71.8988 44.2434 71.8988C38.4921 71.8988 32.7408 71.8988 26.9895 71.8988C25.6278 71.8988 25.2946 71.5511 25.309 70.1893C25.338 68.3495 25.4104 66.4952 25.396 64.6553C25.367 61.4682 26.7577 59.1068 29.3509 57.3684C34.3054 54.0654 41.1867 54.8622 44.9533 59.1793C46.2137 60.6425 46.8076 62.3519 46.8366 64.2642C46.8656 66.3648 46.8366 68.4799 46.8511 70.5805C46.8511 71.2469 46.5758 71.6815 46.0398 72.0147C45.7066 72.0002 45.3734 72.0002 45.0547 72.0002ZM44.5042 69.5664C44.5042 67.7121 44.5187 65.9447 44.5042 64.1628C44.4897 62.6851 43.9682 61.4103 42.9107 60.3817C39.4338 56.9773 33.8853 56.6586 29.9304 59.8167C28.5251 60.9467 27.7573 62.4099 27.7284 64.2352C27.6994 65.8722 27.6704 67.5093 27.6559 69.1463C27.6559 69.2767 27.6849 69.4071 27.7139 69.5519C33.3058 69.5664 38.8543 69.5664 44.5042 69.5664Z" fill="#FE4438"/>
<path d="M21.0496 72.0003C20.7743 71.9713 20.5135 71.8989 20.2383 71.8989C14.487 71.8989 8.73567 71.8989 2.98437 71.8989C1.6226 71.8989 1.27491 71.5512 1.30388 70.2039C1.33286 68.3061 1.40529 66.4228 1.3908 64.5251C1.37632 61.7146 2.52078 59.5126 4.70831 57.8031C9.0399 54.4132 15.559 54.5146 19.7892 58.0349C21.8029 59.7009 22.8315 61.845 22.8315 64.4526C22.8315 66.4373 22.817 68.422 22.8459 70.4212C22.8604 71.1166 22.6431 71.6526 22.0347 72.0003C21.7015 72.0003 21.3828 72.0003 21.0496 72.0003ZM20.4846 69.5665C20.4846 67.5673 20.5425 65.655 20.4701 63.7428C20.4266 62.4679 19.8761 61.3379 18.9634 60.4398C15.5011 57.0208 9.99604 56.6442 5.98316 59.7878C4.51998 60.9323 3.75217 62.4534 3.7232 64.3222C3.70871 65.9158 3.67974 67.4949 3.66525 69.0884C3.66525 69.2478 3.69423 69.3927 3.7232 69.552C9.30066 69.5665 14.8636 69.5665 20.4846 69.5665Z" fill="#FE4438"/>
<path d="M69.0449 72.0002C68.7696 71.9713 68.5089 71.8988 68.2336 71.8988C62.4823 71.8988 56.731 71.8988 50.9797 71.8988C49.6179 71.8988 49.2847 71.5511 49.3137 70.1894C49.3427 68.4364 49.4296 66.6835 49.3861 64.9306C49.2992 61.0481 51.168 58.4115 54.5145 56.702C58.9475 54.4276 64.1773 54.9926 67.8715 58.0928C69.8272 59.7443 70.8413 61.8449 70.8558 64.4091C70.8702 66.4228 70.8413 68.4365 70.8703 70.4356C70.8847 71.131 70.6529 71.6525 70.0445 72.0002C69.7113 72.0002 69.3781 72.0002 69.0449 72.0002ZM68.5089 69.5664C68.5089 67.6976 68.5234 65.9012 68.5089 64.1049C68.4944 62.6851 67.9874 61.4393 66.9878 60.4542C63.5544 57.0352 58.0348 56.6441 54.0075 59.7878C52.5443 60.9322 51.762 62.4389 51.7475 64.3222C51.7475 65.3507 51.7041 66.3793 51.6896 67.4079C51.6751 68.1177 51.6896 68.8421 51.6896 69.5809C57.296 69.5664 62.859 69.5664 68.5089 69.5664Z" fill="#FE4438"/>
<path d="M14.8638 15.0665C11.2711 15.0665 8.38818 12.1547 8.38818 8.54743C8.38818 4.94019 11.3001 2.02832 14.8783 2.02832C18.4711 2.02832 21.354 4.95468 21.354 8.56192C21.354 12.1692 18.4566 15.081 14.8638 15.0665ZM14.8493 4.34623C12.5604 4.36071 10.6771 6.27299 10.6916 8.57641C10.7061 10.8798 12.6039 12.7776 14.9073 12.7631C17.1962 12.7486 19.094 10.8219 19.0795 8.53295C19.0506 6.22953 17.1528 4.34623 14.8493 4.34623Z" fill="black"/>
<path d="M12.1114 53.4858C8.79392 53.5148 6.12833 50.8782 6.09936 47.5606C6.07038 44.3011 8.72149 41.5775 11.9666 41.5486C15.313 41.5196 18.0076 44.1707 18.0076 47.5172C18.0076 50.8057 15.3855 53.4713 12.1114 53.4858ZM15.7042 47.5462C15.7187 45.5325 14.0817 43.881 12.0825 43.8665C10.0833 43.852 8.43175 45.489 8.41726 47.5027C8.40278 49.5164 10.0253 51.1824 12.039 51.1969C14.0237 51.2114 15.6897 49.5454 15.7042 47.5462Z" fill="#FE4438"/>
<path d="M54.1378 47.5318C54.1233 44.2143 56.7744 41.5342 60.0774 41.5342C63.3659 41.5342 66.046 44.2287 66.0315 47.5318C66.017 50.8203 63.3804 53.4714 60.1209 53.4859C56.8033 53.5004 54.1378 50.8638 54.1378 47.5318ZM63.7136 47.5607C63.7281 45.5326 62.12 43.8955 60.1064 43.8666C58.1072 43.8376 56.4412 45.4891 56.4267 47.4883C56.4122 49.4875 58.0347 51.168 60.0339 51.197C62.0186 51.2114 63.6991 49.5599 63.7136 47.5607Z" fill="#FE4438"/>
<path d="M30.1182 47.546C30.1037 44.272 32.7404 41.5629 35.9854 41.5339C39.3319 41.505 42.012 44.1705 42.012 47.517C42.012 50.8056 39.3754 53.4567 36.1158 53.4856C32.7983 53.5146 30.1472 50.8635 30.1182 47.546ZM39.7086 47.488C39.6941 45.4744 38.0426 43.8373 36.0434 43.8518C34.0297 43.8663 32.4072 45.5323 32.4216 47.546C32.4361 49.5452 34.1021 51.2112 36.0868 51.1822C38.086 51.1677 39.7231 49.5017 39.7086 47.488Z" fill="#FE4438"/>
<path d="M59.208 6.22949C59.9468 6.22949 60.6567 6.22949 61.4245 6.22949C61.4245 12.879 61.4245 19.4995 61.4245 26.178C60.7146 26.178 59.9903 26.178 59.208 26.178C59.208 19.5575 59.208 12.908 59.208 6.22949Z" fill="black"/>
<path d="M45.9961 26.1926C45.2573 26.1926 44.5619 26.1926 43.8086 26.1926C43.8086 22.2956 43.8086 18.3986 43.8086 14.4727C44.5185 14.4727 45.2283 14.4727 45.9961 14.4727C45.9961 18.3407 45.9961 22.2376 45.9961 26.1926Z" fill="black"/>
<path d="M52.9644 15.1826C53.7466 15.1826 54.471 15.1826 55.2243 15.1826C55.2243 18.8478 55.2243 22.484 55.2243 26.1637C54.471 26.1637 53.7322 26.1637 52.9644 26.1637C52.9644 22.513 52.9644 18.8768 52.9644 15.1826Z" fill="black"/>
<path d="M50.7046 26.1927C49.9513 26.1927 49.2414 26.1927 48.4736 26.1927C48.4736 23.701 48.4736 21.2092 48.4736 18.6885C49.2125 18.6885 49.9223 18.6885 50.7046 18.6885C50.7046 21.1802 50.7046 23.672 50.7046 26.1927Z" fill="black"/>
</g>
<defs>
<clipPath id="clip0_164_874">
<rect width="72" height="72" fill="white"/>
</clipPath>
</defs>
</svg>
