<svg width="73" height="72" viewBox="0 0 73 72" fill="none" xmlns="http://www.w3.org/2000/svg">
<g clip-path="url(#clip0_164_998)">
<path d="M16.9564 34.9242C17.7425 34.9242 18.435 34.9242 19.221 34.9242C19.221 29.7024 19.221 24.4994 19.221 19.2777C22.9829 19.2777 26.67 19.2777 30.4319 19.2777C30.4319 24.4807 30.4319 29.665 30.4319 34.9242C31.2179 34.9242 31.9291 34.9242 32.6965 34.9242C32.6965 28.2239 32.6965 21.5423 32.6965 14.8046C36.4584 14.8046 40.1641 14.8046 43.926 14.8046C43.926 15.8714 43.926 16.9382 43.926 18.1173C49.2787 14.449 54.9122 13.6629 60.8265 16.2083C65.1498 18.0611 68.1631 21.299 69.8288 25.7159C73.2351 34.7744 68.3128 44.9559 58.6554 47.8194C58.5431 48.9424 58.4308 50.0653 58.3185 51.3567C59.4976 52.1428 59.7222 53.509 59.7035 55.0437C59.6473 58.5062 59.7035 61.9686 59.6848 65.431C59.6661 68.0326 57.757 70.2785 55.2491 70.7838C52.6289 71.3265 49.99 70.0164 48.9793 67.5834C48.6611 66.8347 48.5114 65.9551 48.4927 65.1316C48.4365 61.9686 48.474 58.8243 48.474 55.6614C48.474 55.4368 48.474 55.2122 48.474 54.8566C47.5569 56.8779 46.2842 57.7201 44.0196 57.3271C43.7763 58.5623 43.5143 59.7976 43.2897 61.0328C42.8966 63.1664 41.6614 64.1958 39.5091 64.1958C30.5254 64.1958 21.5418 64.1958 12.5582 64.1958C10.3871 64.1958 9.15189 63.1851 8.75886 61.0515C8.53427 59.8163 8.27224 58.581 8.04765 57.4206C7.33645 57.3832 6.68139 57.4581 6.06377 57.3084C4.77237 56.9902 3.96759 56.1292 3.66814 54.8191C3.36868 53.5465 3.64942 52.3112 4.71623 51.6187C6.13863 50.7016 6.19478 49.7284 5.68945 48.2686C4.95953 46.1537 4.4542 43.9639 3.93016 42.0923C3.08794 41.6057 2.33931 41.3437 1.83398 40.8384C1.0292 40.0336 1.08534 36.7396 1.81526 35.8225C2.26445 35.261 2.86335 34.9803 3.59327 34.9803C4.28576 34.9803 4.99696 34.9803 5.76432 34.9803C5.76432 31.2558 5.76432 27.5501 5.76432 23.7882C9.54492 23.7882 13.2507 23.7882 17.0126 23.7882C16.9564 27.4752 16.9564 31.1623 16.9564 34.9242ZM38.3112 61.8937C38.7604 61.8937 39.1347 61.8937 39.5091 61.8937C40.4823 61.8937 40.8192 61.613 40.9876 60.6772C41.2496 59.3297 41.5117 57.9634 41.8111 56.6346C41.9421 56.0731 41.8485 55.7175 41.3619 55.3432C36.9263 51.7685 32.4906 48.1563 28.0736 44.5441C27.5122 44.0762 27.0068 43.7019 26.2208 43.9078C25.9213 43.9826 25.5657 43.8703 25.2475 43.8891C24.9481 43.9265 24.6112 43.9639 24.3866 44.1324C23.3011 44.9746 22.2343 45.8542 21.1675 46.7339C17.6115 49.6348 14.0555 52.5171 10.4994 55.3993C10.1438 55.6988 9.97539 55.9421 10.0877 56.4474C10.4246 57.9073 10.6679 59.3858 10.9673 60.8457C11.1171 61.5569 11.4914 61.875 12.24 61.8937C12.6705 61.9125 13.1197 61.8937 13.6063 61.8937C13.6063 59.9847 13.5876 58.1318 13.6063 56.2977C13.625 54.3887 15.1223 52.9101 16.9938 52.9101C18.828 52.9288 20.3066 54.3887 20.3253 56.279C20.344 57.9073 20.3253 59.5543 20.3253 61.1825C20.3253 61.4071 20.344 61.6317 20.3627 61.8563C21.1301 61.8563 21.8225 61.8563 22.5712 61.8563C22.5712 61.5756 22.5712 61.3323 22.5712 61.0702C22.5712 58.0757 22.5712 55.0812 22.5712 52.0866C22.5712 51.7872 22.5712 51.469 22.6273 51.1883C22.9642 49.4664 24.4989 48.2873 26.2395 48.437C27.9426 48.5867 29.2902 50.0092 29.3089 51.7872C29.3276 54.894 29.3089 58.0008 29.3089 61.1264C29.3089 61.3697 29.3089 61.6317 29.3089 61.8563C30.1137 61.8563 30.8249 61.8563 31.5548 61.8563C31.5548 60.0596 31.5548 58.3003 31.5548 56.541C31.5548 54.4448 32.9772 52.9288 34.9237 52.9288C36.8701 52.9288 38.2925 54.4448 38.2925 56.541C38.33 58.3003 38.3112 60.0409 38.3112 61.8937ZM54.07 16.9943C46.0222 16.9756 39.4529 23.5262 39.4529 31.574C39.4342 39.6218 45.9848 46.1911 54.0326 46.1911C62.0804 46.2098 68.6497 39.6593 68.6497 31.6114C68.6497 23.5636 62.0991 16.9943 54.07 16.9943ZM50.6824 59.7976C50.6824 61.613 50.6637 63.4472 50.6824 65.2626C50.7012 67.1342 52.1797 68.6127 54.0139 68.6315C55.8855 68.6502 57.4014 67.1716 57.4014 65.2439C57.4202 61.5756 57.4202 57.9073 57.4014 54.2389C57.4014 53.3219 56.9897 52.9288 56.0726 52.9101C54.7438 52.9101 53.415 52.9101 52.0674 52.9101C51.0568 52.9101 50.6824 53.3032 50.6637 54.3138C50.6637 56.148 50.6824 57.9821 50.6824 59.7976ZM28.1859 21.5049C25.9213 21.5049 23.7316 21.5049 21.5231 21.5049C21.5231 25.9592 21.5231 30.3762 21.5231 34.868C23.3947 32.7905 25.6032 32.2104 28.1859 33.1274C28.1859 29.2158 28.1859 25.3978 28.1859 21.5049ZM34.9985 17.0131C34.9985 23.0209 34.9985 28.9725 34.9985 34.9054C35.8595 34.9054 36.6642 34.9054 37.469 34.9054C37.469 34.7744 37.4877 34.6809 37.469 34.5873C36.5894 29.2532 37.9369 24.5556 41.4368 20.4381C41.5491 20.3071 41.6614 20.1199 41.6801 19.9514C41.6988 18.9782 41.6988 18.005 41.6988 16.9943C39.4155 17.0131 37.2257 17.0131 34.9985 17.0131ZM8.02894 34.9054C10.2748 34.9054 12.4646 34.9054 14.6918 34.9054C14.6918 31.9109 14.6918 28.9538 14.6918 26.0154C12.4459 26.0154 10.2374 26.0154 8.02894 26.0154C8.02894 29.0099 8.02894 31.9483 8.02894 34.9054ZM29.4773 42.7848C29.6645 42.9346 29.8517 43.103 30.0575 43.2714C32.0414 44.881 34.0066 46.4906 35.9905 48.1001C38.7043 50.3086 41.4181 52.5358 44.1506 54.7256C44.45 54.9689 44.9367 55.1747 45.2735 55.1186C45.6104 55.0624 45.9847 54.6694 46.1345 54.3325C46.3591 53.8272 46.0409 53.4154 45.6292 53.0786C41.3058 49.5787 37.0011 46.0601 32.6965 42.5415C32.0976 42.0549 31.5174 41.587 30.9372 41.1191C30.3944 41.6806 29.9452 42.2046 29.4773 42.7848ZM21.0365 41.1004C20.8493 41.2501 20.6809 41.3624 20.5124 41.4934C15.796 45.3302 11.0983 49.1669 6.38194 53.0037C5.68945 53.5652 5.55844 54.2015 6.00762 54.7443C6.4568 55.287 7.11186 55.2683 7.80435 54.7068C11.0048 52.0866 14.2239 49.4851 17.4243 46.8649C19.1087 45.4986 20.7932 44.1324 22.4589 42.7661C21.991 42.2046 21.5418 41.6806 21.0365 41.1004ZM3.53713 39.416C3.66814 39.4347 3.76172 39.4534 3.8553 39.4534C8.9273 39.4534 13.9993 39.4534 19.0713 39.4534C19.3146 39.4534 19.5579 39.3224 19.7638 39.2288C20.6434 38.7983 20.2504 37.9561 20.4376 37.2636C14.7667 37.2636 9.17061 37.2636 3.53713 37.2636C3.53713 37.9561 3.53713 38.6486 3.53713 39.416ZM6.11992 41.718C6.77497 44.0949 7.41131 46.3783 8.06637 48.7365C10.9673 46.3783 13.7747 44.0949 16.6944 41.718C13.0822 41.718 9.65722 41.718 6.11992 41.718ZM25.9775 34.9616C24.1433 34.9616 22.6273 36.4401 22.5899 38.2743C22.5712 40.1459 24.0872 41.6806 25.94 41.6993C27.7742 41.6993 29.2902 40.202 29.3276 38.3866C29.365 36.4963 27.8491 34.9616 25.9775 34.9616ZM35.2044 41.6993C38.1802 44.1324 40.9876 46.4157 43.8511 48.7552C44.1319 47.782 44.3939 46.9398 44.5811 46.0788C44.6372 45.8729 44.5249 45.5361 44.3565 45.3863C43.1961 44.2447 41.9983 43.1217 40.8192 42.0175C40.6694 41.8677 40.4448 41.718 40.239 41.718C38.6481 41.6806 37.0386 41.6993 35.2044 41.6993ZM27.0817 61.875C27.0817 58.4687 27.1004 55.1373 27.0817 51.8059C27.0817 51.1134 26.5389 50.6455 25.9026 50.6829C25.2475 50.7204 24.8545 51.207 24.8545 51.993C24.8545 55.1747 24.8545 58.3377 24.8545 61.5194C24.8545 61.6317 24.8732 61.744 24.8919 61.875C25.6219 61.875 26.3144 61.875 27.0817 61.875ZM48.3242 53.2844C48.867 52.5171 49.3723 51.8059 49.7654 51.2444C49.6905 50.215 49.6344 49.2792 49.5408 48.3434C49.5221 48.1189 49.3723 47.8007 49.2039 47.7258C48.4178 47.3889 47.613 47.1082 46.7521 46.8087C46.4714 47.8007 46.2093 48.7926 45.9099 49.7846C45.7789 50.1776 45.8725 50.4209 46.1906 50.6642C47.1077 51.3567 48.0996 52.0118 48.3242 53.2844ZM31.4987 37.2075C31.5361 37.4695 31.5548 37.6567 31.5735 37.8438C31.6858 39.1539 32.0227 39.4534 33.3328 39.4534C34.1002 39.4534 34.8675 39.4534 35.6536 39.4534C36.7765 39.4534 37.9182 39.4534 39.0786 39.4534C38.33 37.2075 38.33 37.2075 36.1402 37.2075C35.822 37.2075 35.4851 37.2075 35.167 37.2075C33.9317 37.2075 32.7152 37.2075 31.4987 37.2075ZM18.0981 61.8937C18.0981 60.0596 18.0981 58.3003 18.0981 56.5223C18.0981 55.6988 17.6863 55.1935 17.0126 55.1747C16.3201 55.156 15.8709 55.6801 15.8709 56.541C15.8709 58.1506 15.8709 59.7601 15.8709 61.3697C15.8709 61.5381 15.9083 61.7253 15.927 61.8937C16.657 61.8937 17.3307 61.8937 18.0981 61.8937ZM33.8381 61.8563C34.6242 61.8563 35.3354 61.8563 36.084 61.8563C36.084 59.966 36.1028 58.1318 36.084 56.2977C36.084 55.6426 35.5787 55.1747 34.9798 55.1747C34.3622 55.1747 33.8756 55.6239 33.8569 56.279C33.8194 58.1131 33.8381 59.966 33.8381 61.8563ZM51.8054 48.3622C51.8054 48.7926 51.768 49.2605 51.8241 49.7097C51.899 50.2525 52.2546 50.6268 52.7973 50.6455C53.6395 50.7016 54.4818 50.7016 55.324 50.6455C55.8667 50.6081 56.2223 50.215 56.2785 49.6723C56.3346 49.2231 56.2972 48.7552 56.2972 48.3622C54.7438 48.3622 53.3027 48.3622 51.8054 48.3622Z" fill="#FFB715"/>
<path d="M6.6247 22.3093C6.06322 21.7104 5.57661 21.205 4.95898 20.5313C9.31979 16.2828 13.718 11.9781 18.1911 7.59859C20.3434 9.78835 22.5519 12.0343 24.7042 14.224C28.3164 10.6119 31.8537 7.07455 35.391 3.53725C33.8002 3.53725 32.1906 3.53725 30.5062 3.53725C30.5062 2.7699 30.5062 2.05869 30.5062 1.31006C33.4633 1.31006 36.4204 1.31006 39.3962 1.31006C39.3962 4.26717 39.3962 7.20556 39.3962 10.2001C38.685 10.2001 37.9738 10.2001 37.2065 10.2001C37.2065 8.57182 37.2065 6.94354 37.2065 5.29654C33.1077 9.39532 29.0463 13.4567 24.9663 17.5367C22.6081 15.1785 20.3996 12.9513 18.1724 10.7241C14.2982 14.617 10.4802 18.4538 6.6247 22.3093Z" fill="black"/>
<path d="M66.3847 31.6114C66.366 38.424 60.8073 43.9452 53.9948 43.9452C47.1822 43.9265 41.661 38.3491 41.6984 31.5366C41.7171 24.7614 47.2758 19.2402 54.0696 19.2402C60.8635 19.2402 66.4034 24.7988 66.3847 31.6114ZM54.0696 21.4861C48.511 21.4674 43.9443 25.978 43.9256 31.5179C43.9069 37.1139 48.4174 41.6806 53.9948 41.6993C59.5534 41.718 64.1201 37.2075 64.1388 31.6676C64.1762 26.0528 59.647 21.4861 54.0696 21.4861Z" fill="black"/>
<path d="M46.2275 30.4883C46.9575 30.4883 47.6499 30.4883 48.3799 30.4883C48.3799 31.1995 48.3799 31.892 48.3799 32.6406C47.6874 32.6406 46.9762 32.6406 46.2275 32.6406C46.2275 31.9668 46.2275 31.2556 46.2275 30.4883Z" fill="black"/>
<path d="M52.8906 32.6779C52.1607 32.6779 51.4682 32.6779 50.7383 32.6779C50.7383 31.9667 50.7383 31.2555 50.7383 30.5068C51.4495 30.5068 52.1607 30.5068 52.8906 30.5068C52.8906 31.218 52.8906 31.9105 52.8906 32.6779Z" fill="black"/>
<path d="M55.1924 32.6592C55.1924 31.9105 55.1924 31.218 55.1924 30.5068C55.9223 30.5068 56.5961 30.5068 57.3447 30.5068C57.3447 31.1993 57.3447 31.9105 57.3447 32.6592C56.6709 32.6592 55.9597 32.6592 55.1924 32.6592Z" fill="black"/>
<path d="M59.7031 30.4883C60.4143 30.4883 61.1068 30.4883 61.8555 30.4883C61.8555 31.1808 61.8555 31.892 61.8555 32.6593C61.163 32.6593 60.4518 32.6593 59.7031 32.6593C59.7031 31.9481 59.7031 31.2369 59.7031 30.4883Z" fill="black"/>
</g>
<defs>
<clipPath id="clip0_164_998">
<rect width="72.0187" height="72" fill="white"/>
</clipPath>
</defs>
</svg>
