<svg width="116" height="110" viewBox="0 0 116 110" fill="none" xmlns="http://www.w3.org/2000/svg">
<path d="M94.1357 88.4372C98.0994 82.398 103.708 77.4785 107.611 71.4491C108.273 70.4269 111.205 67.6278 111.141 66.3475M111.141 66.3475C111.056 64.6852 106.58 63.929 105.541 63.7237C100.304 62.6891 91.1518 60.9669 85.328 60.4484M111.141 66.3475C93.4835 75.5599 62.1346 73.9275 54.9637 57.8708M54.9637 57.8708C53.0652 53.6197 52.8614 48.3576 55.055 42.0181C59.2031 30.0317 74.967 36.584 71.4345 47.6944C69.4834 53.8284 61.6775 56.7655 54.9637 57.8708ZM54.9637 57.8708C53.0353 58.1882 51.1971 58.3546 49.6135 58.4022C29.9802 58.992 9.43663 44.8322 1.99933 27.6424" stroke="#3BB64B" stroke-width="3" stroke-miterlimit="1.5" stroke-linecap="round" stroke-linejoin="round"/>
</svg>
