<svg width="113" height="64" viewBox="0 0 113 64" fill="none" xmlns="http://www.w3.org/2000/svg">
<path d="M18.8096 62.4372C14.8459 56.398 9.23717 51.4785 5.33396 45.4491C4.67185 44.4269 1.74045 41.6278 1.80475 40.3475M1.80475 40.3475C1.88922 38.6852 6.36528 37.929 7.4041 37.7237C12.6417 36.6891 21.7935 34.9669 27.6173 34.4484M1.80475 40.3475C19.4618 49.5599 50.8107 47.9275 57.9816 31.8708M57.9816 31.8708C59.8801 27.6197 60.0839 22.3576 57.8903 16.0181C53.7423 4.03174 37.9783 10.584 41.5108 21.6944C43.4619 27.8284 51.2678 30.7655 57.9816 31.8708ZM57.9816 31.8708C59.91 32.1882 61.7482 32.3546 63.3318 32.4022C82.9651 32.992 103.509 18.8322 110.946 1.64241" stroke="#3CA04B" stroke-width="3" stroke-miterlimit="1.5" stroke-linecap="round" stroke-linejoin="round"/>
</svg>
