<svg width="72" height="72" viewBox="0 0 72 72" fill="none" xmlns="http://www.w3.org/2000/svg">
<g clip-path="url(#clip0_44_169)">
<path d="M67.0817 8H4.91827C3.30656 8 2 9.30367 2 10.9118V22.0882C2 23.6963 3.30656 25 4.91827 25H67.0817C68.6935 25 70 23.6963 70 22.0882V10.9118C70 9.30367 68.6935 8 67.0817 8Z" fill="#33D9C4"/>
<path d="M2 25.2475H70V65.75C70 66.8772 69.5477 67.9582 68.7426 68.7552C67.9376 69.5522 66.8456 70 65.7071 70H6.29293C5.15437 70 4.06245 69.5522 3.25737 68.7552C2.45229 67.9582 2 66.8772 2 65.75V25.2475ZM55.3182 2H61.7576V16.875H55.3182V2ZM10.2424 2H16.6818V16.875H10.2424V2Z" fill="white"/>
<path d="M31.8084 44H40.1916V51H31.8084V44ZM15 44H23.3832V51H15V44ZM48.6168 44H57V51H48.6168V44Z" fill="#090909"/>
<path d="M71.994 48.7059V12.7059C72.0031 11.4153 71.6189 10.1526 70.8927 9.08579C70.1665 8.01899 69.1327 7.1987 67.9288 6.73412C67.252 6.47943 66.5346 6.35026 65.8115 6.35294H63.5248V0H52.9383V6.35294H23.2962V10.5882H52.9383V19.0588H63.5248V10.5882H65.6421C66.2036 10.5882 66.7422 10.8113 67.1393 11.2085C67.5363 11.6056 67.7594 12.1442 67.7594 12.7059V21.1765C67.7594 21.7381 67.5363 22.2767 67.1393 22.6739C66.7422 23.071 66.2036 23.2941 65.6421 23.2941H6.3579C5.79635 23.2941 5.25781 23.071 4.86074 22.6739C4.46367 22.2767 4.2406 21.7381 4.2406 21.1765V12.7059C4.2406 12.1442 4.46367 11.6056 4.86074 11.2085C5.25781 10.8113 5.79635 10.5882 6.3579 10.5882H8.47519V19.0588H19.0617V0H8.47519V6.35294H6.3579C4.67327 6.35294 3.05765 7.02227 1.86644 8.21367C0.675231 9.40508 0.00601633 11.021 0.00601633 12.7059V65.0329C-0.0688182 66.7976 0.556913 68.5203 1.74678 69.8254C2.93665 71.1305 4.59415 71.9122 6.3579 72H65.6421C67.4059 71.9122 69.0633 71.1305 70.2532 69.8254C71.4431 68.5203 72.0688 66.7976 71.994 65.0329V61.4118H67.7594V65.0329C67.8211 65.6724 67.6364 66.3113 67.2428 66.8191C66.8493 67.3269 66.2767 67.6651 65.6421 67.7647H6.3579C5.72332 67.6651 5.15073 67.3269 4.75719 66.8191C4.36364 66.3113 4.17886 65.6724 4.2406 65.0329V27.1482C4.91683 27.4048 5.63467 27.534 6.3579 27.5294H65.6421C66.3653 27.534 67.0832 27.4048 67.7594 27.1482V48.7059H71.994ZM59.2902 14.8235H57.1729V4.23529H59.2902V14.8235ZM12.7098 4.23529H14.8271V14.8235H12.7098V4.23529Z" fill="#090909" stroke="white" stroke-width="2"/>
<path d="M68 53H72V57H68V53Z" fill="#090909"/>
</g>
<defs>
<clipPath id="clip0_44_169">
<rect width="72" height="72" fill="white"/>
</clipPath>
</defs>
</svg>
