<svg width="72" height="72" viewBox="0 0 72 72" fill="none" xmlns="http://www.w3.org/2000/svg">
<path d="M48.375 14.625C48.375 19.5975 44.3475 23.625 39.375 23.625C39.375 18.6525 43.4025 14.625 48.375 14.625Z" fill="white"/>
<path d="M43.875 19.125C43.875 21.6112 41.8612 23.625 39.375 23.625C36.8888 23.625 34.875 21.6112 34.875 19.125C34.875 16.6388 39.375 12.375 39.375 12.375C39.375 12.375 43.875 16.6388 43.875 19.125Z" fill="white"/>
<path d="M39.375 23.625C34.4025 23.625 30.375 19.5975 30.375 14.625C35.3475 14.625 39.375 18.6525 39.375 23.625Z" fill="white"/>
<path d="M21.375 49.5V69.75H16.875L13.5 54L10.125 69.75H5.625V49.5" fill="white"/>
<path d="M11.25 27H15.75C19.4738 27 22.5 30.0263 22.5 33.75V49.5H4.5V33.75C4.5 30.0263 7.52625 27 11.25 27Z" fill="#FE4438"/>
<path d="M52.8749 58.5L44.9999 52.875L37.5749 62.775C36.4611 64.26 37.5186 66.375 39.3749 66.375H40.5449C41.2311 66.375 41.8724 66.06 42.2999 65.5312L46.1249 60.75L52.2449 65.115C53.3924 65.9363 54.7649 66.375 56.1711 66.375H61.8861C65.6099 66.375 68.6361 63.3487 68.6361 59.625V45C68.6361 41.2763 65.6099 38.25 61.8861 38.25H58.5111C54.7874 38.25 51.7611 41.2763 51.7611 45L52.8861 58.5H52.8749Z" fill="#FE4438"/>
<path d="M22.8374 36.0787L19.1474 33.4462C18.0674 32.67 16.5824 32.7937 15.6374 33.7387C14.4224 34.9537 14.6249 36.9787 16.0536 37.9237L22.8374 42.4462L35.1224 32.895C35.5849 32.528 35.8864 31.9954 35.9631 31.41C36.0398 30.8245 35.8856 30.2322 35.5332 29.7585C35.1809 29.2848 34.6579 28.9668 34.0752 28.8719C33.4925 28.7769 32.8957 28.9125 32.4111 29.25L22.8374 36.09V36.0787Z" fill="white"/>
<path d="M13.5 23.625C17.2279 23.625 20.25 20.6029 20.25 16.875C20.25 13.1471 17.2279 10.125 13.5 10.125C9.77208 10.125 6.75 13.1471 6.75 16.875C6.75 20.6029 9.77208 23.625 13.5 23.625Z" fill="white"/>
<path d="M56.25 49.5V45.5625C56.25 44.8166 56.5463 44.1012 57.0738 43.5738C57.6012 43.0463 58.3166 42.75 59.0625 42.75C59.8084 42.75 60.5238 43.0463 61.0512 43.5738C61.5787 44.1012 61.875 44.8166 61.875 45.5625V54H45C43.7625 54 42.75 52.9875 42.75 51.75C42.75 50.5125 43.7625 49.5 45 49.5H56.25Z" fill="white"/>
<path d="M60.75 34.875C64.4779 34.875 67.5 31.8529 67.5 28.125C67.5 24.3971 64.4779 21.375 60.75 21.375C57.0221 21.375 54 24.3971 54 28.125C54 31.8529 57.0221 34.875 60.75 34.875Z" fill="white"/>
<path d="M13.5 24.75C17.8425 24.75 21.375 21.2175 21.375 16.875C21.375 12.5325 17.8425 9 13.5 9C9.1575 9 5.625 12.5325 5.625 16.875C5.625 21.2175 9.1575 24.75 13.5 24.75ZM13.5 11.25C16.605 11.25 19.125 13.77 19.125 16.875C19.125 19.98 16.605 22.5 13.5 22.5C10.395 22.5 7.875 19.98 7.875 16.875C7.875 13.77 10.395 11.25 13.5 11.25ZM52.875 28.125C52.875 32.4675 56.4075 36 60.75 36C65.0925 36 68.625 32.4675 68.625 28.125C68.625 23.7825 65.0925 20.25 60.75 20.25C56.4075 20.25 52.875 23.7825 52.875 28.125ZM60.75 22.5C63.855 22.5 66.375 25.02 66.375 28.125C66.375 31.23 63.855 33.75 60.75 33.75C57.645 33.75 55.125 31.23 55.125 28.125C55.125 25.02 57.645 22.5 60.75 22.5Z" fill="#090909"/>
<path d="M69.75 59.625V45C69.75 40.6575 66.2175 37.125 61.875 37.125H58.5C54.1575 37.125 50.625 40.6575 50.625 45V48.375H45C43.1437 48.375 41.625 49.8937 41.625 51.75C41.625 52.695 42.0075 53.5387 42.6375 54.1575L36.675 62.1C35.8987 63.135 35.775 64.485 36.3488 65.6325C36.6075 66.15 36.99 66.5775 37.44 66.8925L34.5487 68.625H22.4888V50.625C23.1075 50.625 23.6138 50.1188 23.6138 49.5V43.2563L35.7975 33.7725C36.5625 33.1763 37.0462 32.2762 37.1025 31.2975C37.1587 30.3188 36.7987 29.3738 36.1125 28.6875C35.5449 28.1171 34.7926 27.7677 33.9907 27.7017C33.1887 27.6357 32.3895 27.8576 31.7362 28.3275L23.6138 34.1325V33.75C23.6138 29.4075 20.0812 25.875 15.7387 25.875H11.2387C6.89625 25.875 3.36375 29.4075 3.36375 33.75V49.5C3.36375 50.1188 3.87 50.625 4.48875 50.625V68.625H1.125V70.875H34.875C35.0775 70.875 35.28 70.8187 35.4487 70.7175L40.8037 67.5H70.8638V65.25H67.365C68.1167 64.5188 68.7141 63.6442 69.1218 62.678C69.5295 61.7118 69.7393 60.6737 69.7388 59.625H69.75ZM23.49 36.99L33.0637 30.15C33.525 29.8237 34.1437 29.8687 34.5375 30.2738C34.7738 30.51 34.8975 30.825 34.875 31.1625C34.8525 31.5 34.695 31.7925 34.4362 31.995L22.7925 41.0513L16.6838 36.9787C16.2787 36.7087 16.0312 36.2812 15.9862 35.8088C15.9412 35.3363 16.11 34.8638 16.4475 34.5262C16.714 34.2569 17.068 34.0918 17.4456 34.0608C17.8233 34.0299 18.1995 34.1351 18.5063 34.3575L22.1962 36.99C22.59 37.2713 23.1075 37.2713 23.5012 36.99H23.49ZM11.52 68.625L13.5 59.3662L15.48 68.625H11.5087H11.52ZM20.25 68.625H17.7863L14.6025 53.7638C14.49 53.2463 14.0288 52.875 13.5 52.875C12.9712 52.875 12.51 53.2463 12.3975 53.7638L9.21375 68.625H6.75V50.625H20.25V68.625ZM21.375 48.375H5.625V33.75C5.625 30.645 8.145 28.125 11.25 28.125H15.75C18.8213 28.125 21.3075 30.5887 21.3638 33.6488L19.8 32.5238C19.0583 31.9947 18.1533 31.7452 17.2453 31.8193C16.3373 31.8934 15.4848 32.2864 14.8387 32.9288C14.0175 33.75 13.6125 34.875 13.7362 36.0225C13.8488 37.17 14.4675 38.205 15.435 38.8462L21.3862 42.8062V48.3638L21.375 48.375ZM45 50.625H56.25C56.8688 50.625 57.375 50.1188 57.375 49.5V45.5625C57.375 44.6287 58.1287 43.875 59.0625 43.875C59.9963 43.875 60.75 44.6287 60.75 45.5625V52.875H45C44.3812 52.875 43.875 52.3688 43.875 51.75C43.875 51.1312 44.3812 50.625 45 50.625ZM50.9738 55.5412L50.4562 55.125H50.8725L50.9738 55.5412ZM43.965 65.25L46.3387 62.28L50.5013 65.25H43.965ZM61.875 65.25H56.16C54.9787 65.25 53.8538 64.89 52.8975 64.2038L46.7775 59.8387C46.5442 59.6699 46.2547 59.5978 45.9695 59.6377C45.6843 59.6775 45.4256 59.8262 45.2475 60.0525L41.4225 64.8338C41.3177 64.9663 41.1844 65.0736 41.0325 65.1476C40.8806 65.2216 40.714 65.2605 40.545 65.2612H39.375C38.9362 65.2612 38.565 65.025 38.3625 64.6425C38.2663 64.4555 38.2257 64.2448 38.2457 64.0354C38.2656 63.826 38.3452 63.6267 38.475 63.4613L44.7412 55.1138C44.8312 55.1138 44.91 55.1362 45 55.1362H46.8563L52.1775 59.3888C52.38 59.5575 52.6275 59.6362 52.875 59.6362C53.0453 59.635 53.2131 59.5954 53.3659 59.5202C53.5187 59.4451 53.6526 59.3364 53.7575 59.2023C53.8624 59.0681 53.9357 58.9121 53.9718 58.7456C54.008 58.5792 54.0061 58.4068 53.9663 58.2412L53.19 55.1362H61.875C62.4938 55.1362 63 54.63 63 54.0112V45.5737C63 43.4025 61.2337 41.6362 59.0625 41.6362C56.8913 41.6362 55.125 43.4025 55.125 45.5737V48.3862H52.875V45.0112C52.875 41.9062 55.395 39.3862 58.5 39.3862H61.875C64.98 39.3862 67.5 41.9062 67.5 45.0112V59.6362C67.5 62.7412 64.98 65.2612 61.875 65.2612V65.25ZM39.375 24.75C42.075 24.75 44.6175 23.7038 46.5412 21.78C47.4813 20.841 48.2266 19.7255 48.7344 18.4977C49.2421 17.2698 49.5023 15.9537 49.5 14.625C49.5 14.0063 48.9938 13.5 48.375 13.5C46.5385 13.4969 44.7365 13.999 43.1662 14.9513C41.985 13.3425 40.59 11.97 40.1512 11.5538C39.9434 11.3561 39.6675 11.2458 39.3806 11.2458C39.0938 11.2458 38.8179 11.3561 38.61 11.5538C38.5312 11.6325 36.9225 13.1512 35.595 14.9625C34.0215 14.0067 32.216 13.5008 30.375 13.5C29.7563 13.5 29.25 14.0063 29.25 14.625C29.25 20.205 33.795 24.75 39.375 24.75ZM47.16 15.84C46.9012 17.4825 46.1475 18.99 44.955 20.1938C44.9325 20.2163 44.91 20.2275 44.8875 20.25C44.9663 19.89 45 19.5075 45 19.125C45 18.4163 44.7525 17.64 44.3587 16.8525C45.2192 16.3391 46.1701 15.9954 47.16 15.84ZM39.3862 13.9613C40.9837 15.6263 42.7612 17.9438 42.7612 19.1138C42.7612 20.61 41.7713 21.87 40.4212 22.3088C40.1224 20.0244 39.0552 17.9098 37.395 16.3125C38.07 15.4012 38.835 14.535 39.3975 13.95L39.3862 13.9613ZM38.16 22.3988C34.7962 21.87 32.1187 19.2038 31.6012 15.84C34.965 16.3687 37.6425 19.035 38.16 22.3988ZM38.25 5.625H40.5V7.875H38.25V5.625ZM38.25 1.125H40.5V3.375H38.25V1.125ZM36 3.375H38.25V5.625H36V3.375ZM40.5 3.375H42.75V5.625H40.5V3.375ZM51.75 12.375H54V14.625H51.75V12.375ZM51.75 7.875H54V10.125H51.75V7.875ZM49.5 10.125H51.75V12.375H49.5V10.125ZM54 10.125H56.25V12.375H54V10.125ZM24.75 12.375H27V14.625H24.75V12.375ZM24.75 7.875H27V10.125H24.75V7.875ZM22.5 10.125H24.75V12.375H22.5V10.125ZM27 10.125H29.25V12.375H27V10.125Z" fill="#090909"/>
</svg>
