<svg width="72" height="72" viewBox="0 0 72 72" fill="none" xmlns="http://www.w3.org/2000/svg">
<g clip-path="url(#clip0_44_121)">
<path d="M15.5173 6H54.48C57.088 6 59.312 7.88533 59.7413 10.456L63 30H7L10.256 10.456C10.6853 7.88533 12.912 6 15.5173 6Z" fill="white"/>
<path d="M62.72 30H7.28C4.3628 30 2 32.4165 2 35.4V51.6V54.3C2 55.7904 3.18272 57 4.64 57H15.2C16.6573 57 17.84 55.7904 17.84 54.3V51.6H52.16V54.3C52.16 55.7904 53.3427 57 54.8 57H65.36C66.8173 57 68 55.7904 68 54.3V51.6V35.4C68 32.4192 65.6372 30 62.72 30Z" fill="white"/>
<path d="M49.1173 46H20.8827L11 30H59L49.1173 46Z" fill="#7AC143"/>
<path d="M11.9565 65H6.65217C5.18817 65 4 63.8053 4 62.3333V57H14.6087V62.3333C14.6087 63.8053 13.4205 65 11.9565 65ZM62.3478 65H57.0435C55.5795 65 54.3913 63.8053 54.3913 62.3333V57H65V62.3333C65 63.8053 63.8118 65 62.3478 65Z" fill="#7AC143"/>
<path d="M6.71429 25H1.57143C0.152 25 -1 23.8053 -1 22.3333V19.6667C-1 18.1947 0.152 17 1.57143 17H8" fill="white"/>
<path d="M8 17H1.57143C0.152 17 -1 18.2199 -1 19.7229V22.4459C-1 23.6549 -0.241429 24.646 0.787143 25L7.93057 17.4357L8 17Z" fill="#7AC143"/>
<path d="M61 17H68.1429C69.72 17 71 18.1947 71 19.6667V22.3333C71 23.8053 69.72 25 68.1429 25H61.9514" fill="white"/>
<path d="M67.7363 17H61L61.8353 24L69 17.3335C68.6201 17.1404 68.2024 17 67.7363 17Z" fill="#7AC143"/>
<path d="M15 46H7V38H9.66667L15 46Z" fill="#7AC143"/>
<path d="M55 46H63V38H60.3333L55 46Z" fill="#7AC143"/>
<path d="M67.6731 55C66.9406 55 66.3462 54.4176 66.3462 53.7V35.5C66.3462 33.3498 64.5601 31.6 62.3654 31.6H6.63462C4.43988 31.6 2.65385 33.3498 2.65385 35.5V53.7C2.65385 54.4176 2.05938 55 1.32692 55C0.594462 55 0 54.4176 0 53.7V35.5C0 31.9146 2.97496 29 6.63462 29H62.3654C66.025 29 69 31.9146 69 35.5V53.7C69 54.4176 68.4055 55 67.6731 55Z" fill="#090909"/>
<path d="M54.6875 53H15.3125C14.588 53 14 52.328 14 51.5C14 50.672 14.588 50 15.3125 50H54.6875C55.412 50 56 50.672 56 51.5C56 52.328 55.412 53 54.6875 53Z" fill="#090909"/>
<path d="M14.9286 58H4.07143C1.82671 58 0 56.2053 0 54V51.3333C0 50.5973 0.608 50 1.35714 50C2.10629 50 2.71429 50.5973 2.71429 51.3333V54C2.71429 54.7333 3.325 55.3333 4.07143 55.3333H14.9286C15.675 55.3333 16.2857 54.7333 16.2857 54V51.3333C16.2857 50.5973 16.8937 50 17.6429 50C18.392 50 19 50.5973 19 51.3333V54C19 56.2053 17.1733 58 14.9286 58Z" fill="#090909"/>
<path d="M12.3333 66H7C4.79467 66 3 64.2259 3 62.0458V56.7736C3 56.046 3.59733 55.4555 4.33333 55.4555H15C15.736 55.4555 16.3333 56.046 16.3333 56.7736V62.0458C16.3333 64.2259 14.5387 66 12.3333 66ZM5.66667 58.0916V62.0458C5.66667 62.7707 6.26667 63.3639 7 63.3639H12.3333C13.0667 63.3639 13.6667 62.7707 13.6667 62.0458V58.0916H5.66667ZM63 66H57.6667C55.4613 66 53.6667 64.2259 53.6667 62.0458V56.7736C53.6667 56.046 54.264 55.4555 55 55.4555H65.6667C66.4027 55.4555 67 56.046 67 56.7736V62.0458C67 64.2259 65.2053 66 63 66ZM56.3333 58.0916V62.0458C56.3333 62.7707 56.9333 63.3639 57.6667 63.3639H63C63.7333 63.3639 64.3333 62.7707 64.3333 62.0458V58.0916H56.3333ZM15 47.5471H7C6.264 47.5471 5.66667 46.9566 5.66667 46.2291V38.3207C5.66667 37.5931 6.264 37.0026 7 37.0026H9.66667C10.112 37.0026 10.528 37.2241 10.776 37.5905L16.1093 45.4989C16.384 45.9022 16.408 46.4241 16.1733 46.8538C15.944 47.2782 15.4933 47.5471 15 47.5471ZM8.33333 44.911H12.5067L8.952 39.6388H8.33333V44.911ZM63 47.5471H55C54.5067 47.5471 54.056 47.2782 53.8267 46.8512C53.592 46.4215 53.6187 45.9022 53.8907 45.4962L59.224 37.5879C59.472 37.2214 59.888 37 60.3333 37H63C63.736 37 64.3333 37.5905 64.3333 38.3181V46.2264C64.3333 46.9566 63.736 47.5471 63 47.5471ZM57.4933 44.911H61.6667V39.6388H61.048L57.4933 44.911ZM32.3333 42.2749C31.5973 42.2749 31 41.6844 31 40.9568V38.3207C31 37.5931 31.5973 37.0026 32.3333 37.0026C33.0693 37.0026 33.6667 37.5931 33.6667 38.3207V40.9568C33.6667 41.6844 33.0693 42.2749 32.3333 42.2749Z" fill="#090909"/>
<path d="M9.325 59.3696C8.5936 59.3696 8 58.7755 8 58.0435V56.7174C8 55.9854 8.5936 55.3913 9.325 55.3913C10.0564 55.3913 10.65 55.9854 10.65 56.7174V58.0435C10.65 58.7755 10.0564 59.3696 9.325 59.3696ZM9.325 66C8.5936 66 8 65.4059 8 64.6739V63.3478C8 62.6158 8.5936 62.0217 9.325 62.0217C10.0564 62.0217 10.65 62.6158 10.65 63.3478V64.6739C10.65 65.4059 10.0564 66 9.325 66ZM59.675 59.3696C58.9436 59.3696 58.35 58.7755 58.35 58.0435V56.7174C58.35 55.9854 58.9436 55.3913 59.675 55.3913C60.4064 55.3913 61 55.9854 61 56.7174V58.0435C61 58.7755 60.4064 59.3696 59.675 59.3696ZM59.675 66C58.9436 66 58.35 65.4059 58.35 64.6739V63.3478C58.35 62.6158 58.9436 62.0217 59.675 62.0217C60.4064 62.0217 61 62.6158 61 63.3478V64.6739C61 65.4059 60.4064 66 59.675 66ZM26.55 42.1304C25.8186 42.1304 25.225 41.5364 25.225 40.8044V38.1522C25.225 37.4202 25.8186 36.8261 26.55 36.8261C27.2814 36.8261 27.875 37.4202 27.875 38.1522V40.8044C27.875 41.5364 27.2814 42.1304 26.55 42.1304ZM37.15 42.1304C36.4186 42.1304 35.825 41.5364 35.825 40.8044V38.1522C35.825 37.4202 36.4186 36.8261 37.15 36.8261C37.8814 36.8261 38.475 37.4202 38.475 38.1522V40.8044C38.475 41.5364 37.8814 42.1304 37.15 42.1304ZM34.5 12.9565C33.7686 12.9565 33.175 12.3624 33.175 11.6304V6.32609C33.175 5.59409 33.7686 5 34.5 5C35.2314 5 35.825 5.59409 35.825 6.32609V11.6304C35.825 12.3624 35.2314 12.9565 34.5 12.9565Z" fill="#090909"/>
<path d="M42.7273 41.9998C42.0248 41.9998 41.4546 41.4025 41.4546 40.6665V37.9998C41.4546 37.2638 42.0248 36.6665 42.7273 36.6665C43.4299 36.6665 44 37.2638 44 37.9998V40.6665C44 41.4025 43.4299 41.9998 42.7273 41.9998Z" fill="#090909"/>
<path d="M48.9307 47H21.0693C20.6141 47 20.1905 46.7686 19.9484 46.3906L10.1964 30.962C9.9464 30.566 9.93324 30.0671 10.1674 29.6609C10.399 29.252 10.8384 29 11.3174 29H58.6826C59.1616 29 59.601 29.252 59.8326 29.6609C60.0668 30.0671 60.0536 30.566 59.8036 30.962L50.0516 46.3906C49.8095 46.7686 49.3859 47 48.9307 47ZM21.8035 44.4286H48.1939L56.3223 31.5714H13.6751L21.8035 44.4286Z" fill="#090909"/>
<path d="M62.4375 31.5H7.31298C6.92711 31.5 6.56223 31.3304 6.31024 31.031C6.06086 30.7341 5.95324 30.3393 6.01886 29.9577L9.22659 10.5385C9.75421 7.32935 12.4763 5 15.6998 5H54.0534C57.2768 5 59.9989 7.32935 60.5266 10.5385L63.7343 29.9577C63.7973 30.342 63.6897 30.7341 63.4429 31.031C63.1883 31.3278 62.8234 31.5 62.4375 31.5ZM8.86172 28.85H60.8888L57.9357 10.9731C57.6181 9.04655 55.9853 7.65 54.0534 7.65H15.6972C13.7652 7.65 12.1324 9.04655 11.8148 10.9731L8.86172 28.85ZM65.0625 58H54.5626C52.3918 58 50.6251 56.2166 50.6251 54.025V51.375C50.6251 50.6436 51.2131 50.05 51.9376 50.05C52.6621 50.05 53.2501 50.6436 53.2501 51.375V54.025C53.2501 54.7538 53.8407 55.35 54.5626 55.35H65.0625C65.7844 55.35 66.375 54.7538 66.375 54.025V51.375C66.375 50.6436 66.963 50.05 67.6875 50.05C68.412 50.05 69 50.6436 69 51.375V54.025C69 56.2166 67.2334 58 65.0625 58Z" fill="#090909"/>
<path d="M7.25 26H1.96429C-0.221357 26 -2 24.3175 -2 22.25V19.75C-2 17.6825 -0.221357 16 1.96429 16H8.57143C9.30086 16 9.89286 16.56 9.89286 17.25C9.89286 17.94 9.30086 18.5 8.57143 18.5H1.96429C1.2375 18.5 0.642857 19.0625 0.642857 19.75V22.25C0.642857 22.9375 1.2375 23.5 1.96429 23.5H7.25C7.97943 23.5 8.57143 24.06 8.57143 24.75C8.57143 25.44 7.97943 26 7.25 26ZM68.0357 26H62.3086C61.5792 26 60.9872 25.44 60.9872 24.75C60.9872 24.06 61.5792 23.5 62.3086 23.5H68.0357C68.7625 23.5 69.3571 22.9375 69.3571 22.25V19.75C69.3571 19.0625 68.7625 18.5 68.0357 18.5H61.4286C60.6991 18.5 60.1071 17.94 60.1071 17.25C60.1071 16.56 60.6991 16 61.4286 16H68.0357C70.2214 16 72 17.6825 72 19.75V22.25C72 24.3175 70.2214 26 68.0357 26Z" fill="#090909"/>
<path d="M31.125 13.6667H37.875C38.496 13.6667 39 13.0693 39 12.3333C39 11.5973 38.496 11 37.875 11H31.125C30.504 11 30 11.5973 30 12.3333C30 13.0693 30.504 13.6667 31.125 13.6667Z" fill="#090909"/>
</g>
<defs>
<clipPath id="clip0_44_121">
<rect width="72" height="72" fill="white"/>
</clipPath>
</defs>
</svg>
