<svg width="36" height="37" viewBox="0 0 36 37" fill="none" xmlns="http://www.w3.org/2000/svg">
<rect x="0.5" y="1.36279" width="35" height="35" rx="17.5" stroke="#090909"/>
<path d="M27 13.5216C26.3363 13.8024 25.6268 13.992 24.8792 14.0795C25.6421 13.642 26.2295 12.9493 26.5041 12.1253C25.7908 12.53 25.0013 12.8253 24.1583 12.9821C23.4832 12.293 22.5219 11.8628 21.4615 11.8628C19.4209 11.8628 17.7692 13.4451 17.7692 15.3956C17.7692 15.6727 17.7997 15.9425 17.8646 16.2013C14.794 16.0555 12.0706 14.6482 10.2511 12.5081C9.93452 13.0295 9.75143 13.6383 9.75143 14.2836C9.75143 15.5086 10.4075 16.5914 11.3992 17.2258C10.7889 17.2112 10.2168 17.0508 9.72092 16.7847V16.8284C9.72092 18.542 10.9949 19.9675 12.6847 20.292C12.3757 20.3722 12.0477 20.4159 11.712 20.4159C11.4755 20.4159 11.2428 20.394 11.0178 20.3503C11.487 21.7539 12.8525 22.7748 14.4698 22.8039C13.2072 23.7519 11.6128 24.317 9.88112 24.317C9.5836 24.317 9.28989 24.2987 9 24.2659C10.6287 25.2795 12.5702 25.8628 14.6529 25.8628C21.4539 25.8628 25.1691 20.4779 25.1691 15.8076C25.1691 15.6545 25.1653 15.5013 25.1577 15.3519C25.8786 14.8524 26.5041 14.2326 27 13.5216Z" fill="#090909"/>
</svg>
