<svg width="72" height="72" viewBox="0 0 72 72" fill="none" xmlns="http://www.w3.org/2000/svg">
<path d="M48.7792 64.164C48.0703 63.3976 47.4381 62.727 46.825 62.0373C45.0432 59.9873 43.1656 58.0139 41.5371 55.8489C39.0656 52.5535 38.4908 48.8941 40.4259 45.1198C42.4759 41.1347 47.1124 39.2379 51.404 40.5216C55.7148 41.8053 58.5121 45.8861 58.0714 50.3694C57.8798 52.3619 56.9602 54.0863 55.7532 55.619C53.4924 58.4928 51.1358 61.2709 48.7792 64.164ZM53.3583 49.718C53.3583 47.1506 51.3082 45.0815 48.7409 45.0623C46.1927 45.0431 44.0469 47.1698 44.0469 49.7371C44.0469 52.2853 46.1161 54.3545 48.6834 54.3736C51.2891 54.3928 53.3774 52.3236 53.3583 49.718Z" fill="black"/>
<path d="M32.8579 42.3417C32.379 39.0655 31.9192 35.8276 31.4593 32.5897C31.3061 31.4784 31.1719 30.3672 30.9804 29.256C30.9229 28.8728 30.7313 28.5088 30.578 28.1448C30.5205 27.9915 30.4247 27.8574 30.3289 27.7233C28.528 25.0793 27.9915 22.1863 28.5471 19.0442C28.7004 18.1437 28.7387 17.2241 28.7771 16.3236C28.7962 15.6147 29.1219 15.1549 29.7733 14.9633C30.578 14.7142 31.3827 14.446 32.2065 14.3502C34.4673 14.1203 36.7281 14.0628 38.9314 14.7525C40.1001 15.1166 40.3683 15.4806 40.4258 16.7068C40.5216 18.3544 40.5982 20.0213 40.7515 21.669C40.8281 22.5886 40.6749 23.4316 40.33 24.2555C40.0618 24.8685 39.8702 25.5391 39.5253 26.1139C38.3375 28.049 38.0309 30.1948 37.7435 32.3789C37.322 35.6935 36.8239 38.9888 36.3449 42.3225C35.1762 42.3417 34.0458 42.3417 32.8579 42.3417Z" fill="#FE4438"/>
<path d="M7.2424 52.9178C5.4606 50.7528 3.60216 48.8752 2.18439 46.7102C-0.191343 43.0316 1.76289 38.3568 5.93958 37.4563C8.39195 36.9199 10.4995 37.6479 12.0513 39.6405C13.5458 41.5755 13.7757 43.7214 12.6261 45.9438C12.5686 46.0588 12.5112 46.2121 12.4345 46.3079C10.7485 48.4537 9.06252 50.5995 7.2424 52.9178ZM7.18492 46.4611C8.85177 46.4994 10.2312 45.1966 10.2695 43.5681C10.3079 41.8438 8.96672 40.4452 7.26156 40.4452C5.63303 40.4452 4.27273 41.7863 4.23442 43.434C4.1961 45.0433 5.5564 46.442 7.18492 46.4611Z" fill="black"/>
<path d="M12.396 49.0859C13.1815 47.8788 13.8904 46.7676 14.6185 45.6372C21.9947 48.1854 29.6775 48.4536 37.3987 48.3961C37.5136 49.584 37.6286 50.7144 37.7435 51.9789C29.1794 52.1513 20.6919 51.6532 12.396 49.0859Z" fill="#FE4438"/>
<path d="M59.8725 47.7636C59.5851 46.0393 58.9912 44.5449 58.0716 43.2038C57.9949 43.108 57.9566 42.9355 57.9758 42.8206C58.1674 41.7477 57.5543 41.0963 56.7879 40.5407C55.3893 39.5635 53.7608 39.1037 52.1131 38.7205C48.1088 37.8201 44.0279 37.5901 39.9279 37.571C39.7171 37.571 39.5064 37.5518 39.2956 37.5518C39.2573 37.5518 39.219 37.5135 39.1807 37.4752C39.3339 36.2298 39.4681 36.0957 40.6368 36.1149C45.5798 36.2107 50.5037 36.3831 55.3127 37.6476C57.0753 38.1074 58.8188 38.7972 60.4473 39.6402C61.3669 40.1192 62.2099 40.9813 62.8039 41.8435C63.8193 43.2996 63.5511 44.7748 62.2866 46.0202C61.98 46.3267 61.616 46.6141 61.2711 46.8632C60.8688 47.1697 60.4281 47.4188 59.8725 47.7636Z" fill="#FE4438"/>
<path d="M66.4441 43.5298C65.0646 41.863 63.5894 40.3877 62.4782 38.6826C60.4281 35.5596 62.1716 31.7087 65.7927 31.1147C67.6511 30.8082 69.2222 31.4787 70.3526 32.9732C71.4829 34.4484 71.732 36.0961 70.8699 37.7821C70.4675 38.5868 69.9119 39.334 69.3563 40.0429C68.475 41.1733 67.517 42.2653 66.4441 43.5298ZM68.9156 36.0003C68.9156 34.6783 67.8427 33.6054 66.5207 33.5863C65.1796 33.5671 64.0875 34.6783 64.0875 36.0195C64.0875 37.3414 65.1604 38.4335 66.4824 38.4527C67.8044 38.4527 68.9156 37.3414 68.9156 36.0003Z" fill="black"/>
<path d="M13.603 38.0695C15.6722 37.6289 17.6456 37.0924 19.6382 36.8433C22.6078 36.4793 25.5966 36.3452 28.5663 36.077C29.3135 36.0003 29.7159 36.2302 29.8117 36.9774C29.8308 37.1882 29.9266 37.3798 30.0224 37.6672C24.792 37.8205 19.6765 38.4719 14.6568 39.9663C14.3311 39.3723 14.0245 38.8167 13.603 38.0695Z" fill="#FE4438"/>
<path d="M34.5439 7.31885C36.1724 7.31885 37.5327 8.65999 37.5327 10.3077C37.5327 11.9362 36.1916 13.2965 34.563 13.3157C32.9345 13.3157 31.5934 11.9745 31.5742 10.3268C31.5742 8.67915 32.8962 7.33801 34.5439 7.31885Z" fill="#FE4438"/>
<path d="M47.3041 34.7741C46.5186 33.8162 45.7714 33.069 45.1966 32.1876C44.162 30.5974 45.005 28.6432 46.8251 28.2792C47.8022 28.0876 48.6261 28.4133 49.2392 29.1988C49.8523 29.9652 50.063 30.8848 49.5074 31.7278C48.8943 32.7624 48.1088 33.682 47.3041 34.7741ZM48.5686 30.8273C48.5686 30.1568 48.0322 29.582 47.3424 29.5628C46.6144 29.5437 46.0396 30.0993 46.0396 30.8082C46.0396 31.4788 46.5952 32.0535 47.2658 32.0727C47.9555 32.111 48.5494 31.5171 48.5686 30.8273Z" fill="black"/>
<path d="M22.4355 34.7739C21.65 33.8159 20.9219 33.0304 20.328 32.1491C19.6958 31.2295 19.8107 30.0416 20.4621 29.1986C21.0944 28.3939 22.1481 28.049 23.1444 28.3364C24.6771 28.7771 25.4435 30.4822 24.6388 31.8425C24.0449 32.8388 23.2402 33.7201 22.4355 34.7739ZM23.7192 30.808C23.7192 30.1374 23.1444 29.5818 22.4547 29.5626C21.7266 29.5626 21.171 30.1182 21.171 30.8271C21.1902 31.5168 21.7266 32.0725 22.4163 32.0725C23.1252 32.0916 23.7192 31.4977 23.7192 30.808Z" fill="black"/>
</svg>
